<?xml version="1.0" encoding="utf-8"?>
<!-- Generator: Adobe Illustrator 18.1.0, SVG Export Plug-In . SVG Version: 6.00 Build 0)  -->
<!DOCTYPE svg PUBLIC "-//W3C//DTD SVG 1.1//EN" "http://www.w3.org/Graphics/SVG/1.1/DTD/svg11.dtd">
<svg version="1.1" id="_x2014_ŽÓť_x5F_1" xmlns="http://www.w3.org/2000/svg" xmlns:xlink="http://www.w3.org/1999/xlink"
	 x="0px" y="0px" viewBox="155.9 279.2 283.5 283.5" enable-background="new 155.9 279.2 283.5 283.5" xml:space="preserve">
<g>
	<path d="M297.2,557.2C296.7,557.2,296.7,557.2,297.2,557.2l-6.8-4.5c-1.8-0.9-3.2-2.3-4.5-3.2c-1.4-0.9-2.7-2.3-4.1-3.2l-3.2-2.3
		l-2.3-0.9l0,0l-2.3-2.3c-60-45-96.3-86.8-111.3-127.2l0,0l-0.9-4.1c-2.3-4.1-3.2-8.6-4.1-14.1l0,0c0-0.9-0.5-1.8-0.5-3.2
		c-0.5-0.9-0.5-2.3-0.5-3.2v-0.9c-0.9-2.3-0.9-4.5-0.9-6.4v-15.4l0,0c1.8-23.6,10.4-44.1,24.5-59.1c12.3-12.7,28.2-20.9,44.1-21.8
		c4.5-0.9,8.6-0.9,12.7-0.9c4.1,0,9.5,0,14.1,0.9c17.3,2.7,31.3,10.9,45,25.4c13.6-14.5,27.7-22.7,45-25.4c5.5-0.9,9.5-0.9,15-0.9
		c4.1,0,8.6,0,14.1,0.9c16.4,1.8,31.8,9.5,44.1,22.3c14.1,14.5,22.7,35,25,58.6l0,0v15c0,0.9-0.5,2.3-0.5,3.2
		c-0.5,1.4-0.5,2.7-0.5,4.5v0.9c0,1.8-0.5,3.2-0.5,4.5c-0.5,0.9-0.5,1.8-0.5,2.7v0.9l0,0c-0.5,2.3-1.4,4.5-2.3,6.8
		c-0.9,2.3-1.8,5-2.3,7.3c0,0.5-0.5,0.5-0.5,0.5c-0.5,0-0.5,0-0.5,0.5c0,0,0,0,0,0.5l-2.3,5.5c-7.7,20-20,39.5-38.6,60
		c-18.2,20-40.9,40.4-70.4,62.2l0,0l-2.3,0.9c-0.9,0.5-1.8,1.4-2.7,2.3c-0.9,0.9-1.8,1.8-2.7,2.3c-1.4,0.9-2.7,2.3-4.1,3.2
		c-1.4,0.9-2.7,2.3-4.5,3.2L297.2,557.2L297.2,557.2z M287.6,534.1c2.3,0.9,4.1,2.3,5.9,3.6c0.5,0.5,1.4,0.9,2.3,1.4
		c2.7-0.9,5.9-2.7,7.7-5c0.5-0.5,0.5-0.5,0.9-0.9c1.8-1.8,2.7-2.7,4.5-3.6c0,0,0,0,0.5,0s0.5,0,0.5-0.5c0.5-0.5,0.5-0.5,1.4-0.5
		c29.5-21.8,53.6-43.2,71.3-64.1c15.9-18.6,27.3-36.8,33.6-54.5l0,0c1.8-3.6,2.7-8.2,3.6-12.3c0-0.5,0-0.9,0.5-1.4v-0.9
		c0-0.9,0.5-2.3,0.5-3.2c0.5-0.9,0.5-1.8,0.5-3.2v-0.9c0,0,0,0,0-0.5c0.9-1.8,0.9-4.1,0.9-5.9v-13.6c-4.1-44.1-32.3-66.3-56.8-68.1
		l0,0c-4.1-0.9-8.2-0.9-11.4-0.9c-4.1,0-8.2,0-10.9,0.9l0,0c-20.4,3.2-31.8,14.5-45.4,30l-0.5,0.5c0,0-0.5,0-0.5-0.5
		c-13.6-15.4-25-26.8-45.4-30l0,0c-4.1-0.9-8.2-0.9-12.3-0.9h-12.3c-13.2,0.9-26.3,7.7-36.3,18.6c-11.8,12.7-19.1,30-20.4,49.5v21.8
		c0,0.9,0.5,1.8,0.5,3.2c0.5,0.9,0.5,2.3,0.5,3.2v0.9v0.5c0.9,4.1,1.8,7.7,4.1,12.7c6.8,17.7,18.2,36.3,33.6,54.5
		c17.7,20.9,41.8,42.2,71.3,64.1c0.5,0,0.9,0.5,1.4,0.9c0.5,0,0.5,0.5,0.5,0.5h0.5c0.5,0.5,0.5,0.5,0.9,0.9
		C285.4,532.2,286.3,533.1,287.6,534.1z"/>
</g>
</svg>
