<?xml version="1.0" encoding="utf-8"?>
<!-- Generator: Adobe Illustrator 18.0.0, SVG Export Plug-In . SVG Version: 6.00 Build 0)  -->
<!DOCTYPE svg PUBLIC "-//W3C//DTD SVG 1.1//EN" "http://www.w3.org/Graphics/SVG/1.1/DTD/svg11.dtd">
<svg version="1.1" id="_x2014_ŽÓť_x5F_1" xmlns="http://www.w3.org/2000/svg" xmlns:xlink="http://www.w3.org/1999/xlink"
	 x="0px" y="0px" viewBox="0 133.5 597.5 574.9" enable-background="new 0 133.5 597.5 574.9" xml:space="preserve">
<g>
	<path fill="#535353" d="M420.5,161.8c6.6,0,15.5,0,24.4,2.2c53.1,4.4,112.9,53.1,121.8,146.1V339c0,4.4,0,8.9-2.2,13.3v2.2
		c0,4.4-2.2,8.9-2.2,13.3c0,0,0,0,0,2.2c-2.2,8.9-4.4,19.9-8.9,28.8l0,0c-26.6,70.8-90.8,155-223.6,252.4c-2.2,0-2.2,2.2-4.4,2.2
		c-4.4,2.2-6.6,4.4-11.1,8.9c-4.4,4.4-11.1,8.9-17.7,11.1c-6.6-4.4-11.1-8.9-17.7-11.1c-4.4-2.2-6.6-4.4-11.1-8.9
		c-2.2,0-2.2-2.2-4.4-2.2c-132.8-97.4-197-181.6-223.6-252.4l0,0c-4.4-11.1-6.6-19.9-8.9-28.8c0,0,0,0,0-2.2c0-4.4-2.2-8.9-2.2-13.3
		v-2.2c0-4.4,0-8.9,0-13.3v-31c6.6-93,68.6-141.7,121.8-146.1c8.9,0,15.5,0,24.4,0l0,0c8.9,0,17.7,0,26.6,2.2
		c44.3,6.6,68.6,31,97.4,64.2c28.8-33.2,53.1-57.6,97.4-64.2C402.8,161.8,411.7,161.8,420.5,161.8 M423.3,133.5
		c-11.3,0-20.4,0-31.7,2.3c-43,6.8-72.4,29.4-95.1,54.3c-22.6-24.9-52.1-47.5-95.1-54.3c-9.1-2.3-20.4-2.3-29.4-2.3
		c-9.1,0-18.1,0-27.2,2.3C81.5,140.3,9.1,196.9,0,305.5l0,0l0,0v31.7l0,0l0,0c0,4.5,0,9.1,2.3,13.6v2.3c0,4.5,2.3,9.1,2.3,13.6l0,0
		l0,0c2.3,11.3,4.5,20.4,9.1,29.4l0,0l2.3,9.1c31.7,86,108.6,174.3,235.4,269.3l2.3,2.3l2.3,2.3l4.5,2.3l6.8,4.5
		c6.8,4.5,11.3,9.1,18.1,13.6l13.6,9.1l13.6-9.1c6.8-4.5,11.3-9.1,18.1-13.6c4.5-2.3,6.8-6.8,11.3-9.1l4.5-2.3
		c122.2-90.5,199.2-174.3,230.9-258l0,0l4.5-11.3c0,0,0-2.3,2.3-2.3l0,0l0,0c2.3-9.1,6.8-20.4,9.1-29.4l0,0v-2.3
		c0-4.5,2.3-9.1,2.3-15.8l0,0V353c0-6.8,2.3-11.3,2.3-15.8l0,0l0,0v-31.7l0,0l0,0c-9.1-108.6-81.5-163-144.9-169.8
		C441.4,133.5,432.3,133.5,423.3,133.5L423.3,133.5z"/>
</g>
</svg>
