<?xml version="1.0" encoding="utf-8"?>
<!-- Generator: Adobe Illustrator 18.1.0, SVG Export Plug-In . SVG Version: 6.00 Build 0)  -->
<!DOCTYPE svg PUBLIC "-//W3C//DTD SVG 1.1//EN" "http://www.w3.org/Graphics/SVG/1.1/DTD/svg11.dtd">
<svg version="1.1" id="Isolationsmodus" xmlns="http://www.w3.org/2000/svg" xmlns:xlink="http://www.w3.org/1999/xlink" x="0px"
	 y="0px" viewBox="155.9 279.2 283.5 283.5" enable-background="new 155.9 279.2 283.5 283.5" xml:space="preserve">
<g>
	<g>
		<g>
			<path fill="#79C9EC" d="M422,529.3c0-7.4-5-76.7-21-94.1l-1.2-1.2c0,0-14.9-9.9-28.5-13.6c-6.2-1.2-23.5-6.2-32.2-16.1l-1.2-1.2
				l-1.2-11.1c2.5-3.7,6.2-9.9,8.7-18.6c2.5-2.5,7.4-8.7,6.2-21v-8.7l-1.2-1.2l-1.2-1.2c1.2-13.6,0-39.6-16.1-50.8
				c-2.5-2.5-12.4-11.1-35.9-11.1c-21,0-30.9,7.4-33.4,9.9c-17.3,11.1-17.3,38.4-17.3,52c-1.2,0-1.2,1.2-1.2,1.2l-1.2,1.2v6.2
				c-1.2,13.6,3.7,19.8,6.2,22.3c2.5,8.7,7.4,16.1,8.7,18.6l-1.2,11.1l-1.2,1.2c-9.9,11.1-32.2,16.1-32.2,16.1
				c-13.6,3.7-28.5,13.6-28.5,13.6l-1.2,1.2c-16.1,17.3-19.8,86.6-21,94.1v2.5l2.5,1.2c2.5,3.7,42.1,30.9,122.5,30.9
				s120.1-27.2,121.3-28.5l2.5-1.2V529.3z M298.3,551.5c-65.6,0-102.7-18.6-112.6-24.8c1.2-22.3,6.2-70.6,17.3-82.9
				c2.5-1.2,13.6-8.7,23.5-11.1c1.2,0,26-5,38.4-19.8l3.7-5l1.2-19.8v-1.2c0,0-5-7.4-8.7-17.3l-2.5-23.5c-1.2-9.9-2.5-38.4,11.1-47
				l1.2-1.2c0,0,7.4-7.4,27.2-8.7c19.8,1.2,27.2,8.7,27.2,8.7l0,0l1.2,1.2c13.6,8.7,12.4,37.1,11.1,48.3l-2.5,22.3
				c-3.7,9.9-8.7,17.3-8.7,17.3l-1.2,1.2l1.2,19.8l3.7,5c12.4,14.9,37.1,19.8,38.4,19.8c11.1,2.5,22.3,9.9,24.8,11.1
				c9.9,12.4,16.1,61.9,17.3,82.9C401,533,363.9,551.5,298.3,551.5z"/>
		</g>
	</g>
</g>
</svg>
