<?xml version="1.0" encoding="utf-8"?>
<!-- Generator: Adobe Illustrator 18.0.0, SVG Export Plug-In . SVG Version: 6.00 Build 0)  -->
<!DOCTYPE svg PUBLIC "-//W3C//DTD SVG 1.1//EN" "http://www.w3.org/Graphics/SVG/1.1/DTD/svg11.dtd">
<svg version="1.1" id="Isolationsmodus" xmlns="http://www.w3.org/2000/svg" xmlns:xlink="http://www.w3.org/1999/xlink" x="0px"
	 y="0px" viewBox="0 0 20 23" enable-background="new 0 0 20 23" xml:space="preserve">
<g>
	<g>
		<g>
			<path fill="#79C9EC" d="M20,20.3c0-0.6-0.4-6.2-1.7-7.6l-0.1-0.1c0,0-1.2-0.8-2.3-1.1c-0.5-0.1-1.9-0.5-2.6-1.3l-0.1-0.1
				l-0.1-0.9c0.2-0.3,0.5-0.8,0.7-1.5c0.2-0.2,0.6-0.7,0.5-1.7V5.3l-0.1-0.1c0,0-0.1-0.1-0.1-0.1c0.1-1.1,0-3.2-1.3-4.1
				c-0.2-0.2-1-0.9-2.9-0.9C8.2,0.1,7.4,0.7,7.2,0.9C5.8,1.8,5.8,4,5.8,5.1C5.7,5.1,5.7,5.2,5.7,5.2L5.6,5.3l0,0.5
				C5.5,6.9,5.9,7.4,6.1,7.6c0.2,0.7,0.6,1.3,0.7,1.5l-0.1,0.9l-0.1,0.1c-0.8,0.9-2.6,1.3-2.6,1.3c-1.1,0.3-2.3,1.1-2.3,1.1
				l-0.1,0.1c-1.3,1.4-1.6,7-1.7,7.6l0,0.2l0.2,0.1C0.3,20.8,3.5,23,10,23c6.5,0,9.7-2.2,9.8-2.3l0.2-0.1L20,20.3z M10,22.1
				c-5.3,0-8.3-1.5-9.1-2c0.1-1.8,0.5-5.7,1.4-6.7c0.2-0.1,1.1-0.7,1.9-0.9c0.1,0,2.1-0.4,3.1-1.6l0.3-0.4l0.1-1.6L7.7,8.8
				c0,0-0.4-0.6-0.7-1.4L6.8,5.5C6.7,4.7,6.6,2.4,7.7,1.7l0.1-0.1c0,0,0.6-0.6,2.2-0.7c1.6,0.1,2.2,0.7,2.2,0.7v0l0.1,0.1
				c1.1,0.7,1,3,0.9,3.9L13,7.4c-0.3,0.8-0.7,1.4-0.7,1.4l-0.1,0.1l0.1,1.6l0.3,0.4c1,1.2,3,1.6,3.1,1.6c0.9,0.2,1.8,0.8,2,0.9
				c0.8,1,1.3,5,1.4,6.7C18.3,20.6,15.3,22.1,10,22.1z"/>
		</g>
	</g>
</g>
</svg>
