<?xml version="1.0" encoding="utf-8"?>
<!-- Generator: Adobe Illustrator 18.1.0, SVG Export Plug-In . SVG Version: 6.00 Build 0)  -->
<!DOCTYPE svg PUBLIC "-//W3C//DTD SVG 1.1//EN" "http://www.w3.org/Graphics/SVG/1.1/DTD/svg11.dtd">
<svg version="1.1" id="Isolationsmodus" xmlns="http://www.w3.org/2000/svg" xmlns:xlink="http://www.w3.org/1999/xlink" x="0px"
	 y="0px" viewBox="155.9 279.2 283.5 283.5" enable-background="new 155.9 279.2 283.5 283.5" xml:space="preserve">
<g>
	<path d="M298.1,562.7c-77.9,0-116.5-25.5-122-30.6l-2.3-0.9l-1.4-2.3v-2.3c0-1.4,0.5-4.2,0.9-7.9c1.9-21.3,6.5-71.5,20.4-86.3
		l1.4-1.4c0.9-0.5,15.3-10.2,29.2-13.9c0.5,0,21.3-5.1,30.6-15.3l0.9-0.9l0.9-9.3c0-0.5-0.5-0.9-0.9-1.4c-1.9-3.2-5.6-9.3-7.4-16.2
		c-5.1-5.1-7.4-13.5-6.5-23.2v-6l0.5-1.9l0.5-0.5c0-0.5,0.5-0.9,0.9-1.4c0-13.9,0.5-40.4,17.6-51.5c2.3-1.9,12.1-10.2,34.3-10.2
		c22.7,0,33.4,7.9,37.1,11.6c18.1,12.5,17.2,42.2,16.7,50.6l2.3,1.4l1.4,1.9v8.4c0,11.1-3.2,18.1-7,21.8c-1.9,6.5-5.1,12.1-8.4,17.6
		l0.9,9.3l0.5,0.5c7.9,8.8,23.2,13.9,30.6,15.3c13.9,3.7,28.3,13.5,28.8,13.9l1.4,1.4c16.2,18.1,21.8,84.9,21.8,93.7l0.9,0.5v3.7
		l-1.9,2.3l-2.8,1.4C412.7,538.6,374.7,562.7,298.1,562.7z M189.5,523.7c8.8,5.1,44.1,23.2,108.1,23.2c65.4,0,100.7-18.6,108.1-23.2
		c-1.4-21.8-7.4-66.8-16.2-78.4c-0.5-0.5-1.4-0.5-1.9-0.9c-4.2-2.3-13-7.4-21.3-9.3c-3.7-0.5-26.9-6-39-20.4l-3.7-5.1l-0.5-1.4
		l-1.4-19.5l0.5-1.9l1.4-1.4c0,0,4.6-7,7.9-15.8l2.3-21.8c1.9-16.7,0.5-38.5-9.7-45.5l-0.5-0.5l-1.4-1.4c0,0-7-6.5-25.1-7.9
		c-18.1,1.4-25.1,7.9-25.1,7.9l-1.4,1.4l-0.5,0.5c-11.1,7-11.6,31.1-9.7,44.1l2.3,22.7c3.2,9.3,7,16.2,7,16.2l-0.5,1.4v1.4v19.5v1.4
		l-3.2,5.1c-12.1,14.4-35.3,20-39,20.4c-7.4,1.9-15.3,6.5-19.5,9.3c-0.9,0.5-1.9,0.9-2.3,1.4C195.6,456.9,190.5,501,189.5,523.7z"/>
</g>
</svg>
