<?xml version="1.0" encoding="utf-8"?>
<!-- Generator: Adobe Illustrator 18.1.0, SVG Export Plug-In . SVG Version: 6.00 Build 0)  -->
<!DOCTYPE svg PUBLIC "-//W3C//DTD SVG 1.1//EN" "http://www.w3.org/Graphics/SVG/1.1/DTD/svg11.dtd">
<svg version="1.1" id="Isolationsmodus" xmlns="http://www.w3.org/2000/svg" xmlns:xlink="http://www.w3.org/1999/xlink" x="0px"
	 y="0px" viewBox="612 368.2 54 61" enable-background="new 612 368.2 54 61" xml:space="preserve">
<g>
	<path d="M639.1,429.2c-16.8,0-25.1-5.5-26.3-6.6l-0.5-0.2l-0.3-0.5v-0.5c0-0.3,0.1-0.9,0.2-1.7c0.4-4.6,1.4-15.4,4.4-18.6l0.3-0.3
		c0.2-0.1,3.3-2.2,6.3-3c0.1,0,4.6-1.1,6.6-3.3l0.2-0.2l0.2-2c0-0.1-0.1-0.2-0.2-0.3c-0.4-0.7-1.2-2-1.6-3.5c-1.1-1.1-1.6-2.9-1.4-5
		l0-1.3l0.1-0.4l0.1-0.1c0-0.1,0.1-0.2,0.2-0.3c0-3,0.1-8.7,3.8-11.1c0.5-0.4,2.6-2.2,7.4-2.2c4.9,0,7.2,1.7,8,2.5
		c3.9,2.7,3.7,9.1,3.6,10.9l0.5,0.3l0.3,0.4v1.8c0,2.4-0.7,3.9-1.5,4.7c-0.4,1.4-1.1,2.6-1.8,3.8l0.2,2l0.1,0.1c1.7,1.9,5,3,6.6,3.3
		c3,0.8,6.1,2.9,6.2,3l0.3,0.3c3.5,3.9,4.7,18.3,4.7,20.2l0.2,0.1v0.8l-0.4,0.5l-0.6,0.3C663.8,424,655.6,429.2,639.1,429.2z
		 M615.7,420.8c1.9,1.1,9.5,5,23.3,5c14.1,0,21.7-4,23.3-5c-0.3-4.7-1.6-14.4-3.5-16.9c-0.1-0.1-0.3-0.1-0.4-0.2
		c-0.9-0.5-2.8-1.6-4.6-2c-0.8-0.1-5.8-1.3-8.4-4.4l-0.8-1.1l-0.1-0.3l-0.3-4.2l0.1-0.4l0.3-0.3c0,0,1-1.5,1.7-3.4l0.5-4.7
		c0.4-3.6,0.1-8.3-2.1-9.8l-0.1-0.1l-0.3-0.3c0,0-1.5-1.4-5.4-1.7c-3.9,0.3-5.4,1.7-5.4,1.7l-0.3,0.3l-0.1,0.1
		c-2.4,1.5-2.5,6.7-2.1,9.5l0.5,4.9c0.7,2,1.5,3.5,1.5,3.5l-0.1,0.3v0.3l0,4.2l0,0.3l-0.7,1.1c-2.6,3.1-7.6,4.3-8.4,4.4
		c-1.6,0.4-3.3,1.4-4.2,2c-0.2,0.1-0.4,0.2-0.5,0.3C617,406.4,615.9,415.9,615.7,420.8z"/>
</g>
</svg>
