<?xml version="1.0" encoding="utf-8"?>
<!-- Generator: Adobe Illustrator 18.1.0, SVG Export Plug-In . SVG Version: 6.00 Build 0)  -->
<!DOCTYPE svg PUBLIC "-//W3C//DTD SVG 1.1//EN" "http://www.w3.org/Graphics/SVG/1.1/DTD/svg11.dtd">
<svg version="1.1" id="Ebene_1" xmlns="http://www.w3.org/2000/svg" xmlns:xlink="http://www.w3.org/1999/xlink" x="0px" y="0px"
	 viewBox="594.8 368.3 89.3 60.8" enable-background="new 594.8 368.3 89.3 60.8" xml:space="preserve">
<polygon points="684.1,382.9 684.1,385.7 675.2,385.7 675.2,394.6 672.4,394.6 672.4,385.7 663.5,385.7 663.5,382.9 672.4,382.9 
	672.4,374 675.2,374 675.2,382.9 "/>
<path d="M621.3,429.1c-15.9,0-24.2-4.9-25.8-5.9l-0.4-0.4c-0.2-0.1-0.1-0.3-0.1-0.5v-0.6l-0.2-0.2c0.4-6.1,1.4-16.7,4.4-19.9
	l0.2-0.2l0.1-0.1l0,0c0,0,0.4-0.2,0.4-0.2c1-0.6,3.3-2.1,5.7-2.6c0,0,0.1-0.1,0.5-0.2c1.1-0.3,4.4-1.3,5.9-3.1l0.1-0.2l0.2-2.1
	c-0.1-0.1-0.1-0.2-0.2-0.4c-0.4-0.7-1.1-1.9-1.6-3.4c-1.2-1.2-1.7-2.8-1.5-4.9l0-1.5c0-0.1,0-0.3,0.1-0.4l0.2-0.2
	c0.1-0.2,0.2-0.3,0.3-0.4c-0.1-2.6,0.1-8.3,3.7-10.8c0.3-0.4,2.4-2.3,7.7-2.6c1.7,0.1,5.7,0.5,7.8,2.6c3.3,2.2,3.9,7.1,3.7,10.8
	c0.1,0.1,0.2,0.2,0.3,0.3l0.1,0.1c0.1,0.1,0.1,0.3,0.1,0.4v1.4c0,2-0.2,3.6-1.4,4.9c-0.6,1.7-1.3,3.1-1.8,3.8l0.1,2.2l0.2,0.2
	c0.4,0.4,0.8,0.7,1.1,0.9c0.2-0.1,0.5-0.2,0.7-0.2c0.9-0.2,4-1,5.6-2.7l0.1-0.2l0.1-1.8c-0.4-0.7-1-1.9-1.5-3.3
	c-0.5-0.5-1.3-1.7-1.3-4.4v-1.1c0-0.2,0-0.3,0.1-0.4l0.4-0.5c0-1-0.1-2.8,0.3-4.7c0.5-2.3,1.5-3.9,2.9-5c0.3-0.3,2.3-2.1,6.8-2.2
	c4.3,0.1,6.3,1.6,7,2.3c3,2,3.4,6.7,3.3,9.5c0.1,0.1,0.2,0.2,0.3,0.4l0,0.1c0.1,0.1,0,0.3,0,0.4v1.3c0,2.5-0.6,3.8-1.2,4.3
	c-0.5,1.5-1.1,2.7-1.5,3.3l0.2,1.8l0.2,0.2c1.2,1.4,4,2.4,5.6,2.7c2.5,0.7,5,2.3,5.5,2.7l0.2,0.1l0.1,0.1l0,0l0.1,0
	c1.9,2.2,3.1,7.9,3.8,17.1c0,0-0.1,0.3-0.1,0.3c0.1,0.1,0,0.2,0,0.3v0.6c0,0.2,0,0.3-0.1,0.4c-0.3,0.2-0.4,0.4-0.5,0.4l0,0
	c-0.3,0.2-2.2,1.5-5.7,2.7c-4.7,1.6-10.1,2.5-16.1,2.6C644.9,424.5,636.7,429.1,621.3,429.1z M598.3,420.8c2.3,1.3,9.9,4.9,22.9,4.9
	c7.5,0,14.1-1.2,20.4-3.6l-0.1,0c1-0.4,1.5-0.9,2.5-1.3v-0.1c0-1.5-0.3-5.4-1-9.2c-0.8-4.7-1.6-6.6-2.2-7.3c-0.1,0-0.1-0.1-0.3-0.2
	c-0.9-0.5-2.8-1.7-4.6-2.2c-0.4,0-2.9-0.7-5.3-1.9l-0.2-0.1c-0.7-0.3-1.4-0.7-2-1.3c-0.1-0.1-0.4-0.4-0.4-0.4
	c-0.2-0.2-0.4-0.4-0.6-0.6l-0.8-0.9c-0.1-0.1-0.1-0.2-0.1-0.4l-0.4-4.1c0-0.1,0-0.2,0.1-0.3l0.4-0.5c0,0,1-1.3,1.7-3.3l0.6-4.6
	c0-0.4,0.3-2.7-0.1-5c-0.3-2.3-1-3.8-2.1-4.5l0,0l-0.1,0l-0.2-0.2c-0.4-0.4-2.1-1.5-5.4-1.6c-3.1,0.1-4.8,1.2-5.2,1.6l-0.2,0.2
	l-0.1,0.1c-2.5,1.6-2.6,7.2-2.2,9.5l0.6,4.8c0.6,1.9,1.6,3.2,1.6,3.3l0.3,0.4c0.1,0.1,0.1,0.2,0.1,0.3l-0.2,4.1
	c0,0.1-0.1,0.3-0.2,0.4l-0.8,0.9c-2.8,3-7.8,4.2-8.5,4.3c-1.7,0.5-3.8,1.7-4.6,2.2l-0.4-0.2l0.1,0.2l0.1,0.1c0,0,0,0,0,0.1l0,0l0,0
	C599.7,406.8,598.6,416.5,598.3,420.8z M636.7,398.4c3.1,0.7,6.1,2.8,6.2,3l0.2,0.2c3,3.5,4.1,14.5,4.4,18.4c4.6-0.2,8.8-0.8,12.6-2
	c2.8-0.9,4.7-1.8,5.7-2.3c-0.3-4.3-1.2-12.5-3-14.7c-0.5-0.4-2.4-1.5-4.2-1.9c-0.6-0.1-5-1.3-7.4-3.8l-0.7-0.8l-0.1-0.3l-0.2-3.6
	c0-0.1,0-0.3,0.1-0.4l0.2-0.3l0.1,0.1l0.1-0.1l-0.1-0.1c0,0,0,0,0,0c0,0,0.8-1.2,1.4-3l0.6-4c0.2-1.7,0.3-6.8-1.9-8.3l0,0l-0.1,0
	l-0.2-0.2c-0.3-0.3-1.8-1.3-4.6-1.4c-2.8,0.1-4.2,1-4.5,1.3l-0.3,0.3l-0.1,0.1c-2.2,1.3-2.1,6.5-1.9,8.2l0.5,4.1
	c0.5,1.6,1.4,2.8,1.4,2.8l0,0l0,0l0.2,0.4c0.1,0.1,0.1,0.2,0.1,0.3L641,394c0,0.1,0,0.2-0.1,0.3l-0.7,0.9c-1.3,1.4-3,2.2-4.6,2.9
	C635.8,398.2,636.7,398.4,636.7,398.4z"/>
<path d="M621.3,428.7c-15.8,0-24.1-4.9-25.6-5.9l0,0l-0.6-0.4c-0.1,0-0.1-0.1-0.1-0.2v-0.6v0l0-0.1c0.3-4.8,1.3-16.4,4.4-19.7
	l0.2-0.2c0,0,0.1,0,0.1,0c0,0,0.2-0.1,0.4-0.2c1-0.6,3.3-2,5.6-2.6c0.1,0,0.2-0.1,0.5-0.2c1.2-0.4,4.5-1.3,6.1-3.2l0.2-0.3l0.2-2.4
	c-0.1-0.1-0.2-0.3-0.3-0.5c-0.4-0.8-1.1-2-1.6-3.4c-1.1-1.2-1.6-2.7-1.4-4.7v-1.5c0,0,0-0.1,0.1-0.1l0.2-0.2c0-0.2,0.2-0.3,0.3-0.4
	c-0.1-2.5,0-8.3,3.6-10.7c0.3-0.3,2.2-2.2,7.4-2.5h0c1.6,0.1,5.5,0.5,7.5,2.5c3.2,2.2,3.8,7,3.6,10.7c0,0,0.1,0,0.1,0.1
	c0.1,0.1,0.2,0.2,0.3,0.3l0.2,0.2c0,0,0.1,0.1,0.1,0.1v1.4c0.2,2-0.3,3.5-1.4,4.7c-0.6,1.7-1.3,3.2-1.9,3.9l0.1,2.4l0.3,0.3
	c0.5,0.4,0.9,0.8,1.4,1.1c0,0,0,0,0,0c0,0,0.1,0,0.1,0c0.2-0.1,0.4-0.2,0.6-0.2c0.3-0.1,4.1-0.9,5.9-2.9l0.2-0.3l0.1-2
	c-0.4-0.7-1.1-1.9-1.6-3.4c-0.5-0.4-1.5-1.5-1.3-4.1v-1.1c0,0,0-0.1,0.1-0.1l0.5-0.5c-0.1-1.2,0-3,0.3-4.7c0.5-2.2,1.4-3.8,2.8-4.7
	c0.4-0.4,2.3-2,6.6-2.2h0c4.3,0.1,6.2,1.7,6.7,2.2c3,2,3.3,6.7,3.1,9.4c0.2,0.1,0.3,0.2,0.3,0.4l0.2,0.2c0,0,0.1,0.1,0.1,0.1v1.3
	c0.1,2.6-0.8,3.7-1.3,4.1c-0.5,1.6-1.3,2.8-1.6,3.4l0.2,2l0.2,0.3c1.4,1.6,4.5,2.6,5.9,2.9h0c2.6,0.7,5,2.4,5.3,2.6l0.2,0.1
	c0,0,0,0,0,0c1.8,2.1,3.1,7.8,3.8,16.9c0,0.2,0,0.3,0,0.4c0.1,0,0.1,0.1,0.1,0.2v0.6c0,0.1,0,0.1-0.1,0.2c0,0-0.5,0.4-0.5,0.4
	c-0.2,0.1-2,1.4-5.6,2.6c-4.7,1.6-10.1,2.5-16,2.6h-0.1C645.4,423.7,637.2,428.7,621.3,428.7z M597.9,421.1
	c2.2,1.3,9.9,5.1,23.3,5.1c7.5,0,14.2-1.2,20.5-3.6c0,0,0,0,0,0c1.5-0.6,2.5-1.2,2.9-1.4v-0.4v0c-0.1-1.5-0.4-5.5-1.1-9.3
	c-0.7-3.9-1.5-6.5-2.4-7.6c-0.1,0-0.2-0.1-0.3-0.2c-0.9-0.5-2.9-1.7-4.8-2.2c-0.4,0-2.9-0.7-5.2-1.9l-0.2-0.1
	c-0.6-0.3-1.3-0.7-1.9-1.2c-0.1-0.1-0.2-0.2-0.3-0.3c-0.2-0.2-0.4-0.4-0.6-0.6l-0.8-0.9c0,0,0-0.1,0-0.1l-0.4-4.1c0,0,0-0.1,0-0.1
	l0.4-0.5c0,0,1-1.4,1.7-3.4l0.6-4.7c0.1-0.6,0.2-2.8-0.1-5.1c-0.3-2.4-1.1-4-2.3-4.8c0,0,0,0,0,0l-0.2-0.2c-0.5-0.6-2.4-1.6-5.6-1.7
	c-3.2,0.1-5,1.1-5.5,1.7l-0.2,0.2c0,0,0,0,0,0c-2.7,1.8-2.8,7.5-2.4,9.9l0.6,4.8c0.7,2,1.7,3.4,1.7,3.4l0,0l0.2,0.4c0,0,0,0.1,0,0.1
	l-0.2,4.1c0,0,0,0.1,0,0.1l-0.8,0.9c-2.7,2.9-7.7,4.1-8.2,4.2c-1.9,0.5-4,1.8-4.8,2.3c-0.1,0-0.1,0.1-0.2,0.1
	C599.3,406.5,598.1,416.7,597.9,421.1z M634.3,398.1c1,0.3,1.7,0.5,2.3,0.7c3,0.7,6,2.7,6.1,2.9l0.2,0.2l0,0
	c3.1,3.6,4.1,15.7,4.3,18.6c4.7-0.2,9.1-0.8,13-2c3.2-1,5.2-2,6-2.5c-0.3-4.3-1.2-12.9-3.1-15.1c-0.6-0.4-2.5-1.6-4.4-2.1
	c-0.5-0.1-4.9-1.2-7.2-3.7l-0.7-0.8c0,0,0-0.1,0-0.1l-0.2-3.5c0,0,0-0.1,0-0.1l0.2-0.4c0,0,0,0,0,0c0,0,0.9-1.3,1.5-3.1l0.6-4.1
	c0.2-1.9,0.3-7-2-8.6c0,0,0,0,0,0l-0.2-0.2c-0.4-0.5-2-1.4-4.9-1.5c-2.8,0.1-4.4,1-4.8,1.5l-0.2,0.2c0,0,0,0,0,0
	c-2.4,1.5-2.3,6.7-2,8.6l0.5,4.1c0.6,1.7,1.5,3,1.5,3c0,0,0,0,0,0l0.2,0.4c0,0,0,0.1,0,0.1l-0.2,3.5c0,0,0,0.1,0,0.1l-0.7,0.8
	C638.3,396.5,636.2,397.4,634.3,398.1z"/>
</svg>
