<?xml version="1.0" encoding="utf-8"?>
<!-- Generated by IcoMoon.io -->
<!DOCTYPE svg PUBLIC "-//W3C//DTD SVG 1.1//EN" "http://www.w3.org/Graphics/SVG/1.1/DTD/svg11.dtd">
<svg version="1.1" xmlns="http://www.w3.org/2000/svg" xmlns:xlink="http://www.w3.org/1999/xlink" width="42" height="32" viewBox="0 0 42 32">
<g id="icomoon-ignore">
	<line stroke-width="1" x1="" y1="" x2="" y2="" stroke="#449FDB" opacity=""></line>
</g>
	<path d="M28.847 4.113h13.335v3.914h-13.335zM33.629-0.525h3.914v13.335h-3.914zM26.527 31.22c-0.145 1.015 0 1.015-1.45 1.159-0.87 0.145-6.089 0.145-11.452 0.145-6.089 0-12.465 0-12.9-0.145-1.74-0.435-0.724-3.769 1.594-5.363 1.885-1.159 5.654-3.044 6.668-3.188 1.45-0.289 1.594-1.159 0-3.914-0.289-0.58-0.724-2.464-0.724-4.493 0-3.188 0.58-5.363 3.334-6.524 0.58-0.145 1.159-0.289 1.74-0.289 1.885 0 3.623 1.015 4.349 2.609 1.015 2.029 0.58 7.392-0.58 9.277-1.305 2.175-1.159 2.899 0.289 3.188 0.87 0.289 3.769 1.594 6.524 3.044 1.885 1.014 2.899 2.753 2.61 4.493zM35.514 27.452c0 0.724 0 0.87-1.015 1.015-0.58 0.145-3.188 0.145-6.524 0.145-0.58-1.305-1.594-2.609-3.188-3.334-1.74-1.015-3.623-1.885-5.219-2.609 1.015-0.435 1.885-0.87 2.32-1.015 1.015-0.289 1.159-0.87 0-3.044-0.289-0.58-0.58-2.029-0.724-3.623 0-2.464 0.58-4.204 2.753-5.073 0.435-0.145 0.87-0.145 1.305-0.145 1.45 0 2.753 0.724 3.334 2.029 0.724 1.594 0.435 5.798-0.435 7.392-1.015 1.74-0.87 2.32 0.289 2.464 0.724 0.145 2.899 1.305 5.073 2.464 1.306 0.726 2.175 2.031 2.031 3.335z" fill="#000000"></path>
</svg>
