<?xml version="1.0" encoding="utf-8"?>
<!-- Generator: Adobe Illustrator 18.1.0, SVG Export Plug-In . SVG Version: 6.00 Build 0)  -->
<!DOCTYPE svg PUBLIC "-//W3C//DTD SVG 1.1//EN" "http://www.w3.org/Graphics/SVG/1.1/DTD/svg11.dtd">
<svg version="1.1" id="Ebene_1" xmlns="http://www.w3.org/2000/svg" xmlns:xlink="http://www.w3.org/1999/xlink" x="0px" y="0px"
	 viewBox="155.9 279.2 283.5 283.5" enable-background="new 155.9 279.2 283.5 283.5" xml:space="preserve">
<g>
	<polygon points="439.4,370.8 439.4,379.7 411.1,379.7 411.1,407.9 402.2,407.9 402.2,379.7 374,379.7 374,370.8 402.2,370.8 
		402.2,342.5 411.1,342.5 411.1,370.8 	"/>
	<path d="M240,517.4c-50.5,0-76.8-15.6-81.9-18.7l-1.3-1.3c-0.6-0.3-0.3-1-0.3-1.6V494l-0.6-0.6c1.3-19.4,4.4-53,14-63.2l0.6-0.6
		l0.3-0.3l0,0l1.3-0.6c3.2-1.9,10.5-6.7,18.1-8.3c0,0,0.3-0.3,1.6-0.6c3.5-1,14-4.1,18.7-9.8l0.3-0.6l0.6-6.7
		c-0.3-0.3-0.3-0.6-0.6-1.3c-1.3-2.2-3.5-6-5.1-10.8c-3.8-3.8-5.4-8.9-4.8-15.6v-4.8c0-0.3,0-1,0.3-1.3l0.6-0.6c0.3-0.6,0.6-1,1-1.3
		c-0.3-8.3,0.3-26.3,11.7-34.3c1-1.3,7.6-7.3,24.4-8.3c5.4,0.3,18.1,1.6,24.8,8.3c10.5,7,12.4,22.5,11.7,34.3c0.3,0.3,0.6,0.6,1,1
		l0.3,0.3c0.3,0.3,0.3,1,0.3,1.3v4.4c0,6.3-0.6,11.4-4.4,15.6c-1.9,5.4-4.1,9.8-5.7,12.1l0.3,7l0.6,0.6c1.3,1.3,2.5,2.2,3.5,2.9
		c0.6-0.3,1.6-0.6,2.2-0.6c2.9-0.6,12.7-3.2,17.8-8.6l0.3-0.6l0.3-5.7c-1.3-2.2-3.2-6-4.8-10.5c-1.6-1.6-4.1-5.4-4.1-14v-3.5
		c0-0.6,0-1,0.3-1.3l1.3-1.6c0-3.2-0.3-8.9,1-14.9c1.6-7.3,4.8-12.4,9.2-15.9c1-1,7.3-6.7,21.6-7c13.6,0.3,20,5.1,22.2,7.3
		c9.5,6.3,10.8,21.3,10.5,30.2c0.3,0.3,0.6,0.6,1,1.3v0.3c0.3,0.3,0,1,0,1.3v4.1c0,7.9-1.9,12.1-3.8,13.6c-1.6,4.8-3.5,8.6-4.8,10.5
		l0.6,5.7l0.6,0.6c3.8,4.4,12.7,7.6,17.8,8.6c7.9,2.2,15.9,7.3,17.5,8.6l0.6,0.3l0.3,0.3l0,0h0.3c6,7,9.8,25.1,12.1,54.3l-0.3,1
		c0.3,0.3,0,0.6,0,1v1.9c0,0.6,0,1-0.3,1.3c-1,0.6-1.3,1.3-1.6,1.3l0,0c-1,0.6-7,4.8-18.1,8.6c-14.9,5.1-32.1,7.9-51.1,8.3
		C314.9,502.8,288.9,517.4,240,517.4z M167,491.1c7.3,4.1,31.4,15.6,72.7,15.6c23.8,0,44.8-3.8,64.8-11.4h-0.3
		c3.2-1.3,4.8-2.9,7.9-4.1v-0.3c0-4.8-1-17.1-3.2-29.2c-2.5-14.9-5.1-21-7-23.2c-0.3,0-0.3-0.3-1-0.6c-2.9-1.6-8.9-5.4-14.6-7
		c-1.3,0-9.2-2.2-16.8-6l-0.6-0.3c-2.2-1-4.4-2.2-6.3-4.1c-0.3-0.3-1.3-1.3-1.3-1.3c-0.6-0.6-1.3-1.3-1.9-1.9l-2.5-2.9
		c-0.3-0.3-0.3-0.6-0.3-1.3l-1.3-13c0-0.3,0-0.6,0.3-1l1.3-1.6c0,0,3.2-4.1,5.4-10.5l1.9-14.6c0-1.3,1-8.6-0.3-15.9
		c-1-7.3-3.2-12.1-6.7-14.3l0,0h-0.3l-0.6-0.6c-1.3-1.3-6.7-4.8-17.1-5.1c-9.8,0.3-15.2,3.8-16.5,5.1l-0.6,0.6l-0.3,0.3
		c-7.9,5.1-8.3,22.9-7,30.2l1.9,15.2c1.9,6,5.1,10.2,5.1,10.5l1,1.3c0.3,0.3,0.3,0.6,0.3,1l-0.6,13c0,0.3-0.3,1-0.6,1.3l-2.5,2.9
		c-8.9,9.5-24.8,13.3-27,13.6c-5.4,1.6-12.1,5.4-14.6,7l-1.3-0.6l0.3,0.6l0.3,0.3c0,0,0,0,0,0.3l0,0l0,0
		C171.5,446.7,168,477.4,167,491.1z M288.9,420c9.8,2.2,19.4,8.9,19.7,9.5l0.6,0.6c9.5,11.1,13,46,14,58.4c14.6-0.6,27.9-2.5,40-6.3
		c8.9-2.9,14.9-5.7,18.1-7.3c-1-13.6-3.8-39.7-9.5-46.7c-1.6-1.3-7.6-4.8-13.3-6c-1.9-0.3-15.9-4.1-23.5-12.1l-2.2-2.5l-0.3-1
		l-0.6-11.4c0-0.3,0-1,0.3-1.3l0.6-1l0.3,0.3l0.3-0.3l-0.3-0.3l0,0c0,0,2.5-3.8,4.4-9.5l1.9-12.7c0.6-5.4,1-21.6-6-26.3l0,0H333
		l-0.6-0.6c-1-1-5.7-4.1-14.6-4.4c-8.9,0.3-13.3,3.2-14.3,4.1l-1,1l-0.3,0.3c-7,4.1-6.7,20.6-6,26l1.6,13c1.6,5.1,4.4,8.9,4.4,8.9
		l0,0l0,0l0.6,1.3c0.3,0.3,0.3,0.6,0.3,1l-0.6,11.4c0,0.3,0,0.6-0.3,1l-2.2,2.9c-4.1,4.4-9.5,7-14.6,9.2
		C286.1,419.4,288.9,420,288.9,420z"/>
	<path d="M240,516.2c-50.2,0-76.5-15.6-81.3-18.7l0,0l-1.9-1.3c-0.3,0-0.3-0.3-0.3-0.6v-1.9l0,0v-0.3c1-15.2,4.1-52.1,14-62.5
		l0.6-0.6h0.3c0,0,0.6-0.3,1.3-0.6c3.2-1.9,10.5-6.3,17.8-8.3c0.3,0,0.6-0.3,1.6-0.6c3.8-1.3,14.3-4.1,19.4-10.2l0.6-1l0.6-7.6
		c-0.3-0.3-0.6-1-1-1.6c-1.3-2.5-3.5-6.3-5.1-10.8c-3.5-3.8-5.1-8.6-4.4-14.9v-4.8c0,0,0-0.3,0.3-0.3l0.6-0.6c0-0.6,0.6-1,1-1.3
		c-0.3-7.9,0-26.3,11.4-34c1-1,7-7,23.5-7.9l0,0c5.1,0.3,17.5,1.6,23.8,7.9c10.2,7,12.1,22.2,11.4,34c0,0,0.3,0,0.3,0.3
		c0.3,0.3,0.6,0.6,1,1l0.6,0.6l0.3,0.3v4.4c0.6,6.3-1,11.1-4.4,14.9c-1.9,5.4-4.1,10.2-6,12.4l0.3,7.6l1,1c1.6,1.3,2.9,2.5,4.4,3.5
		l0,0h0.3c0.6-0.3,1.3-0.6,1.9-0.6c1-0.3,13-2.9,18.7-9.2l0.6-1l0.3-6.3c-1.3-2.2-3.5-6-5.1-10.8c-1.6-1.3-4.8-4.8-4.1-13v-3.5
		c0,0,0-0.3,0.3-0.3l1.6-1.6c-0.3-3.8,0-9.5,1-14.9c1.6-7,4.4-12.1,8.9-14.9c1.3-1.3,7.3-6.3,21-7l0,0c13.6,0.3,19.7,5.4,21.3,7
		c9.5,6.3,10.5,21.3,9.8,29.8c0.6,0.3,1,0.6,1,1.3l0.6,0.6l0.3,0.3v4.1c0.3,8.3-2.5,11.7-4.1,13c-1.6,5.1-4.1,8.9-5.1,10.8l0.6,6.3
		l0.6,1c4.4,5.1,14.3,8.3,18.7,9.2l0,0c8.3,2.2,15.9,7.6,16.8,8.3l0.6,0.3l0,0c5.7,6.7,9.8,24.8,12.1,53.6c0,0.6,0,1,0,1.3
		c0.3,0,0.3,0.3,0.3,0.6v1.9c0,0.3,0,0.3-0.3,0.6l-1.6,1.3c-0.6,0.3-6.3,4.4-17.8,8.3c-14.9,5.1-32.1,7.9-50.8,8.3H320
		C316.5,500.3,290.5,516.2,240,516.2z M165.7,492c7,4.1,31.4,16.2,74,16.2c23.8,0,45.1-3.8,65.1-11.4l0,0c4.8-1.9,7.9-3.8,9.2-4.4
		v-1.3l0,0c-0.3-4.8-1.3-17.5-3.5-29.5c-2.2-12.4-4.8-20.6-7.6-24.1c-0.3,0-0.6-0.3-1-0.6c-2.9-1.6-9.2-5.4-15.2-7
		c-1.3,0-9.2-2.2-16.5-6l-0.6-0.3c-1.9-1-4.1-2.2-6-3.8c-0.3-0.3-0.6-0.6-1-1c-0.6-0.6-1.3-1.3-1.9-1.9l-2.5-2.9v-0.3l-1.3-13v-0.3
		l1.3-1.6c0,0,3.2-4.4,5.4-10.8l1.9-14.9c0.3-1.9,0.6-8.9-0.3-16.2c-1-7.6-3.5-12.7-7.3-15.2l0,0l-0.6-0.6
		c-1.6-1.9-7.6-5.1-17.8-5.4c-10.2,0.3-15.9,3.5-17.5,5.4l-0.6,0.6l0,0c-8.6,5.7-8.9,23.8-7.6,31.4l1.9,15.2
		c2.2,6.3,5.4,10.8,5.4,10.8l0,0l0.6,1.3v0.3l-0.6,13v0.3l-2.5,2.9c-8.6,9.2-24.4,13-26,13.3c-6,1.6-12.7,5.7-15.2,7.3
		c-0.3,0-0.3,0.3-0.6,0.3C170.2,445.7,166.4,478.1,165.7,492z M281.3,419c3.2,1,5.4,1.6,7.3,2.2c9.5,2.2,19,8.6,19.4,9.2l0.6,0.6
		l0,0c9.8,11.4,13,49.8,13.6,59c14.9-0.6,28.9-2.5,41.3-6.3c10.2-3.2,16.5-6.3,19-7.9c-1-13.6-3.8-40.9-9.8-47.9
		c-1.9-1.3-7.9-5.1-14-6.7c-1.6-0.3-15.6-3.8-22.9-11.7l-2.2-2.5v-0.3l-0.6-11.1v-0.3l0.6-1.3l0,0c0,0,2.9-4.1,4.8-9.8l1.9-13
		c0.6-6,1-22.2-6.3-27.3l0,0l-0.6-0.6c-1.3-1.6-6.3-4.4-15.6-4.8c-8.9,0.3-14,3.2-15.2,4.8l-0.6,0.6l0,0c-7.6,4.8-7.3,21.3-6.3,27.3
		l1.6,13c1.9,5.4,4.8,9.5,4.8,9.5l0,0l0.6,1.3v0.3l-0.6,11.1v0.3l-2.2,2.5C294,414,287.3,416.8,281.3,419z"/>
</g>
</svg>
