<?xml version="1.0" encoding="utf-8"?>
<!-- Generator: Adobe Illustrator 18.1.0, SVG Export Plug-In . SVG Version: 6.00 Build 0)  -->
<!DOCTYPE svg PUBLIC "-//W3C//DTD SVG 1.1//EN" "http://www.w3.org/Graphics/SVG/1.1/DTD/svg11.dtd">
<svg version="1.1" id="Ebene_1" xmlns="http://www.w3.org/2000/svg" xmlns:xlink="http://www.w3.org/1999/xlink" x="0px" y="0px"
	 viewBox="155.9 279.2 283.5 283.5" enable-background="new 155.9 279.2 283.5 283.5" xml:space="preserve">
<path d="M238.9,557.7c-20.5,0-39.7-8.7-57-26c-17.8-17.8-26.4-36.9-26-57.9c0.5-25.1,14.1-46.9,26-57.9l131.7-131.7l11.4,10.5
	l-0.5,0.5L193.3,426.4c-1.8,1.4-5.9,5.9-10,12.3c-3.6,5.9-8.7,15-10.5,26.4c-3.2,19.6,3.6,38.3,20.5,55.2c14.1,14.1,29.2,21,45.6,21
	c25.5,0,44.7-17.3,48.3-21l122.2-123.5c0.5-0.5,7.3-7.3,11.4-18.7l0,0l0,0l0,0c4.6-15.5,1.4-27.3-11.9-40.1
	c-8.7-8.7-18.2-12.8-28.3-12.8c-14.6,0-25.5,8.7-30.1,11.9l0,0l-0.5,0.5l0,0l0,0l0,0L235.7,451.9c-2.7,2.7-10.5,12.3-0.5,24.6l0,0
	l0,0l0,0c3.6,3.6,7.3,5.5,11.9,5.5c4.1,0,8.2-1.8,11.9-5.5l79.3-79.3l11.4,11.9l-79.8,78.4c-6.4,6.4-15,10-23.7,10
	c-8.2,0-16.4-3.2-23.2-10c-6.8-6.4-10-13.7-10.5-21.4c0-10.9,5.5-20.1,10.5-25.1l116.7-114c3.2-3.2,11.4-10.5,25.1-15
	c5.5-1.8,10.9-2.7,16.4-2.7c15,0,28.7,5.9,40.1,17.3c8.2,8.2,13.7,17.3,16.4,26.4c2.7,9.6,2.3,19.6-1.4,30.1l0,0
	c-5,14.6-13.2,24.6-14.6,26L299.5,531.3C286.7,544,264.4,557.7,238.9,557.7z"/>
</svg>
