<?xml version="1.0" encoding="utf-8"?>
<!-- Generator: Adobe Illustrator 18.1.0, SVG Export Plug-In . SVG Version: 6.00 Build 0)  -->
<!DOCTYPE svg PUBLIC "-//W3C//DTD SVG 1.1//EN" "http://www.w3.org/Graphics/SVG/1.1/DTD/svg11.dtd">
<svg version="1.1" id="Ebene_1" xmlns="http://www.w3.org/2000/svg" xmlns:xlink="http://www.w3.org/1999/xlink" x="0px" y="0px"
	 viewBox="608.2 368.6 62.2 60" enable-background="new 608.2 368.6 62.2 60" xml:space="preserve">
<path d="M626.4,428.6c-4.5,0-8.7-1.9-12.5-5.7c-3.9-3.9-5.8-8.1-5.7-12.7c0.1-5.5,3.1-10.3,5.7-12.7l28.9-28.9l2.5,2.3
	c0,0-0.1,0.1-0.1,0.1l-28.8,28.8c-0.4,0.3-1.3,1.3-2.2,2.7c-0.8,1.3-1.9,3.3-2.3,5.8c-0.7,4.3,0.8,8.4,4.5,12.1
	c3.1,3.1,6.4,4.6,10,4.6c5.6,0,9.8-3.8,10.6-4.6l26.8-27.1c0.1-0.1,1.6-1.6,2.5-4.1c0,0,0,0,0,0c0,0,0,0,0,0c0,0,0,0,0,0
	c1-3.4,0.3-6-2.6-8.8c-1.9-1.9-4-2.8-6.2-2.8c-3.2,0-5.6,1.9-6.6,2.6l0,0l-0.1,0.1c0,0,0,0,0,0c0,0,0,0,0,0c0,0,0,0,0,0l-25.1,25.1
	c-0.6,0.6-2.3,2.7-0.1,5.4l0,0c0,0,0,0,0,0c0,0,0,0,0,0c0.8,0.8,1.6,1.2,2.6,1.2c0.9,0,1.8-0.4,2.6-1.2l17.4-17.4l2.5,2.6
	l-17.5,17.2c-1.4,1.4-3.3,2.2-5.2,2.2c-1.8,0-3.6-0.7-5.1-2.2c-1.5-1.4-2.2-3-2.3-4.7c0-2.4,1.2-4.4,2.3-5.5l25.6-25
	c0.7-0.7,2.5-2.3,5.5-3.3c1.2-0.4,2.4-0.6,3.6-0.6c3.3,0,6.3,1.3,8.8,3.8c1.8,1.8,3,3.8,3.6,5.8c0.6,2.1,0.5,4.3-0.3,6.6
	c0,0,0,0,0,0c-1.1,3.2-2.9,5.4-3.2,5.7l-26.8,26.8C636.9,425.6,632,428.6,626.4,428.6z"/>
</svg>
