<?xml version="1.0" encoding="utf-8"?>
<!-- Generated by IcoMoon.io -->
<!DOCTYPE svg PUBLIC "-//W3C//DTD SVG 1.1//EN" "http://www.w3.org/Graphics/SVG/1.1/DTD/svg11.dtd">
<svg version="1.1" xmlns="http://www.w3.org/2000/svg" xmlns:xlink="http://www.w3.org/1999/xlink" width="34" height="32" viewBox="0 0 34 32">
<g id="icomoon-ignore">
	<line stroke-width="1" x1="" y1="" x2="" y2="" stroke="#449FDB" opacity=""></line>
</g>
	<path d="M21.181 5.105c0.152-0.152 1.219-1.219 3.048-1.829 2.438-0.762 5.029-0.152 7.009 1.829s2.743 4.419 1.829 7.010c-0.609 1.829-1.676 3.048-1.829 3.2l-14.019 14.019c-2.438 2.438-8.533 5.638-14.171 0s-2.438-11.733 0-14.019l15.086-15.086c0.61-0.61 1.524-0.61 1.981 0 0.61 0.61 0.61 1.524 0 1.981l-15.086 15.086c-0.305 0.152-5.029 5.029 0 10.057 4.876 4.876 9.6 0.457 10.057 0l14.019-14.171c0 0 0.762-0.762 1.219-1.981 0.457-1.524 0.152-2.743-1.219-4.114-2.743-2.743-5.486-0.457-6.095 0l-13.105 13.105c-0.457 0.457-0.762 1.219 0 2.133 0.762 0.762 1.524 0.457 1.981 0l9.143-9.143c0.61-0.457 1.524-0.457 1.981 0 0.61 0.61 0.61 1.524 0 2.133l-9.143 8.991c-1.219 1.219-3.809 2.133-6.095 0s-1.219-4.876 0-6.095l13.41-13.105z" fill="#000000"></path>
</svg>
