<?xml version="1.0" encoding="utf-8"?>
<!-- Generator: Adobe Illustrator 18.1.0, SVG Export Plug-In . SVG Version: 6.00 Build 0)  -->
<!DOCTYPE svg PUBLIC "-//W3C//DTD SVG 1.1//EN" "http://www.w3.org/Graphics/SVG/1.1/DTD/svg11.dtd">
<svg version="1.1" id="Ebene_1" xmlns="http://www.w3.org/2000/svg" xmlns:xlink="http://www.w3.org/1999/xlink" x="0px" y="0px"
	 viewBox="-404.7 279.2 283.5 283.5" enable-background="new -404.7 279.2 283.5 283.5" xml:space="preserve">
<g id="icomoon-ignore">
	<line fill="none" stroke="#449FDB" x1="-263" y1="420.9" x2="-263" y2="420.9"/>
</g>
<path d="M-225,327.8c1.3-1.3,10.3-10.3,25.8-15.5c20.6-6.4,42.5-1.3,59.2,15.5c16.7,16.7,23.2,37.3,15.5,59.2
	c-5.1,15.5-14.2,25.8-15.5,27l-118.5,118.5c-20.6,20.6-72.1,47.6-119.8,0s-20.6-99.2,0-118.5l127.5-127.5c5.2-5.2,12.9-5.2,16.7,0
	c5.2,5.2,5.2,12.9,0,16.7l-127.5,127.5c-2.6,1.3-42.5,42.5,0,85c41.2,41.2,81.1,3.9,85,0L-158,396c0,0,6.4-6.4,10.3-16.7
	c3.9-12.9,1.3-23.2-10.3-34.8c-23.2-23.2-46.4-3.9-51.5,0l-110.8,110.8c-3.9,3.9-6.4,10.3,0,18c6.4,6.4,12.9,3.9,16.7,0l77.3-77.3
	c5.2-3.9,12.9-3.9,16.7,0c5.2,5.2,5.2,12.9,0,18l-77.3,76c-10.3,10.3-32.2,18-51.5,0c-19.3-18-10.3-41.2,0-51.5L-225,327.8
	L-225,327.8z"/>
</svg>
