<?xml version="1.0" encoding="utf-8"?>
<!-- Generator: Adobe Illustrator 18.0.0, SVG Export Plug-In . SVG Version: 6.00 Build 0)  -->
<!DOCTYPE svg PUBLIC "-//W3C//DTD SVG 1.1//EN" "http://www.w3.org/Graphics/SVG/1.1/DTD/svg11.dtd">
<svg version="1.1" id="Layer_2" xmlns="http://www.w3.org/2000/svg" xmlns:xlink="http://www.w3.org/1999/xlink" x="0px" y="0px"
	 viewBox="-0.1 374.2 595.3 592.5" enable-background="new -0.1 374.2 595.3 592.5" xml:space="preserve">
<g>
	<path fill="#565F73" d="M583,649.5l-84.5-3.6c33.4-48.2,27.3-116-17-160.3c-43.8-43.8-110.6-50.2-158.6-18.2l-3.4-81
		c0-7.2-5.9-12.6-13-12.2c-7.2,0-12.6,5.9-12.2,13l4.3,101.7l0,1l0,0.1c-0.3,0-0.6,0-0.9-0.1c-11.3-1-22.6-0.9-33.7,0.2
		c0,0,0-0.1,0-0.2c-0.1-1.5-0.5-2.9-1.1-4.3l-38.3-76.9c-2.9-5.9-10.5-8.4-16.8-5.5c-5.9,2.9-8.4,10.5-5.5,16.8l36.9,74.1l0.1,0.2
		c-14.2,3.5-28,8.7-41,15.8c-3.4,1.9-6.8,3.9-10.1,6c0.6-0.5,1.2-1,1.8-1.4c2.7-1.7,5.4-3.2,8.1-4.7l-66.8-63.4
		c-5.1-5.1-13.1-4.6-17.7,0.4c-4.6,5.1-4.2,13.1,0.4,17.7l62.7,59.5c-5.7,4.4-11.2,9.2-16.5,14.5L29.9,668.8
		c-69.4,69,3,247.1,5.9,254.7c0.8,1.7,1.6,2.9,2.9,4.2c1.2,1.3,2.5,2.1,4.1,3c7.6,3,185.4,75.3,254.8,5.9l130.4-130.4
		c5.2-5.2,10-10.7,14.4-16.5l62.4,65.8c5,4.7,12.6,5.1,18.1,0.8c5-4.7,5-12.7,0.4-17.7l-66.8-70.5l-0.3-0.3
		c6.8-12.6,12-25.9,15.4-39.6c0.1,0.1,0.2,0.1,0.3,0.2c0.1,0,0.1,0.1,0.2,0.1l76.9,38.3c6.3,3.3,13.9,0.8,16.8-5.5
		c3.3-6.3,0.8-13.9-5.5-16.8l-76.9-38.3c-2.3-1.2-4.9-1.7-7.3-1.4c-0.1,0-0.2,0-0.3,0c1.3-11.5,1.5-23.1,0.5-34.8l-0.4,0
		c0.1-0.1,0.3-0.2,0.4-0.3c0.1-0.1,0.2-0.2,0.3-0.2c0,0.2,0,0.4,0,0.6l105.5,4.5c6.7,0,12.6-5.1,13-12.2
		C595.2,655.8,590.1,649.9,583,649.5z M321.5,519.3c-3.3-0.8-6.6-1.5-9.9-2.2c0,0,0,0-0.1,0c0,0,0,0,0,0c-1,0-2.1-0.2-3.1-0.5
		c-0.3-0.1-0.5-0.1-0.8-0.1c0.2,0,0.5,0.1,0.7,0.1c0,0,0,0,0,0c1.1,0.2,2.2,0.4,3.3,0.6c0,0,0,0,0,0s0,0,0,0h0
		C315,517.7,318.2,518.4,321.5,519.3z M301.4,515.5c-0.5,0-1-0.1-1.6-0.2C300.4,515.4,300.9,515.5,301.4,515.5z M204.5,535.5
		c-0.9,0.8-1.9,1.4-2.9,1.8C202.5,536.7,203.5,536.1,204.5,535.5z M47.9,686.5l130.4-130.3c3.6-3.6,7.3-6.9,11.1-10.1
		c15.2,48.2,42.5,93.9,79.6,133.6L52.6,896.2C32.4,839.5,5.3,729.2,47.9,686.5z M410.7,788.8L280.3,919
		c-42.7,42.7-153.5,15.1-210.1-5l216.5-216.5c39.8,37.4,85.7,64.8,134.3,79.6C417.8,781.1,414.4,785,410.7,788.8z M434.7,755.2
		c-50-14.6-97.8-43.1-137.9-82.8c-0.4-0.4-0.9-0.8-1.3-1.3c-0.5-0.5-1-1-1.5-1.5c-39.6-40.1-68.1-87.4-82.5-137.7
		c59.7-32,137.9-18.5,189.6,33.2C453.2,617.2,466.6,695.5,434.7,755.2z M324,519.9c2.5,0.6,4.9,1.4,7.4,2.2c2,0.6,3.9,1.3,5.9,2
		c-1.9-0.7-3.9-1.3-5.9-2C328.9,521.3,326.5,520.6,324,519.9z M358.5,533.4c15.4,8,30,18.6,43.1,31.7c7,7.1,13.3,14.6,18.9,22.5
		c-5.6-7.9-12-15.4-18.9-22.4C388.8,552.3,374.2,541.6,358.5,533.4z M472.7,644.9c-4.6-21.2-12.8-41.9-24.6-61.1
		c11.9,19.2,20.2,39.9,24.8,61.1L472.7,644.9z M472,638.9c-8.8-34-26.9-66-52.5-91.6c-3.1-3.1-6.2-6-9.5-8.9
		c3.1,2.8,6.1,5.6,9.1,8.6c10.9,10.9,20.3,22.8,28.2,35.3c-7.8-12.4-17.2-24.2-28.1-35c-27.3-27.5-60.6-45.3-95.1-53.2v0
		c8.3,1.9,16.6,4.4,24.7,7.5c-6.8-2.6-13.8-4.9-20.8-6.7c38.3-32.8,97.6-29.4,135.4,8.4C501.1,541.1,504.5,600.3,472,638.9z"/>
</g>
</svg>
