<?xml version="1.0" encoding="utf-8"?>
<!-- Generator: Adobe Illustrator 18.1.0, SVG Export Plug-In . SVG Version: 6.00 Build 0)  -->
<!DOCTYPE svg PUBLIC "-//W3C//DTD SVG 1.1//EN" "http://www.w3.org/Graphics/SVG/1.1/DTD/svg11.dtd">
<svg version="1.1" id="Layer_2" xmlns="http://www.w3.org/2000/svg" xmlns:xlink="http://www.w3.org/1999/xlink" x="0px" y="0px"
	 viewBox="155.9 279.2 283.5 283.5" enable-background="new 155.9 279.2 283.5 283.5" xml:space="preserve">
<g>
	<path fill="#1A171B" d="M434.1,411l-40.1-1.9c16-23.1,13.2-55.1-8-76.4c-20.7-20.7-52.8-24-75.4-9l-1.4-38.7c0-3.3-2.8-6.1-6.1-5.7
		c-3.3,0-6.1,2.8-5.7,6.1l1.9,48.5v0.5l0,0h-0.5c-5.2-0.5-10.8-0.5-16,0l0,0c0-0.9,0-1.4-0.5-1.9L264,296c-1.4-2.8-5.2-4.2-8-2.4
		c-2.8,1.4-4.2,5.2-2.4,8L271,337l0,0c-6.6,1.9-13.2,4.2-19.3,7.5c-1.4,0.9-3.3,1.9-4.7,2.8c0.5,0,0.5-0.5,0.9-0.9
		c1.4-0.9,2.4-1.4,3.8-2.4l-32.1-30.2c-2.4-2.4-6.1-2.4-8.5,0c-2.4,2.4-1.9,6.1,0,8.5l30.2,28.3c-2.8,1.9-5.2,4.2-8,7.1l-63.2,62.7
		c-33,33,1.4,117.8,2.8,121.6c0.5,0.9,0.9,1.4,1.4,1.9c0.5,0.5,1.4,0.9,1.9,1.4c3.8,1.4,88.6,35.8,121.6,2.8l62.2-62.2
		c2.4-2.4,4.7-5.2,7.1-8l29.7,31.1c2.4,2.4,6.1,2.4,8.5,0.5c2.4-2.4,2.4-6.1,0-8.5l-32.1-33.5l0,0c3.3-6.1,5.7-12.3,7.5-18.9l0,0
		l0,0l36.8,18.4c2.8,1.4,6.6,0.5,8-2.4c1.4-2.8,0.5-6.6-2.4-8L386,438.4c-0.9-0.5-2.4-0.9-3.3-0.9l0,0c0.5-5.7,0.9-10.8,0-16.5l0,0
		l0,0l0,0c0,0,0,0,0,0.5l50.4,1.9c3.3,0,6.1-2.4,6.1-5.7C439.8,413.8,437.4,411,434.1,411z M309.2,348.8c-1.4-0.5-3.3-0.9-4.7-0.9
		l0,0l0,0c-0.5,0-0.9,0-1.4,0c0,0,0,0-0.5,0c0,0,0,0,0.5,0l0,0c0.5,0,0.9,0,1.4,0.5l0,0l0,0l0,0
		C305.9,348.3,307.8,348.3,309.2,348.8z M299.8,346.9c0,0-0.5,0-0.9,0C298.8,346.9,299.3,346.9,299.8,346.9z M253.1,356.8
		c-0.5,0.5-0.9,0.9-1.4,0.9C252.2,357.3,253.1,356.8,253.1,356.8z M178.7,428.5l62.2-62.2c1.9-1.9,3.3-3.3,5.2-4.7
		c7.1,23.1,20.3,44.8,38.2,63.6L181,528.4C171.1,501.5,158.4,449.2,178.7,428.5z M351.6,477.5l-62.2,62.2
		c-20.3,20.3-73.1,7.1-100.4-2.4l103.2-103.2c18.9,17.9,41,31.1,64.1,38.2C354.9,473.7,353.5,475.6,351.6,477.5z M363,461.4
		c-24-7.1-46.7-20.7-66-39.6l-0.5-0.5c0,0-0.5-0.5-0.9-0.9C276.7,401.1,263,379,256,354.9c28.3-15.1,66-9,90.5,16
		C371.9,395.5,378.5,433.2,363,461.4z M310.6,349.3c1.4,0.5,2.4,0.9,3.3,0.9c0.9,0.5,1.9,0.5,2.8,0.9c-0.9-0.5-1.9-0.5-2.8-0.9
		C312.5,349.7,311.6,349.7,310.6,349.3z M326.7,355.9c7.5,3.8,14.1,9,20.7,15.1c3.3,3.3,6.1,7.1,9,10.8c-2.8-3.8-5.7-7.5-9-10.8
		C341.3,364.8,334.2,359.6,326.7,355.9z M381.3,408.7c-2.4-9.9-6.1-19.8-11.8-29.2C375.2,388.9,379.5,398.8,381.3,408.7L381.3,408.7
		z M380.9,405.8c-4.2-16-12.7-31.6-25-43.8c-1.4-1.4-2.8-2.8-4.7-4.2c1.4,1.4,2.8,2.8,4.2,4.2c5.2,5.2,9.9,10.8,13.2,17
		c-3.8-6.1-8-11.3-13.2-16.5c-13.2-13.2-28.8-21.7-45.3-25.5l0,0c4.2,0.9,8,1.9,11.8,3.8c-3.3-1.4-6.6-2.4-9.9-3.3
		c18.4-15.6,46.7-14.1,64.6,4.2C395,359.2,396.4,387.4,380.9,405.8z"/>
</g>
</svg>
