<?xml version="1.0" encoding="utf-8"?>
<!-- Generator: Adobe Illustrator 18.1.0, SVG Export Plug-In . SVG Version: 6.00 Build 0)  -->
<!DOCTYPE svg PUBLIC "-//W3C//DTD SVG 1.1//EN" "http://www.w3.org/Graphics/SVG/1.1/DTD/svg11.dtd">
<svg version="1.1" id="Layer_2" xmlns="http://www.w3.org/2000/svg" xmlns:xlink="http://www.w3.org/1999/xlink" x="0px" y="0px"
	 viewBox="155.9 279.2 283.5 283.5" enable-background="new 155.9 279.2 283.5 283.5" xml:space="preserve">
<g>
	<path fill="#565F73" d="M433.6,411l-40.2-1.7c15.9-23,13-55.2-8.1-76.3c-20.9-20.9-52.7-23.9-75.5-8.7l-1.6-38.6
		c0-3.4-2.8-6-6.2-5.8c-3.4,0-6,2.8-5.8,6.2l2,48.4v0.5v0c-0.1,0-0.3,0-0.4,0c-5.4-0.5-10.8-0.4-16,0.1c0,0,0,0,0-0.1
		c0-0.7-0.2-1.4-0.5-2l-18.2-36.6c-1.4-2.8-5-4-8-2.6c-2.8,1.4-4,5-2.6,8l17.6,35.3l0,0.1c-6.8,1.7-13.3,4.1-19.5,7.5
		c-1.6,0.9-3.2,1.9-4.8,2.9c0.3-0.2,0.6-0.5,0.9-0.7c1.3-0.8,2.6-1.5,3.9-2.2l-31.8-30.2c-2.4-2.4-6.2-2.2-8.4,0.2
		c-2.2,2.4-2,6.2,0.2,8.4l29.9,28.3c-2.7,2.1-5.3,4.4-7.9,6.9l-62.1,62c-33.1,32.9,1.4,117.7,2.8,121.3c0.4,0.8,0.8,1.4,1.4,2
		c0.6,0.6,1.2,1,2,1.4c3.6,1.4,88.3,35.9,121.4,2.8l62.1-62.1c2.5-2.5,4.8-5.1,6.9-7.9l29.7,31.3c2.4,2.2,6,2.4,8.6,0.4
		c2.4-2.2,2.4-6,0.2-8.4l-31.8-33.6l-0.1-0.1c3.2-6,5.7-12.3,7.3-18.9c0,0,0.1,0,0.1,0.1c0,0,0,0,0.1,0l36.6,18.2
		c3,1.6,6.6,0.4,8-2.6c1.6-3,0.4-6.6-2.6-8L386.2,438c-1.1-0.6-2.3-0.8-3.5-0.7c0,0-0.1,0-0.1,0c0.6-5.5,0.7-11,0.2-16.6h-0.2
		c0,0,0.1-0.1,0.2-0.1c0,0,0.1-0.1,0.1-0.1c0,0.1,0,0.2,0,0.3l50.2,2.1c3.2,0,6-2.4,6.2-5.8C439.4,414,437,411.2,433.6,411z
		 M309.1,349c-1.6-0.4-3.1-0.7-4.7-1c0,0,0,0,0,0l0,0c-0.5,0-1-0.1-1.5-0.2c-0.1,0-0.2,0-0.4,0c0.1,0,0.2,0,0.3,0l0,0
		c0.5,0.1,1,0.2,1.6,0.3l0,0l0,0l0,0C306,348.2,307.5,348.6,309.1,349z M299.5,347.2c-0.2,0-0.5,0-0.8-0.1
		C299,347.1,299.3,347.2,299.5,347.2z M253.3,356.7c-0.4,0.4-0.9,0.7-1.4,0.9C252.4,357.3,252.9,357,253.3,356.7z M178.8,428.6
		l62.1-62.1c1.7-1.7,3.5-3.3,5.3-4.8c7.2,23,20.2,44.7,37.9,63.6L181,528.5C171.4,501.5,158.5,449,178.8,428.6z M351.5,477.3
		l-62.1,62c-20.3,20.3-73.1,7.2-100.1-2.4l103.1-103.1c19,17.8,40.8,30.9,64,37.9C354.9,473.7,353.3,475.5,351.5,477.3z M363,461.3
		c-23.8-7-46.6-20.5-65.7-39.4c-0.2-0.2-0.4-0.4-0.6-0.6c-0.2-0.2-0.5-0.5-0.7-0.7c-18.9-19.1-32.4-41.6-39.3-65.6
		c28.4-15.2,65.7-8.8,90.3,15.8C371.8,395.6,378.2,432.9,363,461.3z M310.3,349.3c1.2,0.3,2.3,0.7,3.5,1c1,0.3,1.9,0.6,2.8,1
		c-0.9-0.3-1.9-0.6-2.8-1C312.6,349.9,311.4,349.6,310.3,349.3z M326.7,355.7c7.3,3.8,14.3,8.9,20.5,15.1c3.3,3.4,6.3,7,9,10.7
		c-2.7-3.8-5.7-7.3-9-10.7C341.1,364.7,334.2,359.6,326.7,355.7z M381.1,408.8c-2.2-10.1-6.1-20-11.7-29.1
		C375,388.8,379,398.7,381.1,408.8L381.1,408.8z M380.7,405.9c-4.2-16.2-12.8-31.4-25-43.6c-1.5-1.5-3-2.9-4.5-4.2
		c1.5,1.3,2.9,2.7,4.3,4.1c5.2,5.2,9.7,10.9,13.4,16.8c-3.7-5.9-8.2-11.5-13.4-16.7c-13-13.1-28.9-21.6-45.3-25.3l0,0
		c4,0.9,7.9,2.1,11.8,3.6c-3.2-1.2-6.6-2.3-9.9-3.2c18.2-15.6,46.5-14,64.5,4C394.6,359.4,396.2,387.6,380.7,405.9z"/>
</g>
</svg>
