<?xml version="1.0" encoding="utf-8"?>
<!-- Generator: Adobe Illustrator 18.1.0, SVG Export Plug-In . SVG Version: 6.00 Build 0)  -->
<!DOCTYPE svg PUBLIC "-//W3C//DTD SVG 1.1//EN" "http://www.w3.org/Graphics/SVG/1.1/DTD/svg11.dtd">
<svg version="1.1" id="Layer_2" xmlns="http://www.w3.org/2000/svg" xmlns:xlink="http://www.w3.org/1999/xlink" x="0px" y="0px"
	 viewBox="611 366.8 60.2 60" enable-background="new 611 366.8 60.2 60" xml:space="preserve">
<g>
	<path fill="#1A171B" d="M670,394.7l-8.5-0.4c3.4-4.9,2.8-11.7-1.7-16.2c-4.4-4.4-11.2-5.1-16-1.9l-0.3-8.2c0-0.7-0.6-1.3-1.3-1.2
		c-0.7,0-1.3,0.6-1.2,1.3l0.4,10.3v0.1l0,0c0,0-0.1,0-0.1,0c-1.1-0.1-2.3-0.1-3.4,0c0,0,0,0,0,0c0-0.2,0-0.3-0.1-0.4l-3.9-7.8
		c-0.3-0.6-1.1-0.9-1.7-0.5c-0.6,0.3-0.9,1.1-0.5,1.7l3.7,7.5v0c-1.4,0.4-2.8,0.9-4.1,1.6c-0.3,0.2-0.7,0.4-1,0.6
		c0.1,0,0.1-0.1,0.2-0.2c0.3-0.2,0.5-0.3,0.8-0.5l-6.8-6.4c-0.5-0.5-1.3-0.5-1.8,0c-0.5,0.5-0.4,1.3,0,1.8l6.4,6
		c-0.6,0.4-1.1,0.9-1.7,1.5L614,396.7c-7,7,0.3,25,0.6,25.8c0.1,0.2,0.2,0.3,0.3,0.4c0.1,0.1,0.3,0.2,0.4,0.3
		c0.8,0.3,18.8,7.6,25.8,0.6l13.2-13.2c0.5-0.5,1-1.1,1.5-1.7l6.3,6.6c0.5,0.5,1.3,0.5,1.8,0.1c0.5-0.5,0.5-1.3,0-1.8l-6.8-7.1l0,0
		c0.7-1.3,1.2-2.6,1.6-4c0,0,0,0,0,0c0,0,0,0,0,0l7.8,3.9c0.6,0.3,1.4,0.1,1.7-0.5c0.3-0.6,0.1-1.4-0.5-1.7l-7.9-3.9
		c-0.2-0.1-0.5-0.2-0.7-0.2h0c0.1-1.2,0.2-2.3,0-3.5h0c0,0,0,0,0,0l0,0c0,0,0,0,0,0.1l10.7,0.4c0.7,0,1.3-0.5,1.3-1.2
		C671.2,395.3,670.7,394.7,670,394.7z M643.5,381.5c-0.3-0.1-0.7-0.2-1-0.2l0,0l0,0c-0.1,0-0.2,0-0.3,0c0,0,0,0-0.1,0c0,0,0,0,0.1,0
		l0,0c0.1,0,0.2,0,0.3,0.1l0,0l0,0l0,0C642.8,381.4,643.2,381.4,643.5,381.5z M641.5,381.1c0,0-0.1,0-0.2,0
		C641.3,381.1,641.4,381.1,641.5,381.1z M631.6,383.2c-0.1,0.1-0.2,0.2-0.3,0.2C631.4,383.3,631.6,383.2,631.6,383.2z M615.8,398.4
		l13.2-13.2c0.4-0.4,0.7-0.7,1.1-1c1.5,4.9,4.3,9.5,8.1,13.5l-21.9,21.9C614.2,413.9,611.5,402.8,615.8,398.4z M652.5,408.8
		L639.3,422c-4.3,4.3-15.5,1.5-21.3-0.5l21.9-21.9c4,3.8,8.7,6.6,13.6,8.1C653.2,408,652.9,408.4,652.5,408.8z M654.9,405.4
		c-5.1-1.5-9.9-4.4-14-8.4c0,0-0.1-0.1-0.1-0.1c0,0-0.1-0.1-0.2-0.2c-4-4.1-6.9-8.8-8.4-13.9c6-3.2,14-1.9,19.2,3.4
		C656.8,391.4,658.2,399.4,654.9,405.4z M643.8,381.6c0.3,0.1,0.5,0.2,0.7,0.2c0.2,0.1,0.4,0.1,0.6,0.2c-0.2-0.1-0.4-0.1-0.6-0.2
		C644.2,381.7,644,381.7,643.8,381.6z M647.2,383c1.6,0.8,3,1.9,4.4,3.2c0.7,0.7,1.3,1.5,1.9,2.3c-0.6-0.8-1.2-1.6-1.9-2.3
		C650.3,384.9,648.8,383.8,647.2,383z M658.8,394.2c-0.5-2.1-1.3-4.2-2.5-6.2C657.5,390,658.4,392.1,658.8,394.2L658.8,394.2z
		 M658.7,393.6c-0.9-3.4-2.7-6.7-5.3-9.3c-0.3-0.3-0.6-0.6-1-0.9c0.3,0.3,0.6,0.6,0.9,0.9c1.1,1.1,2.1,2.3,2.8,3.6
		c-0.8-1.3-1.7-2.4-2.8-3.5c-2.8-2.8-6.1-4.6-9.6-5.4l0,0c0.9,0.2,1.7,0.4,2.5,0.8c-0.7-0.3-1.4-0.5-2.1-0.7c3.9-3.3,9.9-3,13.7,0.9
		C661.7,383.7,662,389.7,658.7,393.6z"/>
</g>
</svg>
