<?xml version="1.0" encoding="utf-8"?>
<!-- Generator: Adobe Illustrator 18.1.0, SVG Export Plug-In . SVG Version: 6.00 Build 0)  -->
<!DOCTYPE svg PUBLIC "-//W3C//DTD SVG 1.1//EN" "http://www.w3.org/Graphics/SVG/1.1/DTD/svg11.dtd">
<svg version="1.1" id="Isolationsmodus" xmlns="http://www.w3.org/2000/svg" xmlns:xlink="http://www.w3.org/1999/xlink" x="0px"
	 y="0px" viewBox="155.9 279.2 283.5 283.5" enable-background="new 155.9 279.2 283.5 283.5" xml:space="preserve">
<g>
	<g>
		<g>
			<g>
				<path fill="#79C9EC" d="M356.7,510c0-0.9,0-2.3-0.5-3.6c-0.9-14.5-5-59.5-16.4-72.7l-0.9-0.9c-0.5-0.5-11.8-8.2-23.2-10.9
					c-1.8-0.5-5-1.4-9.1-2.7c-3.6-1.4-7.3-3.2-10.9-5.5c-2.3-1.4-4.5-3.2-6.4-5l-1.4-1.4l-0.5-10c1.8-2.3,5-8.2,7.3-15.4
					c2.3-2.3,6.4-7.3,5.5-17.7v-5.5l-0.9-0.9c0-0.5-0.9-0.9-1.4-1.4c0.5-10.9,0-32.3-13.6-41.3c-2.3-2.3-10-8.6-28.6-9.5
					c-18.2,0.9-26.3,7.3-28.2,9.5c-13.2,9.1-14.1,30.9-13.6,41.3c-0.9,0.5-1.4,0.9-1.4,1.4l-0.9,0.9v5.9
					c-0.9,10.4,3.2,15.4,5.5,17.7c2.3,7.3,5.9,12.7,7.3,15.4l-0.9,9.5l-0.9,1.4c-7.7,9.1-25.4,12.7-25.9,13.2
					c-11.4,2.7-22.7,10.9-23.2,10.9l-0.9,0.9c-13.2,14.1-16.4,70-16.8,76.3v2.3l2.3,1.4c1.4,0.9,33.2,22.7,98.6,22.7
					c63.1,0,94.9-20.4,98.1-22.7l0,0l2.3-1.4L356.7,510z M256.3,527.7c-53.1,0-83.1-15.4-90.9-20c0.9-17.7,5.5-57.2,13.6-67.7
					c2.3-1.4,11.4-7.3,19.5-9.5c0.9,0,20.9-4.5,31.3-15.9l3.2-3.6l0.9-15.9l-0.9-1.4c0,0-4.1-5.5-6.8-13.6l-2.3-18.6
					c-1.4-8.6-1.8-31.8,9.5-39.1l0.9-0.9c0,0,5.9-6.4,21.8-6.8c16.4,0.5,22.3,6.8,22.3,6.8l0.9,0.9c10.9,7.3,10.4,30.4,9.5,39.1
					l-2.3,18.2c-2.7,8.2-6.8,13.6-6.8,13.6l-1.4,1.8l1.4,15.9l3.2,3.6c0.9,1.4,2.3,2.3,3.6,3.6c2.3,2.3,5,3.6,7.7,5
					c9.5,5,19.1,7.3,20,7.3c8.6,2.3,17.7,8.2,20,9.5c8.2,10,12.3,47.7,13.6,65.9c0,0.5,0,0.9,0,1.8c-2.3,1.4-6.4,3.6-11.8,5.9
					C320.8,519.5,294.5,527.7,256.3,527.7z"/>
			</g>
		</g>
	</g>
	<g>
		<g>
			<g>
				<path fill="#79C9EC" d="M439.4,490.4c-0.5-5.5-3.2-54.1-14.5-67.2l-0.9-0.5c-0.5-0.5-10.4-7.3-20.4-10
					c-4.5-0.9-17.3-4.5-23.2-11.4l-0.9-1.4l-0.9-8.2c1.4-2.3,4.5-7.3,6.4-13.6c2.3-1.8,5.5-6.4,5-15.4v-5l-0.9-0.9
					c0-0.5-0.5-0.9-1.4-1.4c0.5-9.5,0-28.6-11.8-36.3c-1.8-1.8-9.1-7.7-25.4-8.2c-15.9,0.5-23.2,6.4-25,8.2
					c-11.8,8.2-12.3,27.3-11.8,36.3c-0.5,0.5-0.9,0.9-1.4,1.4l-0.9,0.9v4.5c-0.5,9.1,2.7,13.6,5,15.4c2.3,6.4,5,11.4,6.4,13.6
					l-0.5,8.2l-0.9,1.4c-7.3,8.2-23.2,11.4-23.2,11.4c-0.9,0-1.8,0.5-2.7,0.9c-3.6,0.9-6.8,2.7-9.5,4.1c2.3,2.3,5,3.6,7.7,5
					c2.3-0.9,4.5-1.8,6.4-2.3c0.5,0,2.7-0.5,6.4-1.8c6.4-2.3,15.4-5.9,21.4-12.3l2.7-3.2l0.9-13.6l-0.9-1.4c0,0-3.6-5-5.9-11.8
					l-1.8-15.9c-0.9-7.3-1.4-28.2,8.2-34.1l0.9-0.9c0,0,5-5.5,19.1-5.9c14.5,0.5,19.5,5.9,19.5,5.9l0,0l0.9,0.9
					c9.5,6.4,9.1,26.8,8.2,34.1l-2.3,15.9c-2.3,7.3-5.9,12.3-5.9,12.3l-0.9,1.4l0.9,13.6l2.7,3.2c9.1,10,26.8,14.1,27.3,14.1
					c7.7,1.8,15.4,6.8,17.3,8.2c7.7,9.1,11.4,44.1,12.3,59.5c-6.8,4.1-31.3,16.4-74.5,17.7c-1.8,0-3.6,0-5.5,0c-1.4,0-2.7,0-3.6,0
					c0,0.5,0,0.9,0,1.8c-2.3,1.4-6.4,3.6-11.8,5.9c5,0.5,10,0.5,15.9,0.5c0.9,0,2.3,0,3.2,0c55-0.9,81.8-19.1,83.1-20l1.8-1.4V490.4
					z"/>
			</g>
		</g>
	</g>
</g>
</svg>
