<?xml version="1.0" encoding="utf-8"?>
<!-- Generator: Adobe Illustrator 18.0.0, SVG Export Plug-In . SVG Version: 6.00 Build 0)  -->
<!DOCTYPE svg PUBLIC "-//W3C//DTD SVG 1.1//EN" "http://www.w3.org/Graphics/SVG/1.1/DTD/svg11.dtd">
<svg version="1.1" id="Isolationsmodus" xmlns="http://www.w3.org/2000/svg" xmlns:xlink="http://www.w3.org/1999/xlink" x="0px"
	 y="0px" viewBox="0 0 62.4 50.9" enable-background="new 0 0 62.4 50.9" xml:space="preserve">
<g>
	<g>
		<g>
			<path fill="#79C9EC" d="M44.2,45c0-0.2,0-0.5-0.1-0.8c-0.2-3.2-1.1-13.1-3.6-16L40.3,28c-0.1-0.1-2.6-1.8-5.1-2.4
				c-0.4-0.1-1.1-0.3-2-0.6c-0.8-0.3-1.6-0.7-2.4-1.2c-0.5-0.3-1-0.7-1.4-1.1l-0.3-0.3L29,20.2c0.4-0.5,1.1-1.8,1.6-3.4
				c0.5-0.5,1.4-1.6,1.2-3.9v-1.2l-0.2-0.2c0-0.1-0.2-0.2-0.3-0.3c0.1-2.4,0-7.1-3-9.1c-0.5-0.5-2.2-1.9-6.3-2.1
				c-4,0.2-5.8,1.6-6.2,2.1c-2.9,2-3.1,6.8-3,9.1c-0.2,0.1-0.3,0.2-0.3,0.3l-0.2,0.2V13c-0.2,2.3,0.7,3.4,1.2,3.9
				c0.5,1.6,1.3,2.8,1.6,3.4l-0.2,2.1l-0.2,0.3C13,24.7,9.1,25.5,9,25.6c-2.5,0.6-5,2.4-5.1,2.4l-0.2,0.2C0.8,31.3,0.1,43.6,0,45
				l0,0.5l0.5,0.3c0.3,0.2,7.3,5,21.7,5c13.9,0,20.9-4.5,21.6-5c0,0,0,0,0,0l0.5-0.3L44.2,45z M22.1,48.9c-11.7,0-18.3-3.4-20-4.4
				c0.2-3.9,1.2-12.6,3-14.9c0.5-0.3,2.5-1.6,4.3-2.1c0.2,0,4.6-1,6.9-3.5l0.7-0.8l0.2-3.5L17,19.4c0,0-0.9-1.2-1.5-3L15,12.3
				c-0.3-1.9-0.4-7,2.1-8.6l0.2-0.2c0,0,1.3-1.4,4.8-1.5C25.7,2.1,27,3.5,27,3.5l0.2,0.2c2.4,1.6,2.3,6.7,2.1,8.6l-0.5,4
				c-0.6,1.8-1.5,3-1.5,3L27,19.7l0.3,3.5l0.7,0.8c0.2,0.3,0.5,0.5,0.8,0.8c0.5,0.5,1.1,0.8,1.7,1.1c2.1,1.1,4.2,1.6,4.4,1.6
				c1.9,0.5,3.9,1.8,4.4,2.1c1.8,2.2,2.7,10.5,3,14.5c0,0.1,0,0.2,0,0.4c-0.5,0.3-1.4,0.8-2.6,1.3C36.3,47.1,30.5,48.9,22.1,48.9z"
				/>
		</g>
	</g>
</g>
<g>
	<g>
		<g>
			<path fill="#79C9EC" d="M62.4,40.7c-0.1-1.2-0.7-11.9-3.2-14.8L59,25.8c-0.1-0.1-2.3-1.6-4.5-2.2c-1-0.2-3.8-1-5.1-2.5l-0.2-0.3
				L49,19c0.3-0.5,1-1.6,1.4-3c0.5-0.4,1.2-1.4,1.1-3.4v-1.1l-0.2-0.2c0-0.1-0.1-0.2-0.3-0.3c0.1-2.1,0-6.3-2.6-8
				c-0.4-0.4-2-1.7-5.6-1.8c-3.5,0.1-5.1,1.4-5.5,1.8c-2.6,1.8-2.7,6-2.6,8c-0.1,0.1-0.2,0.2-0.3,0.3l-0.2,0.2v1
				c-0.1,2,0.6,3,1.1,3.4c0.5,1.4,1.1,2.5,1.4,3l-0.1,1.8l-0.2,0.3c-1.6,1.8-5.1,2.5-5.1,2.5c-0.2,0-0.4,0.1-0.6,0.2
				c-0.8,0.2-1.5,0.6-2.1,0.9c0.5,0.5,1.1,0.8,1.7,1.1c0.5-0.2,1-0.4,1.4-0.5c0.1,0,0.6-0.1,1.4-0.4c1.4-0.5,3.4-1.3,4.7-2.7
				l0.6-0.7l0.2-3l-0.2-0.3c0,0-0.8-1.1-1.3-2.6L36.7,12c-0.2-1.6-0.3-6.2,1.8-7.5l0.2-0.2c0,0,1.1-1.2,4.2-1.3
				c3.2,0.1,4.3,1.3,4.3,1.3v0l0.2,0.2c2.1,1.4,2,5.9,1.8,7.5l-0.5,3.5c-0.5,1.6-1.3,2.7-1.3,2.7l-0.2,0.3l0.2,3l0.6,0.7
				c2,2.2,5.9,3.1,6,3.1c1.7,0.4,3.4,1.5,3.8,1.8c1.7,2,2.5,9.7,2.7,13.1c-1.5,0.9-6.9,3.6-16.4,3.9c-0.4,0-0.8,0-1.2,0
				c-0.3,0-0.6,0-0.8,0c0,0.1,0,0.2,0,0.4c-0.5,0.3-1.4,0.8-2.6,1.3c1.1,0.1,2.2,0.1,3.5,0.1c0.2,0,0.5,0,0.7,0
				c12.1-0.2,18-4.2,18.3-4.4l0.4-0.3L62.4,40.7z"/>
		</g>
	</g>
</g>
</svg>
