<?xml version="1.0" encoding="utf-8"?>
<!-- Generator: Adobe Illustrator 18.1.0, SVG Export Plug-In . SVG Version: 6.00 Build 0)  -->
<!DOCTYPE svg PUBLIC "-//W3C//DTD SVG 1.1//EN" "http://www.w3.org/Graphics/SVG/1.1/DTD/svg11.dtd">
<svg version="1.1" id="Isolationsmodus" xmlns="http://www.w3.org/2000/svg" xmlns:xlink="http://www.w3.org/1999/xlink" x="0px"
	 y="0px" viewBox="155.9 279.2 283.5 283.5" enable-background="new 155.9 279.2 283.5 283.5" xml:space="preserve">
<path d="M258.2,535.7c-60,0-91.7-18.5-97.4-22.3l-3-1.5c-0.8-0.4-1.9-1.1-1.9-1.9v-2.3l0.8-0.8c1.1-18.5,5.7-62.7,17.4-75.5l1.1-0.8
	l1.1-0.4c0,0,0.8-0.4,1.1-0.8c3.8-2.3,12.5-7.5,21.5-9.8c0.4,0,0.8-0.4,1.9-0.8c4.2-1.1,16.6-4.9,22.6-11.7l0.4-0.8l0.8-7.9
	c-0.4-0.4-0.4-0.8-0.8-1.5c-1.9-3-4.2-7.5-6-12.8c-4.5-4.5-6.4-10.6-5.7-18.5v-5.7c0-0.8,0.4-1.1,0.8-1.5l0.4-0.4
	c0.4-0.4,0.8-1.1,1.1-1.5c-0.4-9.8,0.8-31.3,14.3-40.8c1.1-1.1,8.7-8.7,28.7-9.8c6.4,0.4,21.5,1.9,29.4,9.8
	c12.5,8.3,14.3,26.8,14,40.8c0.4,0.4,0.8,0.8,1.1,1.1l0.8,0.4c0.4,0.4,0.8,1.1,0.8,1.5v5.3c0,7.5-1.1,13.6-5.7,18.5
	c-2.3,6.4-4.9,11.7-6.8,14.3l0.4,8.3l0.8,0.8c1.5,1.5,3,2.6,4.2,3.4c0.8-0.4,1.9-0.8,2.6-0.8c2.3-0.4,15.1-3.8,21.1-10.2l0.4-0.8
	l0.4-6.8c-1.5-2.6-3.4-7.2-5.3-12.5c-2.3-1.9-4.5-6.8-4.5-16.6v-4.2c0-0.8-0.4-1.1,0-1.5l1.1-1.5c-0.4-4.5-0.4-10.9,1.1-17.7
	c1.9-8.7,5.7-14.7,10.9-18.9c1.1-1.1,8.7-7.9,25.7-8.3c16.2,0.4,23.8,6,26.4,8.7c11.3,7.5,12.8,25.3,12.5,35.9
	c0.4,0.4,0.8,0.8,1.1,1.5v0.4c0.4,0.4,0.4,1.1,0.4,1.5v4.9c0,9.8-3,14.3-4.9,16.2c-1.9,5.7-4.2,10.2-5.7,12.5l0.8,6.8l0.8,0.8
	c4.5,5.3,15.1,9.1,21.1,10.2c10.9,3,20.8,10.2,20.8,10.2l0.8,0.4l0.4,0.4c7.2,8.3,12.1,29.4,14.7,64.5c0,0.4,0,1.1,0,1.1
	c0.4,0.4,0.4,0.8,0.4,1.1v2.3c0,0.8-0.4,1.1-0.8,1.9c-1.1,0.8-1.5,1.1-1.9,1.5l0,0c-1.1,0.8-8.3,5.3-21.5,10.2
	c-17.7,6-38.5,9.4-60.8,9.8C347.7,518,316.3,535.7,258.2,535.7z M171.4,504.4c8.7,4.9,37.4,18.5,86.4,18.5c28.3,0,53.2-4.5,77-13.6
	l0,0c4.9-2.3,9.8-4.2,9.8-4.9V504c0-7.2-1.5-21.1-4.2-34.7c-3-17.7-6-24.9-8.3-27.9c-0.4,0-0.8-0.4-1.1-0.8
	c-3.4-1.9-10.6-6.4-17.4-8.3c-1.5,0-11.3-2.6-20-7.2l-0.8-0.4c-2.3-1.1-4.9-2.6-7.5-4.9c-0.4-0.4-0.8-0.4-0.8-0.8l-0.4-0.4
	c-0.8-0.8-1.9-1.5-2.6-2.6l-3-3.4c-0.4-0.4-0.4-0.8-0.4-1.5l-1.5-15.5c0-0.8,0-1.1,0.4-1.5l1.5-1.9c0,0,3.8-4.9,6.4-12.5l2.3-17.4
	c0.4-2.3,0.8-10.6-0.4-18.9c-1.1-8.7-3.8-14.3-7.9-17l0,0h-0.4l-0.8-0.8c-1.5-1.5-7.9-5.7-20.4-6c-11.7,0.4-18.1,4.5-19.6,6
	l-0.8,0.8l-0.4,0.4c-9.4,6-9.8,27.2-8.3,35.9l2.3,18.1c2.3,7.2,6,12.1,6,12.1l1.1,1.5c0.4,0.4,0.4,0.8,0.4,1.1l-0.8,15.5
	c0,0.4-0.4,1.1-0.8,1.5l-3,3.4c-10.6,11.3-29.4,15.9-32.1,16.2c-6.4,1.9-14.3,6.4-17.4,8.3l-0.4,0.4
	C176.7,450.8,172.5,487.8,171.4,504.4z M316.3,419.8c11.3,2.6,23,10.6,23.8,11.3l0.8,0.8c11.3,13.2,15.5,54.7,16.6,69.8
	c17.4-0.8,33.2-3,47.6-7.5c10.9-3.4,18.1-6.8,21.5-8.7c-1.1-18.5-4.9-47.9-11.3-55.5c-2.3-1.9-9.1-5.7-15.9-7.2
	c-2.3-0.4-18.9-4.9-27.9-14.3l-2.6-3c-0.4-0.4-0.4-0.8-0.4-1.1l-0.8-13.6c0-0.4,0-0.8,0.4-1.5l0.8-1.5l0.4,0.4l0.4-0.4l-0.4-0.4l0,0
	c0,0,3.4-4.5,5.3-11.3l2.3-15.1c0.8-6.4,1.1-25.7-7.2-31l0,0h-0.4l-0.8-0.8c-1.1-1.5-6.8-4.9-17.4-5.3c-10.6,0.4-15.9,3.8-17,4.9
	l-1.1,1.1l-0.4,0.4c-8.3,4.9-7.5,24.5-6.8,31l1.9,15.5c1.9,4.9,4.5,9.4,5.3,10.6l0,0l0,0l0.8,1.5c0.4,0.4,0.4,0.8,0.4,1.1l-0.8,13.2
	c0,0.4,0,0.8-0.4,1.1l-2.6,3.4c-4.9,5.3-11.3,8.3-17.4,10.9C313.3,418.7,316.3,419.8,316.3,419.8z"/>
<path d="M257.8,534c-59.6,0-91-18.5-96.6-22.3l0,0l-2.3-1.5c-0.4,0-0.4-0.4-0.4-0.8v-1.9l0,0v-0.4c1.1-18.1,4.9-62.3,16.6-74.4
	l0.8-0.8h0.4c0,0,0.8-0.4,1.5-0.8c3.8-2.3,12.5-7.5,21.1-9.8c0.4,0,0.8-0.4,1.9-0.8c4.5-1.5,17-4.9,23-12.1l0.8-1.1l0.8-9.1
	c-0.4-0.4-0.8-1.1-1.1-1.9c-1.5-3-4.2-7.5-6-12.8c-4.2-4.5-6-10.2-5.3-17.7v-5.7c0,0,0-0.4,0.4-0.4l0.8-0.8c0-0.8,0.8-1.1,1.1-1.5
	c-0.4-9.4,0.4-31.3,13.6-40.4c1.1-1.1,8.3-8.3,27.9-9.4l0,0c6,0.4,20.8,1.9,28.3,9.4c12.1,8.3,14,26.4,13.6,40.4c0,0,0.4,0,0.4,0.4
	c0.4,0.4,0.8,0.8,1.1,1.1l0.8,0.8l0.4,0.4v5.3c0.8,7.5-1.1,13.2-5.3,17.7c-1.9,6.4-4.9,12.1-7.2,14.7l0.4,9.1l1.1,1.1
	c1.9,1.5,3.4,3,5.3,4.2l0,0h0.4c0.8-0.4,1.5-0.8,2.3-0.8c1.1-0.4,15.5-3.4,22.3-10.9l0.8-1.1l0.4-7.5c-1.5-2.6-4.2-7.2-6-13.2
	c-1.9-1.5-5.7-5.7-4.9-15.5v-4.5c0,0,0-0.4,0.4-0.4l1.9-1.9c-0.4-4.5,0-11.3,1.1-17.7c1.9-8.3,5.3-14.3,10.6-17.7
	c1.5-1.5,8.7-7.5,24.9-8.3l0,0c16.2,0.4,23.4,6.4,25.3,8.3c11.3,7.5,12.5,25.3,11.7,35.5c0.8,0.4,1.1,0.8,1.1,1.5l0.8,0.8l0.4,0.4
	v4.9c0.4,9.8-3,14-4.9,15.5c-1.9,6-4.9,10.6-6,13.2l0.8,7.5l0.8,1.1c5.3,6,17,9.8,22.3,10.9l0,0c9.8,2.6,18.9,9.1,20,9.8l0.8,0.4
	l0,0c6.8,7.9,11.7,29.4,14,63.8c0,0.8,0,1.1,0,1.5c0.4,0,0.4,0.4,0.4,0.8v2.3c0,0.4,0,0.4-0.4,0.4l-1.9,1.5
	c-0.8,0.4-7.5,5.3-21.1,9.8c-17.7,6-38.1,9.4-60.4,9.8h-0.4C349.2,514.7,317.8,534,257.8,534z M169.5,504.9
	c8.3,4.9,37.4,19.3,87.9,19.3c28.3,0,53.6-4.5,77.4-13.6l0,0c5.7-2.3,9.4-4.5,10.9-5.3v-1.5l0,0c-0.4-5.7-1.5-20.8-4.2-35.1
	c-2.6-14.7-5.7-24.5-9.1-28.7c-0.4,0-0.8-0.4-1.1-0.8c-3.4-1.9-10.9-6.4-18.1-8.3c-1.5,0-10.9-2.6-19.6-7.2l-0.8-0.4
	c-2.3-1.1-4.9-2.6-7.2-4.5c-0.4-0.4-0.8-0.8-1.1-1.1c-0.8-0.8-1.5-1.5-2.3-2.3l-3-3.4v-0.4l-1.5-15.5v-0.4l1.5-1.9
	c0,0,3.8-5.3,6.4-12.8l2.3-17.7c0.4-2.3,0.8-10.6-0.4-19.2c-1.1-9.1-4.2-15.1-8.7-18.1l0,0l-0.8-0.8c-1.9-1.9-9.1-6-21.1-6.4
	c-12.1,0.4-18.9,4.2-20.8,6.4l-0.8,0.8l0,0c-10.2,6.8-10.6,27.9-9.1,37.4l2.3,18.1c2.6,7.5,6.4,12.8,6.4,12.8l0,0l0.8,1.5v0.4
	l-0.8,15.5v0.4l-3,3.4c-10.2,10.9-29.1,15.5-31,15.9c-7.2,1.9-15.1,6.8-18.1,8.7c-0.4,0-0.4,0.4-0.8,0.4
	C174.8,450.2,170.3,488.3,169.5,504.9z M306.9,418.5c3.8,1.1,6.4,1.9,8.7,2.6c11.3,2.6,22.6,10.2,23,10.9l0.8,0.8l0,0
	c11.7,13.6,15.5,59.3,16.2,70.2c17.7-0.4,34.3-3,49.1-7.5c12.1-3.8,19.6-7.5,22.6-9.4c-1.1-16.2-4.5-48.7-11.7-57
	c-2.3-1.5-9.4-6-16.6-7.9c-1.9-0.4-18.5-4.5-27.2-14l-2.6-3v-0.4l-0.8-13.2v-0.4l0.8-1.5l0,0c0,0,3.4-4.9,5.7-11.7l2.3-15.5
	c0.8-7.2,1.1-26.8-7.5-32.5l0,0l-0.8-0.8c-1.5-1.9-7.5-5.3-18.5-5.7c-10.6,0.4-16.6,3.8-18.1,5.7l-0.8,0.8l0,0
	c-9.1,5.7-8.7,25.3-7.5,32.5l1.9,15.5c2.3,6.4,5.7,11.3,5.7,11.3l0,0l0.8,1.5v0.4l-0.8,13.2v0.4l-2.6,3
	C322.4,412.5,314.1,415.8,306.9,418.5z"/>
</svg>
