<?xml version="1.0" encoding="utf-8"?>
<!-- Generator: Adobe Illustrator 18.1.0, SVG Export Plug-In . SVG Version: 6.00 Build 0)  -->
<!DOCTYPE svg PUBLIC "-//W3C//DTD SVG 1.1//EN" "http://www.w3.org/Graphics/SVG/1.1/DTD/svg11.dtd">
<svg version="1.1" id="Ebene_1" xmlns="http://www.w3.org/2000/svg" xmlns:xlink="http://www.w3.org/1999/xlink" x="0px" y="0px"
	 viewBox="155.9 279.2 283.5 283.5" enable-background="new 155.9 279.2 283.5 283.5" xml:space="preserve">
<g>
	<g id="icomoon-ignore_1_">
		<line fill="none" stroke="#449FDB" x1="155.9" y1="291.3" x2="155.9" y2="291.3"/>
	</g>
	<path d="M439.4,368.2v30.2h-39.3v-30.2c0-20.7-16.4-37.2-36.3-37.2c-19.9,0-36.3,16.9-36.3,37.2v30.2h-39.3v-30.2
		c0-42.3,34.1-76.9,75.6-76.9S439.4,326.3,439.4,368.2z M155.9,413.6v137h194v-137H155.9z M233.7,534.2l6-49.7l1.3-10.4
		c-5.2-3.9-9.1-10.4-9.1-17.7c0-3,0.9-5.2,1.3-8.2c3-8.2,10.4-13.4,19-13.4c9.1,0,16.4,5.2,19,13.4c0.9,2.2,1.3,5.2,1.3,8.2
		c0,7.3-3.9,14.3-9.1,17.7l1.3,10.4l6,49.7C272.1,534.2,233.7,534.2,233.7,534.2z"/>
</g>
</svg>
