<?xml version="1.0" encoding="utf-8"?>
<!-- Generated by IcoMoon.io -->
<!DOCTYPE svg PUBLIC "-//W3C//DTD SVG 1.1//EN" "http://www.w3.org/Graphics/SVG/1.1/DTD/svg11.dtd">
<svg version="1.1" xmlns="http://www.w3.org/2000/svg" xmlns:xlink="http://www.w3.org/1999/xlink" width="35" height="32" viewBox="0 0 35 32">
<g id="icomoon-ignore">
	<line stroke-width="1" x1="" y1="" x2="" y2="" stroke="#449FDB" opacity=""></line>
</g>
	<path d="M35.017 9.509v3.749h-4.846v-3.749c0-2.56-2.011-4.571-4.48-4.571s-4.48 2.103-4.48 4.571v3.749h-4.846v-3.749c0-5.211 4.206-9.509 9.326-9.509s9.326 4.297 9.326 9.509zM0 15.086v16.914h23.954v-16.914h-23.954zM9.6 29.989l0.731-6.126 0.183-1.28c-0.64-0.457-1.097-1.28-1.097-2.194 0-0.366 0.091-0.64 0.183-1.006 0.366-1.006 1.28-1.646 2.377-1.646s2.011 0.64 2.377 1.646c0.091 0.274 0.183 0.64 0.183 1.006 0 0.914-0.457 1.737-1.097 2.194l0.183 1.28 0.731 6.126h-4.754z" fill="#000000"></path>
</svg>
