<?xml version="1.0" encoding="utf-8"?>
<!-- Generator: Adobe Illustrator 18.1.0, SVG Export Plug-In . SVG Version: 6.00 Build 0)  -->
<!DOCTYPE svg PUBLIC "-//W3C//DTD SVG 1.1//EN" "http://www.w3.org/Graphics/SVG/1.1/DTD/svg11.dtd">
<svg version="1.1" id="Ebene_1" xmlns="http://www.w3.org/2000/svg" xmlns:xlink="http://www.w3.org/1999/xlink" x="0px" y="0px"
	 viewBox="606.5 369 65.6 60" enable-background="new 606.5 369 65.6 60" xml:space="preserve">
<g>
	<g id="icomoon-ignore_1_">
		<line fill="none" stroke="#449FDB" x1="606.5" y1="369" x2="606.5" y2="369"/>
	</g>
	<path d="M672.1,386.8v7h-9.1v-7c0-4.8-3.8-8.6-8.4-8.6c-4.6,0-8.4,3.9-8.4,8.6v7h-9.1v-7c0-9.8,7.9-17.8,17.5-17.8
		S672.1,377.1,672.1,386.8z M606.5,397.3V429h44.9v-31.7H606.5z M624.5,425.2l1.4-11.5l0.3-2.4c-1.2-0.9-2.1-2.4-2.1-4.1
		c0-0.7,0.2-1.2,0.3-1.9c0.7-1.9,2.4-3.1,4.4-3.1c2.1,0,3.8,1.2,4.4,3.1c0.2,0.5,0.3,1.2,0.3,1.9c0,1.7-0.9,3.3-2.1,4.1l0.3,2.4
		l1.4,11.5C633.4,425.2,624.5,425.2,624.5,425.2z"/>
</g>
</svg>
