<?xml version="1.0" encoding="utf-8"?>
<!-- Generator: Adobe Illustrator 18.1.0, SVG Export Plug-In . SVG Version: 6.00 Build 0)  -->
<!DOCTYPE svg PUBLIC "-//W3C//DTD SVG 1.1//EN" "http://www.w3.org/Graphics/SVG/1.1/DTD/svg11.dtd">
<svg version="1.1" id="Ebene_1" xmlns="http://www.w3.org/2000/svg" xmlns:xlink="http://www.w3.org/1999/xlink" x="0px" y="0px"
	 viewBox="155.9 279.2 283.5 283.5" enable-background="new 155.9 279.2 283.5 283.5" xml:space="preserve">
<g id="icomoon-ignore">
	<line fill="none" stroke="#449FDB" x1="297.6" y1="420.9" x2="297.6" y2="420.9"/>
</g>
<path d="M397.3,318.2c7.1,0,13.3,6.2,13.3,13.3v8.9c0,6.2-4.4,11.5-9.7,13.3v187.8c0,11.5-9.7,21.3-23,21.3H218.4
	c-13.3,0-23.9-9.7-23.9-21.3V352.7c-5.3-0.9-9.7-7.1-9.7-12.4v-8.9c0-7.1,6.2-13.3,13.3-13.3h39v-15.9c0-13.3,9.7-23,21.3-23h77.1
	c13.3,0,23,9.7,23,23v15.9H397.3L397.3,318.2z M371.6,537c1.8,0,2.7-1.8,2.7-2.7V352.7H221v180.7c0,1.8,1.8,2.7,2.7,2.7h147.9V537z
	 M251.1,521.9c-7.1,0-13.3-6.2-13.3-13.3V380.2c0-7.1,6.2-11.5,13.3-11.5h2.7c7.1,0,13.3,6.2,13.3,11.5v129.3
	c0,7.1-6.2,13.3-13.3,13.3h-2.7V521.9z M258.2,299.6c-1.8,0-2.7,0-2.7,2.7v15.9h84.2v-15.9c0-1.8-1.8-2.7-2.7-2.7H258.2z
	 M296.3,521.9c-7.1,0-13.3-6.2-13.3-13.3V380.2c0-7.1,6.2-11.5,13.3-11.5h1.8c7.1,0,13.3,6.2,13.3,11.5v129.3
	c0,7.1-6.2,13.3-13.3,13.3h-1.8V521.9z M340.6,521.9c-7.1,0-13.3-6.2-13.3-13.3V380.2c0-7.1,6.2-11.5,13.3-11.5h2.7
	c7.1,0,13.3,6.2,13.3,11.5v129.3c0,7.1-6.2,13.3-13.3,13.3h-2.7V521.9z"/>
</svg>
