<?xml version="1.0" encoding="utf-8"?>
<!-- Generator: Adobe Illustrator 18.1.0, SVG Export Plug-In . SVG Version: 6.00 Build 0)  -->
<!DOCTYPE svg PUBLIC "-//W3C//DTD SVG 1.1//EN" "http://www.w3.org/Graphics/SVG/1.1/DTD/svg11.dtd">
<svg version="1.1" id="Layer_1" xmlns="http://www.w3.org/2000/svg" xmlns:xlink="http://www.w3.org/1999/xlink" x="0px" y="0px"
	 viewBox="155.9 279.2 283.5 283.5" enable-background="new 155.9 279.2 283.5 283.5" xml:space="preserve">
<path fill="#0A0A0A" d="M214.6,562.9c-12.3,0-22.2-9.9-22.2-21.8V344.5c0-0.5-0.5-0.9-0.9-0.9c-3.8,0-8-2.8-8-10.9
	c0-6.6,7.1-7.6,12.3-7.6H234c0.5,0,0.9-0.5,0.9-0.9v-23.6c0-5.7,2.4-11.3,6.6-15.1c4.3-4.3,9.9-6.1,16.1-6.1h79.9
	c6.1,0,11.8,2.4,15.6,6.1c4.3,4.3,6.6,9.5,6.6,15.1v23.6c0,0.5,0.5,0.9,0.9,0.9h38.8c5.7,0,12.3,1.9,12.3,7.6c0,5.2-2.8,9.9-8,9.9
	c-0.5,0-0.9,0.5-0.9,0.9v197.2c0,11.8-9.9,21.8-22.7,21.8L214.6,562.9L214.6,562.9z M212.3,337.9c-3.8,0-7.1,3.3-7.1,7.1v197.7
	c0,2.4,3.8,7.6,6.6,7.6l172.6,1.4c2.4,0,6.1-4.3,6.1-6.6l-0.9-199.1c0-3.8-3.3-7.1-7.1-7.1L212.3,337.9z M253,291
	c-2.4,0-4.3,1.4-4.3,3.8v29.3c0,0.5,0.5,0.9,0.9,0.9h95.5c0.5,0,0.9-0.5,0.9-0.9v-29.3c0-2.4-1.9-3.8-4.3-3.8H253z M346.1,514.2
	c-1.4,0-2.4-0.5-3.3-1.4c-3.3-3.3-2.8-10.9-2.8-10.9V383.2l0,0c0,0-0.5-7.1,2.4-9.9c0.9-0.9,1.9-1.4,3.3-1.4c1.4,0,2.4,0.5,3.3,1.4
	c2.8,3.3,2.8,9.9,2.8,9.9v118.2l0,0c0,0,0.5,7.6-2.8,10.9C348.5,513.8,347.5,514.2,346.1,514.2z M298.3,514.2
	c-1.4,0-2.4-0.5-3.3-1.4c-3.3-3.3-2.8-10.9-2.8-10.9V383.2l0,0c0,0-0.5-7.1,2.4-9.9c0.9-0.9,1.9-1.4,3.3-1.4c1.4,0,2.4,0.5,3.3,1.4
	c2.8,3.3,2.8,9.9,2.8,9.9v118.2l0,0c0,0,0.5,7.6-2.8,10.9C300.7,513.8,299.8,514.2,298.3,514.2z M251.1,514.2
	c-1.4,0-2.4-0.5-3.3-1.4c-3.3-3.3-2.8-10.9-2.8-10.9V383.2l0,0c0,0-0.5-7.1,2.4-9.9c0.9-0.9,1.9-1.4,3.3-1.4s2.4,0.5,3.3,1.4
	c2.8,3.3,2.8,9.9,2.8,9.9v118.2l0,0c0,0,0.5,7.6-2.8,10.9C253.4,513.8,252,514.2,251.1,514.2z"/>
</svg>
