<?xml version="1.0" encoding="utf-8"?>
<!-- Generator: Adobe Illustrator 18.0.0, SVG Export Plug-In . SVG Version: 6.00 Build 0)  -->
<!DOCTYPE svg PUBLIC "-//W3C//DTD SVG 1.1//EN" "http://www.w3.org/Graphics/SVG/1.1/DTD/svg11.dtd">
<svg version="1.1" id="Ebene_1" xmlns="http://www.w3.org/2000/svg" xmlns:xlink="http://www.w3.org/1999/xlink" x="0px" y="0px"
	 viewBox="0 0 25 32" enable-background="new 0 0 25 32" xml:space="preserve">
<g id="icomoon-ignore">
	<line fill="none" stroke="#449FDB" x1="0" y1="0" x2="0" y2="0"/>
</g>
<path d="M23.9,4.4c0.8,0,1.5,0.7,1.5,1.5v1c0,0.7-0.5,1.3-1.1,1.5v21.2c0,1.3-1.1,2.4-2.6,2.4l-18,0C2.2,32,1,30.9,1,29.6V8.3
	C0.4,8.2-0.1,7.5-0.1,6.9v-1c0-0.8,0.7-1.5,1.5-1.5h4.4l0-1.8C5.8,1.1,6.9,0,8.2,0h8.7c1.5,0,2.6,1.1,2.6,2.6v1.8L23.9,4.4L23.9,4.4
	z M21,29.1c0.2,0,0.3-0.2,0.3-0.3V8.3H4v20.4c0,0.2,0.2,0.3,0.3,0.3H21z M7.4,27.4c-0.8,0-1.5-0.7-1.5-1.5V11.4
	c0-0.8,0.7-1.3,1.5-1.3h0.3c0.8,0,1.5,0.7,1.5,1.3V26c0,0.8-0.7,1.5-1.5,1.5H7.4z M8.2,2.3c-0.2,0-0.3,0-0.3,0.3v1.8h9.5V2.6
	c0-0.2-0.2-0.3-0.3-0.3H8.2z M12.5,27.4c-0.8,0-1.5-0.7-1.5-1.5V11.4c0-0.8,0.7-1.3,1.5-1.3h0.2c0.8,0,1.5,0.7,1.5,1.3V26
	c0,0.8-0.7,1.5-1.5,1.5H12.5z M17.5,27.4c-0.8,0-1.5-0.7-1.5-1.5V11.4c0-0.8,0.7-1.3,1.5-1.3h0.3c0.8,0,1.5,0.7,1.5,1.3V26
	c0,0.8-0.7,1.5-1.5,1.5H17.5z"/>
</svg>
