<?xml version="1.0" encoding="utf-8"?>
<!-- Generator: Adobe Illustrator 18.1.0, SVG Export Plug-In . SVG Version: 6.00 Build 0)  -->
<!DOCTYPE svg PUBLIC "-//W3C//DTD SVG 1.1//EN" "http://www.w3.org/Graphics/SVG/1.1/DTD/svg11.dtd">
<svg version="1.1" id="Isolationsmodus" xmlns="http://www.w3.org/2000/svg" xmlns:xlink="http://www.w3.org/1999/xlink" x="0px"
	 y="0px" viewBox="614 368 49 61" enable-background="new 614 368 49 61" xml:space="preserve">
<g id="_x31__1_">
	<path fill="#231F20" d="M662.8,386l-17.8-17.8l-0.3-0.2h-25c-3.1,0-5.6,2.7-5.6,5.8v49.6c0,3.1,2.4,5.6,5.6,5.6h37.5
		c3.2,0,5.9-2.4,5.9-5.6v-37L662.8,386z M646,374.7l10.4,10.3H646V374.7z M659,423.4c0,1.2-0.8,1.6-1.9,1.6h-36.5
		c-1.2,0-2.6-0.5-2.6-1.6v-49.6c0-1.2,1.4-1.8,2.6-1.8H642v13.6c0,1.7,1.6,3.4,3.3,3.4H659V423.4z"/>
</g>
</svg>
