<?xml version="1.0" encoding="utf-8"?>
<!-- Generator: Adobe Illustrator 18.0.0, SVG Export Plug-In . SVG Version: 6.00 Build 0)  -->
<!DOCTYPE svg PUBLIC "-//W3C//DTD SVG 1.1//EN" "http://www.w3.org/Graphics/SVG/1.1/DTD/svg11.dtd">
<svg version="1.1" id="Isolationsmodus" xmlns="http://www.w3.org/2000/svg" xmlns:xlink="http://www.w3.org/1999/xlink" x="0px"
	 y="0px" viewBox="279 397 36 46" enable-background="new 279 397 36 46" xml:space="preserve">
<g id="_x31__1_">
	<path fill="#231F20" d="M311,443h-28c-2.2,0-4-1.8-4-4v-38c0-2.2,1.8-4,4-4h18.4l13.6,13.6V439C315,441.2,313.2,443,311,443z
		 M283,399c-1.1,0-2,0.9-2,2v38c0,1.1,0.9,2,2,2h28c1.1,0,2-0.9,2-2v-27.6L300.6,399H283z"/>
	<path fill="#231F20" d="M314,412h-12c-1.1,0-2-0.9-2-2v-12h2v12h12V412z"/>
</g>
</svg>
