<?xml version="1.0" encoding="utf-8"?>
<!-- Generator: Adobe Illustrator 18.1.0, SVG Export Plug-In . SVG Version: 6.00 Build 0)  -->
<!DOCTYPE svg PUBLIC "-//W3C//DTD SVG 1.1//EN" "http://www.w3.org/Graphics/SVG/1.1/DTD/svg11.dtd">
<svg version="1.1" id="Isolationsmodus" xmlns="http://www.w3.org/2000/svg" xmlns:xlink="http://www.w3.org/1999/xlink" x="0px"
	 y="0px" viewBox="155.9 279.2 283.5 283.5" enable-background="new 155.9 279.2 283.5 283.5" xml:space="preserve">
<g id="_x31__1_">
	<path fill="#231F20" d="M410.1,362.9l-82.7-82.7l-1.4-0.9H209.8c-14.4,0-26,12.5-26,27v230.5c0,14.4,11.2,26,26,26h174.3
		c14.9,0,27.4-11.2,27.4-26V364.7L410.1,362.9z M332,310.3l48.3,47.9H332V310.3z M392.4,536.7c0,5.6-3.7,7.4-8.8,7.4H214
		c-5.6,0-12.1-2.3-12.1-7.4V306.2c0-5.6,6.5-8.4,12.1-8.4h99.4V361c0,7.9,7.4,15.8,15.3,15.8h63.7V536.7z"/>
</g>
</svg>
