<?xml version="1.0" encoding="utf-8"?>
<!-- Generator: Adobe Illustrator 18.1.0, SVG Export Plug-In . SVG Version: 6.00 Build 0)  -->
<!DOCTYPE svg PUBLIC "-//W3C//DTD SVG 1.1//EN" "http://www.w3.org/Graphics/SVG/1.1/DTD/svg11.dtd">
<svg version="1.1" id="Isolationsmodus" xmlns="http://www.w3.org/2000/svg" xmlns:xlink="http://www.w3.org/1999/xlink" x="0px"
	 y="0px" viewBox="155.9 279.2 283.5 283.5" enable-background="new 155.9 279.2 283.5 283.5" xml:space="preserve">
<g id="_x31__1_">
	<path fill="#231F20" d="M383.9,562.7H211.4c-13.6,0-24.6-11.1-24.6-24.6V303.9c0-13.6,11.1-24.6,24.6-24.6h113.4l83.8,83.8v175
		C408.6,551.6,397.5,562.7,383.9,562.7z M211.4,291.5c-6.8,0-12.3,5.5-12.3,12.3V538c0,6.8,5.5,12.3,12.3,12.3h172.5
		c6.8,0,12.3-5.5,12.3-12.3V367.9l-76.4-76.4H211.4z"/>
	<path fill="#231F20" d="M402.4,371.6h-73.9c-6.8,0-12.3-5.5-12.3-12.3v-73.9h12.3v73.9h73.9V371.6z"/>
</g>
</svg>
