<?xml version="1.0" encoding="utf-8"?>
<!-- Generator: Adobe Illustrator 18.1.0, SVG Export Plug-In . SVG Version: 6.00 Build 0)  -->
<!DOCTYPE svg PUBLIC "-//W3C//DTD SVG 1.1//EN" "http://www.w3.org/Graphics/SVG/1.1/DTD/svg11.dtd">
<svg version="1.1" id="Ebene_1" xmlns="http://www.w3.org/2000/svg" xmlns:xlink="http://www.w3.org/1999/xlink" x="0px" y="0px"
	 viewBox="616.3 369 45 60" enable-background="new 616.3 369 45 60" xml:space="preserve">
<g>
	<path fill="#1A171B" d="M656.4,387v7.1h-9V387c0-4.9-3.8-8.6-8.6-8.6c-4.5,0-8.6,3.8-8.6,8.6v7.1h-9V387c0-10.1,7.9-18,17.6-18
		S656.4,376.9,656.4,387z"/>
	<path fill="#1A171B" d="M616.3,397.5V429h45v-31.5H616.3z M634.3,425.2l1.5-11.2l0.4-2.6c-1.1-0.7-2.2-2.2-2.2-4.1
		c0-0.7,0-1.1,0.4-1.9c0.7-1.9,2.6-3,4.5-3s3.8,1.1,4.5,3c0.4,0.7,0.4,1.1,0.4,1.9c0,1.9-0.7,3-2.2,4.1l0.4,2.6l1.5,11.2
		L634.3,425.2L634.3,425.2z"/>
</g>
</svg>
