<?xml version="1.0" encoding="utf-8"?>
<!-- Generator: Adobe Illustrator 18.0.0, SVG Export Plug-In . SVG Version: 6.00 Build 0)  -->
<!DOCTYPE svg PUBLIC "-//W3C//DTD SVG 1.1//EN" "http://www.w3.org/Graphics/SVG/1.1/DTD/svg11.dtd">
<svg version="1.1" id="Ebene_1" xmlns="http://www.w3.org/2000/svg" xmlns:xlink="http://www.w3.org/1999/xlink" x="0px" y="0px"
	 viewBox="0 0 12 16" enable-background="new 0 0 12 16" xml:space="preserve">
<path fill-rule="evenodd" clip-rule="evenodd" fill="#1A171B" d="M10.7,4.8v1.9H8.3V4.8c0-1.3-1-2.3-2.3-2.3c-1.2,0-2.3,1-2.3,2.3
	v1.9H1.3V4.8C1.3,2.1,3.4,0,6,0C8.6,0,10.7,2.1,10.7,4.8z"/>
<line fill="#1A171B" x1="10.7" y1="6.6" x2="8.7" y2="6.6"/>
<path fill-rule="evenodd" clip-rule="evenodd" fill="#1A171B" d="M0,7.6L0,16h12V7.6H0z M4.8,15L5.2,12l0.1-0.7
	c-0.3-0.2-0.6-0.6-0.6-1.1c0-0.2,0-0.3,0.1-0.5C5,9.2,5.5,8.9,6,8.9c0.5,0,1,0.3,1.2,0.8c0.1,0.2,0.1,0.3,0.1,0.5
	c0,0.5-0.2,0.8-0.6,1.1L6.8,12L7.2,15H4.8z"/>
</svg>
