<?xml version="1.0" encoding="utf-8"?>
<!-- Generator: Adobe Illustrator 18.1.0, SVG Export Plug-In . SVG Version: 6.00 Build 0)  -->
<!DOCTYPE svg PUBLIC "-//W3C//DTD SVG 1.1//EN" "http://www.w3.org/Graphics/SVG/1.1/DTD/svg11.dtd">
<svg version="1.1" id="Ebene_1" xmlns="http://www.w3.org/2000/svg" xmlns:xlink="http://www.w3.org/1999/xlink" x="0px" y="0px"
	 viewBox="155.9 279.2 283.5 283.5" enable-background="new 155.9 279.2 283.5 283.5" xml:space="preserve">
<g>
	<path fill="#1A171B" d="M380.8,364.3v33.5h-42.5v-33.5c0-23.1-18-40.6-40.6-40.6c-21.3,0-40.6,18-40.6,40.6v33.5h-42.5v-33.5
		c0-47.7,37.3-85,83.1-85S380.8,316.5,380.8,364.3z"/>
	<path fill="#1A171B" d="M191.3,413.9v148.8h212.6V413.9H191.3z M276.4,544.7l7.1-52.9l1.9-12.3c-5.2-3.3-10.4-10.4-10.4-19.4
		c0-3.3,0-5.2,1.9-9c3.3-9,12.3-14.2,21.3-14.2c9,0,18,5.2,21.3,14.2c1.9,3.3,1.9,5.2,1.9,9c0,9-3.3,14.2-10.4,19.4l1.9,12.3
		l7.1,52.9H276.4L276.4,544.7z"/>
</g>
</svg>
