<?xml version="1.0" encoding="utf-8"?>
<!-- Generator: Adobe Illustrator 18.1.0, SVG Export Plug-In . SVG Version: 6.00 Build 0)  -->
<!DOCTYPE svg PUBLIC "-//W3C//DTD SVG 1.1//EN" "http://www.w3.org/Graphics/SVG/1.1/DTD/svg11.dtd">
<svg version="1.1" id="Ebene_1" xmlns="http://www.w3.org/2000/svg" xmlns:xlink="http://www.w3.org/1999/xlink" x="0px" y="0px"
	 viewBox="155.9 279.2 283.5 283.5" enable-background="new 155.9 279.2 283.5 283.5" xml:space="preserve">
<g>
	<path fill="#1A171B" d="M329.1,369.1v30.8h-38.9v-30.8c0-21-16.2-37.2-37.2-37.2c-19.4,0-37.2,16.2-37.2,37.2v30.8H177v-30.8
		c0-43.7,34-77.7,76.1-77.7S329.1,325.4,329.1,369.1z"/>
	<line fill="none" x1="269.2" y1="398.3" x2="236.9" y2="398.3"/>
	<path fill="#1A171B" d="M155.9,414.5v136h194.3v-136H155.9z M233.6,534.3l6.5-48.6l1.6-11.3c-4.9-3.2-9.7-9.7-9.7-17.8
		c0-3.2,0-4.9,1.6-8.1c3.2-8.1,11.3-13,19.4-13c8.1,0,16.2,4.9,19.4,13c1.6,3.2,1.6,4.9,1.6,8.1c0,8.1-3.2,13-9.7,17.8l1.6,11.3
		l6.5,48.6H233.6z"/>
</g>
</svg>
