<?xml version="1.0" encoding="utf-8"?>
<!-- Generator: Adobe Illustrator 18.1.0, SVG Export Plug-In . SVG Version: 6.00 Build 0)  -->
<!DOCTYPE svg PUBLIC "-//W3C//DTD SVG 1.1//EN" "http://www.w3.org/Graphics/SVG/1.1/DTD/svg11.dtd">
<svg version="1.1" id="Isolationsmodus" xmlns="http://www.w3.org/2000/svg" xmlns:xlink="http://www.w3.org/1999/xlink" x="0px"
	 y="0px" viewBox="155.9 279.2 283.5 283.5" enable-background="new 155.9 279.2 283.5 283.5" xml:space="preserve">
<g id="_x32__6_">
	<path fill="#231F20" d="M415.2,541.6H180c-13.3,0-24.1-10.9-24.1-24.1V378.7c0-13.3,10.9-24.1,24.1-24.1h235.2
		c13.3,0,24.1,10.9,24.1,24.1v138.7C439.4,530.7,428.5,541.6,415.2,541.6z M180,366.7c-6.6,0-12.1,5.4-12.1,12.1v138.7
		c0,6.6,5.4,12.1,12.1,12.1h235.2c6.6,0,12.1-5.4,12.1-12.1V378.7c0-6.6-5.4-12.1-12.1-12.1H180z"/>
	<path fill="#231F20" d="M439.4,378.7h-12.1v-24.1c0-6.6-5.4-12.1-12.1-12.1H289.8c-5.4,0-13.3-3-16.9-7.2L253.6,316
		c-1.8-1.8-6-3.6-8.4-3.6H180c-6.6,0-12.1,5.4-12.1,12.1v54.3h-12.1v-54.3c0-13.3,10.9-24.1,24.1-24.1h65.1c5.4,0,13.3,3,16.9,7.2
		l19.3,19.3c1.8,1.8,6,3.6,8.4,3.6h125.4c13.3,0,24.1,10.9,24.1,24.1V378.7z"/>
</g>
</svg>
