<?xml version="1.0" encoding="utf-8"?>
<!-- Generator: Adobe Illustrator 18.1.0, SVG Export Plug-In . SVG Version: 6.00 Build 0)  -->
<!DOCTYPE svg PUBLIC "-//W3C//DTD SVG 1.1//EN" "http://www.w3.org/Graphics/SVG/1.1/DTD/svg11.dtd">
<svg version="1.1" id="Isolationsmodus" xmlns="http://www.w3.org/2000/svg" xmlns:xlink="http://www.w3.org/1999/xlink" x="0px"
	 y="0px" viewBox="155.9 279.2 283.5 283.5" enable-background="new 155.9 279.2 283.5 283.5" xml:space="preserve">
<g id="_x32__6_">
	<path fill="#231F20" d="M184.2,540.8c-14.2,0-28.3-14.5-28.3-28.7V323.5c0-13.4,13.8-22.4,28.3-22.4h63.7c5.9,0,14.2,1.6,18.1,6.3
		l18.9,18.5c1.2,1.2,4.7,2.8,6.7,2.8h122.6c14.2,0,25.2,10.6,25.2,24.4v20.7l-0.4,0.4l-0.4,0.4l0.8,1.2v136.3
		c0,14.2-10.6,28.7-24.8,28.7H184.2L184.2,540.8z M183.4,367.9c-2.8,0-11.8,3.1-11.8,8.6V512c0,5.5,7.1,13,12.6,13h229.9
		c5.5,0,9-7.5,9-13V375.8c0-2.8-3.5-7.9-9-7.9H183.4z M184.2,316.8c-5.1,0-12.6,1.2-12.6,6.7V353c3.9-1.6,8.6-0.8,12.6-0.8h229.9
		c3.5,0,7.5,0.8,11,2.8c0-5.1-5.5-10.6-11-10.6H291.5c-5.9,0-14.2-3.5-18.1-8.3l-18.9-17.3c-1.2-1.2-4.7-1.6-6.7-1.6h-63.7
		L184.2,316.8L184.2,316.8z"/>
	<polygon fill="#231F20" points="426.7,358.1 426.3,358.5 426.3,358.1 426.3,357.7 425.1,356.5 428.7,354.9 429.1,355.3 
		427.1,357.3 427.1,358.5 	"/>
	<path fill="#231F20" d="M427.1,356.1C427.1,356.5,427.1,356.5,427.1,356.1C427.1,356.5,427.1,356.5,427.1,356.1L427.1,356.1z"/>
	<path fill="#231F20" d="M438.9,373.8v2h-1.2c0,0,0-1.6,0-2.4c0-1.2-0.4-2.4-0.8-3.5C437.7,371.1,438.1,372.2,438.9,373.8z"/>
</g>
</svg>
