<?xml version="1.0" encoding="utf-8"?>
<!-- Generator: Adobe Illustrator 18.0.0, SVG Export Plug-In . SVG Version: 6.00 Build 0)  -->
<!DOCTYPE svg PUBLIC "-//W3C//DTD SVG 1.1//EN" "http://www.w3.org/Graphics/SVG/1.1/DTD/svg11.dtd">
<svg version="1.1" id="Isolationsmodus" xmlns="http://www.w3.org/2000/svg" xmlns:xlink="http://www.w3.org/1999/xlink" x="0px"
	 y="0px" viewBox="273 400 47 40" enable-background="new 273 400 47 40" xml:space="preserve">
<g id="_x32__6_">
	<path fill="#231F20" d="M316,440h-39c-2.2,0-4-1.8-4-4v-23c0-2.2,1.8-4,4-4h39c2.2,0,4,1.8,4,4v23C320,438.2,318.2,440,316,440z
		 M277,411c-1.1,0-2,0.9-2,2v23c0,1.1,0.9,2,2,2h39c1.1,0,2-0.9,2-2v-23c0-1.1-0.9-2-2-2H277z"/>
	<path fill="#231F20" d="M320,413h-2v-4c0-1.1-0.9-2-2-2h-20.8c-0.9,0-2.2-0.5-2.8-1.2l-3.2-3.2c-0.3-0.3-1-0.6-1.4-0.6H277
		c-1.1,0-2,0.9-2,2v9h-2v-9c0-2.2,1.8-4,4-4h10.8c0.9,0,2.2,0.5,2.8,1.2l3.2,3.2c0.3,0.3,1,0.6,1.4,0.6H316c2.2,0,4,1.8,4,4V413z"/>
</g>
</svg>
