<?xml version="1.0" encoding="utf-8"?>
<!-- Generator: Adobe Illustrator 18.1.0, SVG Export Plug-In . SVG Version: 6.00 Build 0)  -->
<!DOCTYPE svg PUBLIC "-//W3C//DTD SVG 1.1//EN" "http://www.w3.org/Graphics/SVG/1.1/DTD/svg11.dtd">
<svg version="1.1" id="Isolationsmodus" xmlns="http://www.w3.org/2000/svg" xmlns:xlink="http://www.w3.org/1999/xlink" x="0px"
	 y="0px" viewBox="603 368 72 61" enable-background="new 603 368 72 61" xml:space="preserve">
<g id="_x32__6_">
	<path fill="#231F20" d="M610.2,429c-3.6,0-7.2-3.7-7.2-7.3v-48c0-3.4,3.5-5.7,7.2-5.7h16.2c1.5,0,3.6,0.4,4.6,1.6l4.8,4.7
		c0.3,0.3,1.2,0.7,1.7,0.7h31.2c3.6,0,6.4,2.7,6.4,6.2v5.3l-0.1,0.1c0,0-0.1,0.1-0.1,0.1l0.2,0.3v34.7c0,3.6-2.7,7.3-6.3,7.3H610.2z
		 M610,385c-0.7,0-3,0.8-3,2.2v34.5c0,1.4,1.8,3.3,3.2,3.3h58.5c1.4,0,2.3-1.9,2.3-3.3V387c0-0.7-0.9-2-2.3-2H610z M610.2,372
		c-1.3,0-3.2,0.3-3.2,1.7v7.5c1-0.4,2.2-0.2,3.2-0.2h58.5c0.9,0,1.9,0.2,2.8,0.7c0-1.3-1.4-2.7-2.8-2.7h-31.2
		c-1.5,0-3.6-0.9-4.6-2.1l-4.8-4.4c-0.3-0.3-1.2-0.4-1.7-0.4H610.2z"/>
	<polygon fill="#231F20" points="671.9,382.5 671.8,382.6 671.8,382.5 671.8,382.4 671.5,382.1 672.4,381.7 672.5,381.8 672,382.3 
		672,382.6 	"/>
	<path fill="#231F20" d="M672,382C672,382.1,672,382.1,672,382C672,382.1,672,382.1,672,382L672,382z"/>
	<path fill="#231F20" d="M675,386.5v0.5h-0.3c0,0,0-0.4,0-0.6c0-0.3-0.1-0.6-0.2-0.9C674.7,385.8,674.8,386.1,675,386.5z"/>
</g>
</svg>
