<?xml version="1.0" encoding="utf-8"?>
<!-- Generator: Adobe Illustrator 18.1.0, SVG Export Plug-In . SVG Version: 6.00 Build 0)  -->
<!DOCTYPE svg PUBLIC "-//W3C//DTD SVG 1.1//EN" "http://www.w3.org/Graphics/SVG/1.1/DTD/svg11.dtd">
<svg version="1.1" id="Isolationsmodus" xmlns="http://www.w3.org/2000/svg" xmlns:xlink="http://www.w3.org/1999/xlink" x="0px"
	 y="0px" viewBox="155.9 279.2 283.5 283.5" enable-background="new 155.9 279.2 283.5 283.5" xml:space="preserve">
<g>
	<path fill="#231F20" d="M425.5,455.9l-37.1-146.5v-0.1c-1.2-5.4-7-10-12.6-10h-157c-4.7,0-11.3,4.5-12.6,10l0,0.1l-36.4,146.5
		l-13.9-3.4L192.3,306c2.7-11.6,14.6-21,26.5-21h157c12.1,0,23.7,9.2,26.5,21l37,146.4L425.5,455.9z"/>
	<g>
		<g>
			<path fill="#231F20" d="M425.8,462.4v74.2c0,4-2.7,6.8-6.8,6.8H176.1c-4,0-6.8-2.7-6.8-6.8v-74.2h68.9
				c6.1,27,30.4,47.2,59.4,47.2c28.3,0,53.3-20.2,59.4-47.2H425.8 M439.4,448.8h-88.4c-3.4,0-6.1,2.7-6.8,6.1
				c-2.7,23-22.3,41.2-46.6,41.2c-24.3,0-43.9-18.2-46.6-41.2c-0.7-3.4-3.4-6.1-6.8-6.1h-88.4v87.8c0,11.5,8.8,20.2,20.2,20.2h242.9
				c11.5,0,20.2-8.8,20.2-20.2L439.4,448.8L439.4,448.8z"/>
		</g>
	</g>
</g>
</svg>
