<?xml version="1.0" encoding="utf-8"?>
<!-- Generator: Adobe Illustrator 18.1.0, SVG Export Plug-In . SVG Version: 6.00 Build 0)  -->
<!DOCTYPE svg PUBLIC "-//W3C//DTD SVG 1.1//EN" "http://www.w3.org/Graphics/SVG/1.1/DTD/svg11.dtd">
<svg version="1.1" id="Isolationsmodus" xmlns="http://www.w3.org/2000/svg" xmlns:xlink="http://www.w3.org/1999/xlink" x="0px"
	 y="0px" viewBox="155.9 279.2 283.5 283.5" enable-background="new 155.9 279.2 283.5 283.5" xml:space="preserve">
<path fill="#231F20" d="M178.3,555.1v0.9c-13.5-0.4-22.4-9-22.4-20.2v-88.4h2.2l35.4-141.3c2.7-11.7,14.8-20.2,26.5-20.2h156.1
	c12.1,0,23.8,8.5,26.5,20.2l35.9,141.3h0.9v1.3l-0.4,86.6c0,11.7-8.5,20.2-20.2,20.2H178.3V555.1z M169.4,535.8c0,4,4,5.8,8.1,5.8
	h241.8c4,0,5.8-2.2,5.8-5.8v-74h-67.7c-2.7,13-10.3,25.1-21.1,33.6c-10.8,8.5-24.2,13.5-37.7,13.5c-13.9,0-27.4-4.9-38.1-13.5
	c-10.8-8.5-18.8-20.6-22-33.6h-69.1L169.4,535.8L169.4,535.8z M245.2,447.9c3.1,0,6.3,2.7,6.7,6.3c2.7,23.3,22.4,40.8,46.2,40.8
	c23.8,0,43.5-17.9,46.2-41.3c0.9-3.6,3.6-6.7,7.2-6.7h72.2l-35.4-138.1c-1.3-5.4-6.7-9.9-12.6-9.9H219.6c-4.5,0-11.2,4.5-12.6,9.9
	l-34.5,139H245.2z"/>
<path fill="#231F20" d="M176.8,555.3c-11.2,0-19.3-8.5-19.3-19.3v-86.6h0.4c0.4,0,0.4,0,0.4-0.4l35.4-142.2
	c2.7-11.2,14.4-20.2,25.6-20.2h156.1c11.7,0,22.9,9,25.6,20.2L436.9,449c0,0.4,0.4,0.4,0.4,0.4h0.4l-0.4,86.6
	c0,11.2-8.5,19.3-19.3,19.3H176.8L176.8,555.3z M170,461.1c-0.4,0-0.9,0.4-0.9,0.9v74c0,4.5,3.1,7.6,7.6,7.6h241.8
	c4.5,0,7.6-3.1,7.6-7.6v-74c0-0.4-0.4-0.9-0.9-0.9h-68.6c-0.4,0-0.4,0-0.9,0.4c-3.1,13-10.3,24.7-21.1,33.2
	c-10.8,8.5-23.8,13.5-37.2,13.5c-13.9,0-26.9-4.5-37.7-13.5c-10.3-8.5-17.9-20.2-20.6-33.2c0-0.4-0.4-0.4-0.9-0.4H170z M250.8,454.8
	c2.7,23.8,22.9,41.7,47.1,41.7s44.4-17.9,47.1-41.7c0.4-3.1,3.1-5.4,6.3-5.4h72.2c0,0,0.4,0,0.4-0.4v-0.4l-35-138.6l0,0l0,0
	c-1.3-5.8-7.2-10.3-13-10.3H219.8c-4.9,0-11.7,4.5-13,10.3l0,0l0,0l-34.5,138.6v0.4l0.4,0.4h72.2C247.6,449,249.9,451.2,250.8,454.8
	z"/>
</svg>
