<?xml version="1.0" encoding="utf-8"?>
<!-- Generator: Adobe Illustrator 18.0.0, SVG Export Plug-In . SVG Version: 6.00 Build 0)  -->
<!DOCTYPE svg PUBLIC "-//W3C//DTD SVG 1.1//EN" "http://www.w3.org/Graphics/SVG/1.1/DTD/svg11.dtd">
<svg version="1.1" id="Isolationsmodus" xmlns="http://www.w3.org/2000/svg" xmlns:xlink="http://www.w3.org/1999/xlink" x="0px"
	 y="0px" viewBox="-0.4 133.7 595.7 570.8" enable-background="new -0.4 133.7 595.7 570.8" xml:space="preserve">
<path fill="#231F20" d="M565.6,492.5l-77.9-307.7l0-0.2c-2.6-11.4-14.7-21-26.4-21H131.6c-9.8,0-23.7,9.4-26.4,21l-0.1,0.2
	L28.7,492.4l-29.1-7.2L76,177.7c5.7-24.3,30.6-44.1,55.6-44.1h329.7c25.4,0,49.8,19.3,55.6,44.1l77.8,307.4L565.6,492.5z"/>
<g>
	<g>
		<path fill="#231F20" d="M566.9,506v155.9c0,8.5-5.7,14.2-14.2,14.2H42.5c-8.5,0-14.2-5.7-14.2-14.2V506h144.6
			c12.8,56.7,63.8,99.2,124.7,99.2c59.5,0,112-42.5,124.7-99.2H566.9 M595.3,477.6H409.6c-7.1,0-12.8,5.7-14.2,12.8
			c-5.7,48.2-46.8,86.5-97.8,86.5s-92.1-38.3-97.8-86.5c-1.4-7.1-7.1-12.8-14.2-12.8H0v184.3c0,24.1,18.4,42.5,42.5,42.5h510.2
			c24.1,0,42.5-18.4,42.5-42.5V477.6L595.3,477.6z"/>
	</g>
</g>
</svg>
