<?xml version="1.0" encoding="utf-8"?>
<!-- Generator: Adobe Illustrator 18.1.0, SVG Export Plug-In . SVG Version: 6.00 Build 0)  -->
<!DOCTYPE svg PUBLIC "-//W3C//DTD SVG 1.1//EN" "http://www.w3.org/Graphics/SVG/1.1/DTD/svg11.dtd">
<svg version="1.1" id="Isolationsmodus" xmlns="http://www.w3.org/2000/svg" xmlns:xlink="http://www.w3.org/1999/xlink" x="0px"
	 y="0px" viewBox="607 369 63.2 60.2" enable-background="new 607 369 63.2 60.2" xml:space="preserve">
<path fill="#231F20" d="M612,429v0.2c-3-0.1-5-2-5-4.5V405h0.5l7.9-31.5c0.6-2.6,3.3-4.5,5.9-4.5h34.8c2.7,0,5.3,1.9,5.9,4.5l8,31.5
	h0.2l0,0.3l-0.1,19.3c0,2.6-1.9,4.5-4.5,4.5H612z M610,424.7c0,0.9,0.9,1.3,1.8,1.3h53.9c0.9,0,1.3-0.5,1.3-1.3v-16.5l-15.1,0
	c-0.6,2.9-2.3,5.6-4.7,7.5c-2.4,1.9-5.4,3-8.4,3c-3.1,0-6.1-1.1-8.5-3c-2.4-1.9-4.2-4.6-4.9-7.5l-15.4,0V424.7z M626.9,405.1
	c0.7,0,1.4,0.6,1.5,1.4c0.6,5.2,5,9.1,10.3,9.1c5.3,0,9.7-4,10.3-9.2c0.2-0.8,0.8-1.5,1.6-1.5h16.1l-7.9-30.8
	c-0.3-1.2-1.5-2.2-2.8-2.2h-34.8c-1,0-2.5,1-2.8,2.2l-7.7,31L626.9,405.1z"/>
<path fill="#231F20" d="M611.8,429c-2.5,0-4.3-1.9-4.3-4.3v-19.3h0.1c0.1,0,0.1,0,0.1-0.1l7.9-31.7c0.6-2.5,3.2-4.5,5.7-4.5h34.8
	c2.6,0,5.1,2,5.7,4.5l8,31.7c0,0.1,0.1,0.1,0.1,0.1h0.1l-0.1,19.3c0,2.5-1.9,4.3-4.3,4.3L611.8,429L611.8,429z M610.3,408
	c-0.1,0-0.2,0.1-0.2,0.2v16.5c0,1,0.7,1.7,1.7,1.7h53.9c1,0,1.7-0.7,1.7-1.7v-16.5c0-0.1-0.1-0.2-0.2-0.2h-15.3
	c-0.1,0-0.1,0-0.2,0.1c-0.7,2.9-2.3,5.5-4.7,7.4c-2.4,1.9-5.3,3-8.3,3c-3.1,0-6-1-8.4-3c-2.3-1.9-4-4.5-4.6-7.4
	c0-0.1-0.1-0.1-0.2-0.1H610.3z M628.3,406.6c0.6,5.3,5.1,9.3,10.5,9.3s9.9-4,10.5-9.3c0.1-0.7,0.7-1.2,1.4-1.2h16.1
	c0,0,0.1,0,0.1-0.1c0,0,0-0.1,0-0.1l-7.8-30.9l0,0c0,0,0,0,0,0c-0.3-1.3-1.6-2.3-2.9-2.3h-34.8c-1.1,0-2.6,1-2.9,2.3c0,0,0,0,0,0
	l0,0l-7.7,30.9c0,0,0,0.1,0,0.1c0,0,0.1,0.1,0.1,0.1h16.1C627.6,405.3,628.1,405.8,628.3,406.6z"/>
</svg>
