<?xml version="1.0" encoding="utf-8"?>
<!-- Generator: Adobe Illustrator 18.1.0, SVG Export Plug-In . SVG Version: 6.00 Build 0)  -->
<!DOCTYPE svg PUBLIC "-//W3C//DTD SVG 1.1//EN" "http://www.w3.org/Graphics/SVG/1.1/DTD/svg11.dtd">
<svg version="1.1" id="Ebene_1" xmlns="http://www.w3.org/2000/svg" xmlns:xlink="http://www.w3.org/1999/xlink" x="0px" y="0px"
	 viewBox="155.9 279.2 283.5 283.5" enable-background="new 155.9 279.2 283.5 283.5" xml:space="preserve">
<rect x="279.7" y="403" width="35.9" height="35.9"/>
<polygon points="333.3,472.2 262,472.2 262,454.3 279.9,454.3 279.9,387.6 262,387.6 262,369.7 315.4,369.7 315.4,454.3 
	333.3,454.3 333.3,472.2 "/>
<path d="M297.6,562.7c-78,0-141.7-63.8-141.7-141.7c0-18.9,3.8-37.8,11.3-55.3c7.1-17,17.5-32.1,30.2-44.9
	c13.2-13.2,28.3-23.1,44.9-30.2c17.5-7.6,35.9-11.3,55.3-11.3c19.4,0,37.8,3.8,55.3,11.3c17,7.1,32.1,17.5,44.9,30.2
	c12.8,12.8,23.1,28.3,30.2,44.9c7.6,17.5,11.3,35.9,11.3,55.3C439.4,499.4,375.6,562.7,297.6,562.7z M297.6,291.5
	c-17.5,0-34.5,3.3-50.6,10.4c-15.6,6.6-29.3,16.1-41.1,27.9s-21.3,25.5-27.9,41.1c-6.6,16.1-10.4,33.1-10.4,50.6
	c0,17.5,3.3,34.5,10.4,50.6c6.6,15.6,16.1,29.3,27.9,41.1c11.8,11.8,25.5,21.3,41.1,27.9c16.1,6.6,33.1,10.4,50.6,10.4
	c71.3,0,129.4-58.1,129.4-129.4c0-17.5-3.3-34.5-10.4-50.6c-6.6-15.6-16.1-29.3-27.9-41.1s-25.5-21.3-41.1-27.9
	C332.1,294.8,315.1,291.5,297.6,291.5z"/>
</svg>
