<?xml version="1.0" encoding="utf-8"?>
<!-- Generator: Adobe Illustrator 18.1.0, SVG Export Plug-In . SVG Version: 6.00 Build 0)  -->
<!DOCTYPE svg PUBLIC "-//W3C//DTD SVG 1.1//EN" "http://www.w3.org/Graphics/SVG/1.1/DTD/svg11.dtd">
<svg version="1.1" id="Ebene_1" xmlns="http://www.w3.org/2000/svg" xmlns:xlink="http://www.w3.org/1999/xlink" x="0px" y="0px"
	 viewBox="-406.7 279.2 283.5 283.5" enable-background="new -406.7 279.2 283.5 283.5" xml:space="preserve">
<g id="icomoon-ignore">
	<line fill="none" stroke="#449FDB" x1="-265" y1="420.9" x2="-265" y2="420.9"/>
</g>
<path d="M-265,279.2c-78.3,0-141.7,63.5-141.7,141.7s63.5,141.7,141.7,141.7s141.7-63.5,141.7-141.7S-186.7,279.2-265,279.2z
	 M-265,536c-63.6,0-115.2-51.6-115.2-115.2s51.6-115.2,115.2-115.2s115.2,51.6,115.2,115.2S-201.4,536-265,536z M-282.7,350h35.4
	v35.4h-35.4V350z M-229.6,491.8h-70.9V474h17.7v-53.1h-17.7v-17.7h53.1V474h17.7V491.8z"/>
</svg>
