<?xml version="1.0" encoding="utf-8"?>
<!-- Generator: Adobe Illustrator 18.1.0, SVG Export Plug-In . SVG Version: 6.00 Build 0)  -->
<!DOCTYPE svg PUBLIC "-//W3C//DTD SVG 1.1//EN" "http://www.w3.org/Graphics/SVG/1.1/DTD/svg11.dtd">
<svg version="1.1" id="Ebene_1" xmlns="http://www.w3.org/2000/svg" xmlns:xlink="http://www.w3.org/1999/xlink" x="0px" y="0px"
	 viewBox="608.8 368.7 60 60" enable-background="new 608.8 368.7 60 60" xml:space="preserve">
<rect x="635.3" y="381.7" width="7.6" height="7.6"/>
<polygon points="646.6,414.8 631.5,414.8 631.5,411 635.3,411 635.3,396.9 631.5,396.9 631.5,393.1 642.8,393.1 642.8,411 
	646.6,411 646.6,414.8 646.6,414.8 "/>
<path d="M638.8,428.7c-16.5,0-30-13.5-30-30c0-4,0.8-8,2.4-11.7c1.5-3.6,3.7-6.8,6.4-9.5c2.8-2.8,6-4.9,9.5-6.4
	c3.7-1.6,7.6-2.4,11.7-2.4c4.1,0,8,0.8,11.7,2.4c3.6,1.5,6.8,3.7,9.5,6.4s4.9,6,6.4,9.5c1.6,3.7,2.4,7.6,2.4,11.7
	C668.8,415.3,655.3,428.7,638.8,428.7z M638.8,371.3c-3.7,0-7.3,0.7-10.7,2.2c-3.3,1.4-6.2,3.4-8.7,5.9s-4.5,5.4-5.9,8.7
	c-1.4,3.4-2.2,7-2.2,10.7c0,3.7,0.7,7.3,2.2,10.7c1.4,3.3,3.4,6.2,5.9,8.7s5.4,4.5,8.7,5.9c3.4,1.4,7,2.2,10.7,2.2
	c15.1,0,27.4-12.3,27.4-27.4c0-3.7-0.7-7.3-2.2-10.7c-1.4-3.3-3.4-6.2-5.9-8.7c-2.5-2.5-5.4-4.5-8.7-5.9
	C646.1,372,642.5,371.3,638.8,371.3z"/>
</svg>
