<?xml version="1.0" encoding="utf-8"?>
<!-- Generator: Adobe Illustrator 18.1.0, SVG Export Plug-In . SVG Version: 6.00 Build 0)  -->
<!DOCTYPE svg PUBLIC "-//W3C//DTD SVG 1.1//EN" "http://www.w3.org/Graphics/SVG/1.1/DTD/svg11.dtd">
<svg version="1.1" id="Isolationsmodus" xmlns="http://www.w3.org/2000/svg" xmlns:xlink="http://www.w3.org/1999/xlink" x="0px"
	 y="0px" viewBox="608.5 368.4 58.5 60.4" enable-background="new 608.5 368.4 58.5 60.4" xml:space="preserve">
<path fill="#1A171B" d="M611.2,428.6c-0.6,0-1.2-0.5-1.3-1.2l-1.4-11.9c0-0.4,0.1-0.8,0.3-1.1c0.3-0.3,0.6-0.4,1-0.4h5.2v-4.5
	c0-0.4-0.1-0.8,0.2-1.1c0.2-0.2,0.4-0.5,0.7-0.5h4.1v-4.3c0-0.4,0.3-1,0.5-1.2c0.2-0.2,0.8-0.6,1.1-0.6h4.5l-0.1-6.1
	c0-0.4,0.1-0.6,0.4-0.8l4.3-4.2c-1.5-6.1,0.4-12.6,4.8-17.1c3.4-3.4,8-5.3,12.9-5.3c4.9,0,9.5,1.9,13,5.3c3.5,3.5,5.4,8.1,5.4,13
	c0,4.9-1.9,9.5-5.4,13c-3.4,3.4-8,5.3-12.9,5.3c-1.4,0-2.7-0.2-3.9-0.4l-0.1,0l-23.8,23.8c-0.2,0.2-0.6,0.4-1,0.4L611.2,428.6z
	 M619.4,426.2l23.9-23.9c0.3-0.3,0.6-0.4,1-0.4c0.1,0,0.2,0,0.4,0c1.5,0.3,2.9,0.5,4.1,0.5c4.2,0,8.1-1.6,11-4.5
	c3-3,4.6-6.9,4.6-11.1s-1.6-8.2-4.6-11.1c-3-3-6.9-4.6-11.1-4.6c-4.2,0-8.2,1.6-11.1,4.6c-4,4-5.5,9.9-3.9,15.4
	c0.1,0.5,0,0.9-0.3,1.3l-4.4,4.4l0.1,7c0,0.4-0.1,0.7-0.4,0.9c-0.2,0.2-0.6,0.3-0.9,0.3H623v4.5c0,0.4,0,0.8-0.3,1
	c-0.2,0.2-0.5,0.4-0.8,0.4H617v4.4c0,0.4,0.1,0.9-0.2,1.1c-0.2,0.2-0.4,0.5-0.7,0.5h-4.5l0.9,7.5l21.6-21.8c0.2-0.2,0.6-0.4,0.9-0.4
	c0.4,0,0.7,0.1,1,0.3c0.5,0.5,0.5,1.3,0,1.9L614.4,426L619.4,426.2z M653.2,388.2c-1.6,0-3.2-0.7-4.3-1.8c-2.4-2.4-2.4-6.2,0-8.6
	c1.2-1.2,2.7-1.8,4.3-1.8c1.6,0,3.2,0.7,4.3,1.8c1.2,1.2,1.8,2.7,1.8,4.3c0,1.6-0.6,3.1-1.8,4.3
	C656.4,387.5,654.8,388.2,653.2,388.2z M653.2,378.6c-0.9,0-1.8,0.3-2.4,1c-1.3,1.3-1.3,3.5,0,4.9c0.6,0.6,1.5,1,2.4,1
	c0.9,0,1.8-0.3,2.4-1c0.6-0.6,1-1.5,1-2.4c0-0.9-0.3-1.8-1-2.4C654.9,379,654.1,378.6,653.2,378.6z"/>
<path fill="#1A171B" d="M619.9,428.6l-8.6-0.2c-0.5,0-1-0.4-1.1-1l-1.4-11.9c0-0.3,0.1-0.6,0.3-0.9c0.2-0.2,0.5-0.3,0.8-0.3h5v-4.8
	c0-0.3,0.1-0.6,0.3-0.8c0.2-0.2,0.5-0.3,0.8-0.3h4.7v-4.7c0-0.3,0.1-0.6,0.3-0.8c0.2-0.2,0.5-0.3,0.8-0.3h4.7l-0.1-6.5
	c0-0.3,0.1-0.6,0.3-0.8l4.4-4.4c-1.5-6.1,0.3-12.6,4.8-17.1c3.3-3.3,7.9-5.3,12.8-5.3s9.4,1.9,12.9,5.3c7.1,7.1,7.1,18.6,0,25.7
	c-3.3,3.3-7.9,5.3-12.8,5.3c-1.4,0-2.8-0.2-4.1-0.4l-23.8,23.8C620.5,428.5,620.2,428.6,619.9,428.6L619.9,428.6z M613.9,426.2
	l5.6,0.2l24-24c0.3-0.3,0.7-0.4,1.1-0.3c1.3,0.3,2.8,0.5,4.2,0.5c4.3,0,8.2-1.6,11.2-4.6c6.2-6.2,6.2-16.4,0-22.6
	c-3-3-7-4.7-11.3-4.7s-8.2,1.6-11.3,4.7c-4,4-5.6,10-4,15.5c0.1,0.4,0,0.8-0.3,1.1l-4.5,4.5l0.1,7.1c0,0.3-0.1,0.6-0.3,0.8
	c-0.2,0.2-0.5,0.3-0.8,0.3H623v4.7c0,0.3-0.1,0.6-0.3,0.8c-0.2,0.2-0.5,0.3-0.8,0.3h-4.7v4.8c0,0.3-0.1,0.6-0.3,0.8
	c-0.2,0.2-0.5,0.3-0.8,0.3h-4.8l1,8.3l21.8-22.1c0.4-0.4,1.1-0.4,1.6,0c0.4,0.4,0.4,1.1,0,1.6L613.9,426.2L613.9,426.2z M653.2,388
	c-1.5,0-3-0.6-4.2-1.7c-2.3-2.3-2.3-6,0-8.3c1.1-1.1,2.5-1.7,4.2-1.7c1.5,0,3,0.6,4.2,1.7c1.1,1.1,1.7,2.5,1.7,4.2s-0.6,3-1.7,4.2
	C656.3,387.3,654.8,388,653.2,388L653.2,388z M653.2,378.4c-1,0-1.9,0.4-2.5,1c-1.4,1.4-1.4,3.7,0,5.2c0.7,0.7,1.6,1,2.5,1
	c1,0,1.9-0.4,2.5-1c0.7-0.7,1-1.6,1-2.5c0-1-0.4-1.9-1-2.5C655.1,378.8,654.2,378.4,653.2,378.4L653.2,378.4z"/>
</svg>
