<?xml version="1.0" encoding="utf-8"?>
<!-- Generator: Adobe Illustrator 18.0.0, SVG Export Plug-In . SVG Version: 6.00 Build 0)  -->
<!DOCTYPE svg PUBLIC "-//W3C//DTD SVG 1.1//EN" "http://www.w3.org/Graphics/SVG/1.1/DTD/svg11.dtd">
<svg version="1.1" id="Isolationsmodus" xmlns="http://www.w3.org/2000/svg" xmlns:xlink="http://www.w3.org/1999/xlink" x="0px"
	 y="0px" viewBox="0 0 57.1 59.1" enable-background="new 0 0 57.1 59.1" xml:space="preserve">
<path d="M11,59.1l-8.5-0.2c-0.5,0-1-0.4-1.1-1L0,46.2c0-0.3,0.1-0.6,0.3-0.9C0.5,45.1,0.8,45,1.1,45L6,45l0-4.7
	c0-0.3,0.1-0.6,0.3-0.8c0.2-0.2,0.5-0.3,0.8-0.3l4.6,0l0-4.6c0-0.3,0.1-0.6,0.3-0.8c0.2-0.2,0.5-0.3,0.8-0.3l4.6,0l-0.1-6.4
	c0-0.3,0.1-0.6,0.3-0.8l4.3-4.3C20.4,16,22.2,9.6,26.6,5.2C29.9,1.9,34.4,0,39.2,0c4.8,0,9.3,1.9,12.7,5.2c7,7,7,18.3,0,25.3
	c-3.3,3.3-7.8,5.2-12.6,5.2c-1.4,0-2.7-0.2-4-0.4L11.8,58.8C11.6,59,11.3,59.1,11,59.1L11,59.1z M5.1,56.7l5.5,0.2l23.6-23.6
	c0.3-0.3,0.7-0.4,1.1-0.3c1.3,0.3,2.7,0.5,4.1,0.5c4.2,0,8.1-1.6,11-4.5c6.1-6.1,6.1-16.1,0-22.2c-3-3-6.9-4.6-11.1-4.6
	c-4.2,0-8.1,1.6-11.1,4.6c-3.9,3.9-5.5,9.8-3.9,15.3c0.1,0.4,0,0.8-0.3,1.1l-4.4,4.4l0.1,7c0,0.3-0.1,0.6-0.3,0.8
	c-0.2,0.2-0.5,0.3-0.8,0.3l-4.6,0l0,4.6c0,0.3-0.1,0.6-0.3,0.8c-0.2,0.2-0.5,0.3-0.8,0.3l-4.6,0l0,4.7c0,0.3-0.1,0.6-0.3,0.8
	c-0.2,0.2-0.5,0.3-0.8,0.3l-4.7,0l1,8.2L25,33.7c0.4-0.4,1.1-0.4,1.6,0c0.4,0.4,0.4,1.1,0,1.6L5.1,56.7L5.1,56.7z M43.8,19.1
	c-1.5,0-3-0.6-4.1-1.7c-2.3-2.3-2.3-5.9,0-8.2c1.1-1.1,2.5-1.7,4.1-1.7c1.5,0,3,0.6,4.1,1.7c1.1,1.1,1.7,2.5,1.7,4.1s-0.6,3-1.7,4.1
	C46.8,18.5,45.3,19.1,43.8,19.1L43.8,19.1z M43.8,9.7c-1,0-1.9,0.4-2.5,1c-1.4,1.4-1.4,3.7,0,5.1c0.7,0.7,1.6,1,2.5,1
	c1,0,1.9-0.4,2.5-1c0.7-0.7,1-1.6,1-2.5c0-1-0.4-1.9-1-2.5C45.6,10.1,44.7,9.7,43.8,9.7L43.8,9.7z"/>
</svg>
