<?xml version="1.0" encoding="utf-8"?>
<!-- Generator: Adobe Illustrator 18.1.0, SVG Export Plug-In . SVG Version: 6.00 Build 0)  -->
<!DOCTYPE svg PUBLIC "-//W3C//DTD SVG 1.1//EN" "http://www.w3.org/Graphics/SVG/1.1/DTD/svg11.dtd">
<svg version="1.1" id="Isolationsmodus" xmlns="http://www.w3.org/2000/svg" xmlns:xlink="http://www.w3.org/1999/xlink" x="0px"
	 y="0px" viewBox="155.9 279.2 283.5 283.5" enable-background="new 155.9 279.2 283.5 283.5" xml:space="preserve">
<path d="M213.3,562.7l-40.8-1c-2.4,0-4.8-1.9-5.3-4.8l-6.7-56.1c0-1.4,0.5-2.9,1.4-4.3c1-1,2.4-1.4,3.8-1.4h23.5v-22.5
	c0-1.4,0.5-2.9,1.4-3.8c1-1,2.4-1.4,3.8-1.4h22.1v-22.1c0-1.4,0.5-2.9,1.4-3.8c1-1,2.4-1.4,3.8-1.4H244l-0.5-30.7
	c0-1.4,0.5-2.9,1.4-3.8l20.6-20.6c-7.2-28.8,1.4-59.5,22.5-80.6c15.8-15.8,37.4-24.9,60.4-24.9s44.6,9.1,60.9,24.9
	c33.6,33.6,33.6,87.8,0,121.3c-15.8,15.8-37.4,24.9-60.4,24.9c-6.7,0-13-1-19.2-1.9L217.2,561.2
	C216.2,562.2,214.8,562.7,213.3,562.7L213.3,562.7z M185,551.2l26.4,1l113.2-113.2c1.4-1.4,3.4-1.9,5.3-1.4c6.2,1.4,13,2.4,19.7,2.4
	c20.1,0,38.9-7.7,52.8-21.6c29.3-29.3,29.3-77.2,0-106.5c-14.4-14.4-33.1-22.1-53.2-22.1c-20.1,0-38.9,7.7-53.2,22.1
	c-18.7,18.7-26.4,47-18.7,73.4c0.5,1.9,0,3.8-1.4,5.3l-21.1,21.1l0.5,33.6c0,1.4-0.5,2.9-1.4,3.8c-1,1-2.4,1.4-3.8,1.4h-22.1v22.1
	c0,1.4-0.5,2.9-1.4,3.8c-1,1-2.4,1.4-3.8,1.4h-22.1v22.5c0,1.4-0.5,2.9-1.4,3.8c-1,1-2.4,1.4-3.8,1.4h-22.5l4.8,39.3l103.1-104.1
	c1.9-1.9,5.3-1.9,7.7,0c1.9,1.9,1.9,5.3,0,7.7L185,551.2L185,551.2z M370.7,370.8c-7.2,0-14.4-2.9-19.7-8.2c-11-11-11-28.3,0-39.3
	c5.3-5.3,12-8.2,19.7-8.2c7.2,0,14.4,2.9,19.7,8.2s8.2,12,8.2,19.7s-2.9,14.4-8.2,19.7C385.1,367.9,377.9,370.8,370.7,370.8
	L370.7,370.8z M370.7,325.7c-4.8,0-9.1,1.9-12,4.8c-6.7,6.7-6.7,17.7,0,24.5c3.4,3.4,7.7,4.8,12,4.8c4.8,0,9.1-1.9,12-4.8
	c3.4-3.4,4.8-7.7,4.8-12c0-4.8-1.9-9.1-4.8-12C379.3,327.7,375,325.7,370.7,325.7L370.7,325.7z"/>
</svg>
