<?xml version="1.0" encoding="utf-8"?>
<!-- Generator: Adobe Illustrator 18.1.0, SVG Export Plug-In . SVG Version: 6.00 Build 0)  -->
<!DOCTYPE svg PUBLIC "-//W3C//DTD SVG 1.1//EN" "http://www.w3.org/Graphics/SVG/1.1/DTD/svg11.dtd">
<svg version="1.1" id="Isolationsmodus" xmlns="http://www.w3.org/2000/svg" xmlns:xlink="http://www.w3.org/1999/xlink" x="0px"
	 y="0px" viewBox="155.9 279.2 283.5 283.5" enable-background="new 155.9 279.2 283.5 283.5" xml:space="preserve">
<path fill="#1A171B" d="M212.5,561.6l-40.3-0.9c-2.3,0-4.7-1.9-5.2-4.7l-6.6-55.7c0-1.4,0.5-2.8,1.4-4.2c0.9-0.9,2.3-1.4,3.7-1.4
	h23.4v-22.5c0-1.4,0.5-2.8,1.4-3.7c0.9-0.9,2.3-1.4,3.7-1.4h22v-22c0-1.4,0.5-2.8,1.4-3.7c0.9-0.9,2.3-1.4,3.7-1.4h22l-0.5-30.4
	c0-1.4,0.5-2.8,1.4-3.7L265,385c-7-28.6,1.4-59,22.5-80.1c15.5-15.5,37-24.8,59.9-24.8s44,8.9,60.4,24.8
	c33.2,33.2,33.2,87.1,0,120.3c-15.5,15.5-37,24.8-59.9,24.8c-6.6,0-13.1-0.9-19.2-1.9L217.2,559.7
	C215.3,561.1,213.9,561.6,212.5,561.6L212.5,561.6z M184.4,550.3l26.2,0.9L323,438.9c1.4-1.4,3.3-1.9,5.2-1.4
	c6.1,1.4,13.1,2.3,19.7,2.3c20.1,0,38.4-7.5,52.4-21.5c29-29,29-76.8,0-105.8c-14-14-32.8-22-52.9-22s-38.4,7.5-52.9,22
	c-18.7,18.7-26.2,46.8-18.7,72.6c0.5,1.9,0,3.7-1.4,5.2l-21.1,21.1l0.5,33.2c0,1.4-0.5,2.8-1.4,3.7c-0.9,0.9-2.3,1.4-3.7,1.4H227v22
	c0,1.4-0.5,2.8-1.4,3.7c-0.9,0.9-2.3,1.4-3.7,1.4h-22v22.5c0,1.4-0.5,2.8-1.4,3.7c-0.9,0.9-2.3,1.4-3.7,1.4h-22.5l4.7,38.9
	L279,439.8c1.9-1.9,5.2-1.9,7.5,0c1.9,1.9,1.9,5.2,0,7.5L184.4,550.3L184.4,550.3z M368.5,371.4c-7,0-14-2.8-19.7-8
	c-10.8-10.8-10.8-28.1,0-38.9c5.2-5.2,11.7-8,19.7-8c7,0,14,2.8,19.7,8c5.2,5.2,8,11.7,8,19.7s-2.8,14-8,19.7
	C383,368.2,376,371.4,368.5,371.4L368.5,371.4z M368.5,326.5c-4.7,0-8.9,1.9-11.7,4.7c-6.6,6.6-6.6,17.3,0,24.4
	c3.3,3.3,7.5,4.7,11.7,4.7c4.7,0,8.9-1.9,11.7-4.7c3.3-3.3,4.7-7.5,4.7-11.7c0-4.7-1.9-8.9-4.7-11.7
	C377.4,328.3,373.1,326.5,368.5,326.5L368.5,326.5z"/>
</svg>
