<?xml version="1.0" encoding="utf-8"?>
<!-- Generator: Adobe Illustrator 18.1.0, SVG Export Plug-In . SVG Version: 6.00 Build 0)  -->
<!DOCTYPE svg PUBLIC "-//W3C//DTD SVG 1.1//EN" "http://www.w3.org/Graphics/SVG/1.1/DTD/svg11.dtd">
<svg version="1.1" id="Ebene_1" xmlns="http://www.w3.org/2000/svg" xmlns:xlink="http://www.w3.org/1999/xlink" x="0px" y="0px"
	 viewBox="155.9 279.2 283.5 283.5" enable-background="new 155.9 279.2 283.5 283.5" xml:space="preserve">
<g>
	<g>
		<g>
			<g>
				<path fill="#010202" d="M314.4,475.6c0,0,0,32.4,0,48.7c-13.7,0-27,0-40.7,0c0,4.9,0,9.6,0,14.3c0.9,0.1,1.7,0,2.4,0
					c16.4,0,32.9-0.1,49.3,0c2.4,0-2.2,0,3,0c-0.1-19,0-62.9,0-62.9H314.4z"/>
				<path fill="#010202" d="M314.4,366.8c0,0,0-32.4,0-48.7c-13.7,0-27,0-40.7,0c0-4.9,0-9.6,0-14.3c0.9-0.1,1.7,0,2.4,0
					c16.4,0,32.9,0.1,49.3,0c2.4,0-2.2,0,3,0c-0.1,19,0,62.9,0,62.9H314.4z"/>
			</g>
			<polygon fill="#010202" points="345.1,491.6 345.1,458.8 274.7,458.8 274.7,383.2 345.1,383.4 345.1,346.2 424.3,419.7 			"/>
		</g>
	</g>
	<path fill="#010202" d="M248.7,298.4V542L185,518V315.5L248.7,298.4 M262.8,280L171,304.7v223.1l91.8,34.5V280L262.8,280z"/>
</g>
</svg>
