<?xml version="1.0" encoding="utf-8"?>
<!-- Generator: Adobe Illustrator 18.1.0, SVG Export Plug-In . SVG Version: 6.00 Build 0)  -->
<!DOCTYPE svg PUBLIC "-//W3C//DTD SVG 1.1//EN" "http://www.w3.org/Graphics/SVG/1.1/DTD/svg11.dtd">
<svg version="1.1" id="Ebene_1" xmlns="http://www.w3.org/2000/svg" xmlns:xlink="http://www.w3.org/1999/xlink" x="0px" y="0px"
	 viewBox="0 0 283.5 283.5" enable-background="new 0 0 283.5 283.5" xml:space="preserve">
<g>
	<g>
		<g>
			<g>
				<path fill-rule="evenodd" clip-rule="evenodd" fill="#010202" d="M159.8,195.5c0,0,0,32.2,0,48.4c-13.6,0-26.9,0-40.5,0
					c0,4.9,0,9.5,0,14.2c0.9,0.1,1.7,0,2.4,0c16.3,0,32.7-0.1,49,0c2.4,0-2.2,0,3,0c-0.1-18.9,0-62.6,0-62.6L159.8,195.5z"/>
				<path fill-rule="evenodd" clip-rule="evenodd" fill="#010202" d="M159.8,87.3c0,0,0-32.2,0-48.4c-13.6,0-26.9,0-40.5,0
					c0-4.9,0-9.5,0-14.2c0.9-0.1,1.7,0,2.4,0c16.3,0,32.7,0.1,49,0c2.4,0-2.2,0,3,0c-0.1,18.9,0,62.6,0,62.6L159.8,87.3z"/>
			</g>
			<polygon fill="#010202" points="190.3,211.4 190.3,178.8 120.3,178.8 120.3,103.6 190.3,103.8 190.3,66.8 269.1,139.9 			"/>
		</g>
	</g>
	<path fill="#010202" d="M94.4,19.3v242.2l-63.3-23.8V36.3L94.4,19.3 M108.4,1L17.1,25.5v221.9l91.3,34.3V1L108.4,1z"/>
</g>
</svg>
