<?xml version="1.0" encoding="utf-8"?>
<!-- Generator: Adobe Illustrator 18.1.0, SVG Export Plug-In . SVG Version: 6.00 Build 0)  -->
<!DOCTYPE svg PUBLIC "-//W3C//DTD SVG 1.1//EN" "http://www.w3.org/Graphics/SVG/1.1/DTD/svg11.dtd">
<svg version="1.1" id="Ebene_1" xmlns="http://www.w3.org/2000/svg" xmlns:xlink="http://www.w3.org/1999/xlink" x="0px" y="0px"
	 viewBox="609.1 368.5 60.6 60.5" enable-background="new 609.1 368.5 60.6 60.5" xml:space="preserve">
<path d="M617.9,429c-0.2,0-0.3,0-0.4-0.1l-8.3-8.3c-0.1-0.1-0.2-0.3-0.1-0.5l12.1-30.3l-8.9-8.9c-3.3-3.4-4-8.1-1.5-10.6
	c1-1,2.4-1.6,4-1.6c2.3,0,4.8,1.1,6.6,3l8.9,8.9l30.2-12.1l0,0l0.2,0c0.1,0,0.3,0.1,0.4,0.2l8.3,8.3c0.1,0.1,0.2,0.2,0.2,0.4
	c0,0.2-0.1,0.3-0.2,0.4l-24,18l8.6,8.6l14.5,0.1c0.3,0,0.4,0.2,0.4,0.5v8.7c0,0.2-0.1,0.4-0.3,0.5l-10.6,3.5l-3.5,10.8
	c-0.1,0.2-0.2,0.5-0.5,0.5h-8.7c-0.3,0-0.4-0.6-0.4-0.9v-14.6l-8.6-8.6l-18,24C618.3,429,618.1,429,617.9,429L617.9,429L617.9,429z
	 M652.4,426l3.4-10.3c0-0.2,0-0.3,0.2-0.4l10-3.4v-4.6l-13-0.1c-0.1,0-0.2-0.1-0.3-0.2l-11.2-11.2c-0.1-0.1-0.1-0.2-0.1-0.4
	c0-0.2,0.1-0.3,0.2-0.4l24-18l-5.3-5.3L630,383.9l-0.2,0c-0.2,0-0.3-0.1-0.4-0.2l-10-10c-1.4-1.4-3.1-2.2-4.6-2.2
	c-0.6,0-1.4,0.1-2,0.7c-1.4,1.4-0.7,4.4,1.5,6.6l10,10c0.1,0.1,0.2,0.3,0.1,0.5l-12.1,30.3l5.3,5.3l18-24c0.1-0.1,0.2-0.2,0.4-0.2
	l0,0c0.2,0,0.3,0.1,0.4,0.2l11.3,11.2c0.1,0.1,0.3,0.2,0.3,0.4V426H652.4z"/>
<path d="M617.9,428.8c-0.1,0-0.1,0-0.1-0.1l-8.3-8.3c-0.1-0.1-0.1-0.1,0-0.2l12.2-30.4l-9.1-9.1c-3.2-3.2-3.9-7.8-1.5-10.2
	c1-1,2.3-1.5,3.8-1.5c2.2,0,4.6,1.1,6.4,2.9l9.1,9.1l30.4-12.2c0,0,0,0,0.1,0c0.1,0,0.1,0,0.1,0.1l8.3,8.3c0,0,0.1,0.1,0.1,0.2
	c0,0.1,0,0.1-0.1,0.2L645,395.7l8.9,8.9l14.7,0.1c0.1,0,0.2,0.1,0.2,0.2v8.7c0,0.1-0.1,0.2-0.1,0.2l-10.8,3.6l-3.6,10.8
	c0,0.1-0.1,0.1-0.2,0.1h-8.7c-0.1,0-0.2-0.1-0.2-0.2v-14.7l-8.9-8.9l-18.2,24.3C618,428.8,618,428.8,617.9,428.8
	C617.9,428.8,617.9,428.8,617.9,428.8z M652.6,426.1l3.5-10.3c0-0.1,0.1-0.1,0.1-0.1l10.3-3.5V407l-13.5-0.1c-0.1,0-0.1,0-0.1-0.1
	l-11.2-11.2c0,0-0.1-0.1-0.1-0.2c0-0.1,0-0.1,0.1-0.2l24.3-18.2l-5.7-5.7l-30.4,12.2c0,0,0,0-0.1,0c-0.1,0-0.1,0-0.1-0.1l-10.1-10
	c-1.4-1.4-3.2-2.3-4.8-2.3c-0.6,0-1.5,0.1-2.2,0.8c-1.5,1.5-0.8,4.7,1.5,7l10,10c0.1,0.1,0.1,0.1,0,0.2L612,419.8l5.7,5.7l18.2-24.3
	c0,0,0.1-0.1,0.2-0.1c0,0,0,0,0,0c0.1,0,0.1,0,0.1,0.1l11.2,11.2c0,0,0.1,0.1,0.1,0.1v13.5H652.6z"/>
</svg>
