<?xml version="1.0" encoding="utf-8"?>
<!-- Generator: Adobe Illustrator 18.1.0, SVG Export Plug-In . SVG Version: 6.00 Build 0)  -->
<!DOCTYPE svg PUBLIC "-//W3C//DTD SVG 1.1//EN" "http://www.w3.org/Graphics/SVG/1.1/DTD/svg11.dtd">
<svg version="1.1" id="Ebene_1" xmlns="http://www.w3.org/2000/svg" xmlns:xlink="http://www.w3.org/1999/xlink" x="0px" y="0px"
	 viewBox="155.9 279.2 283.5 283.5" enable-background="new 155.9 279.2 283.5 283.5" xml:space="preserve">
<path d="M197.3,562.6c-0.9,0-1.4,0-1.9-0.5l-38.9-38.9c-0.5-0.5-0.9-1.4-0.5-2.3L212.8,379l-41.7-41.7c-15.5-15.9-18.7-37.9-7-49.6
	c4.7-4.7,11.2-7.5,18.7-7.5c10.8,0,22.5,5.2,30.9,14l41.7,41.7l141.4-56.7l0,0h0.9c0.5,0,1.4,0.5,1.9,0.9l38.9,38.9
	c0.5,0.5,0.9,0.9,0.9,1.9c0,0.9-0.5,1.4-0.9,1.9l-112.4,84.3l40.3,40.3l67.9,0.5c1.4,0,1.9,0.9,1.9,2.3v40.7c0,0.9-0.5,1.9-1.4,2.3
	l-49.6,16.4l-16.4,50.6c-0.5,0.9-0.9,2.3-2.3,2.3h-40.7c-1.4,0-1.9-2.8-1.9-4.2V490l-40.3-40.3l-84.3,112.4
	C199.2,562.6,198.2,562.6,197.3,562.6L197.3,562.6L197.3,562.6z M358.8,548.5l15.9-48.2c0-0.9,0-1.4,0.9-1.9l46.8-15.9V461
	l-60.9-0.5c-0.5,0-0.9-0.5-1.4-0.9l-52.4-52.4c-0.5-0.5-0.5-0.9-0.5-1.9c0-0.9,0.5-1.4,0.9-1.9l112.4-84.3l-24.8-24.8L254,351.4H253
	c-0.9,0-1.4-0.5-1.9-0.9l-46.8-46.8c-6.6-6.6-14.5-10.3-21.5-10.3c-2.8,0-6.6,0.5-9.4,3.3c-6.6,6.6-3.3,20.6,7,30.9l46.8,46.8
	c0.5,0.5,0.9,1.4,0.5,2.3l-56.7,141.9l24.8,24.8L280.2,431c0.5-0.5,0.9-0.9,1.9-0.9l0,0c0.9,0,1.4,0.5,1.9,0.9l52.9,52.4
	c0.5,0.5,1.4,0.9,1.4,1.9v63.2H358.8z"/>
<path d="M196.9,561.4c-0.5,0-0.5,0-0.5-0.5l-38.9-38.9c-0.5-0.5-0.5-0.5,0-0.9l57.1-142.3l-42.6-42.6c-15-15-18.3-36.5-7-47.8
	c4.7-4.7,10.8-7,17.8-7c10.3,0,21.5,5.2,30,13.6l42.6,42.6l142.3-57.1c0,0,0,0,0.5,0c0.5,0,0.5,0,0.5,0.5l38.9,38.9
	c0,0,0.5,0.5,0.5,0.9c0,0.5,0,0.5-0.5,0.9l-113.8,84.7l41.7,41.7l68.8,0.5c0.5,0,0.9,0.5,0.9,0.9v40.7c0,0.5-0.5,0.9-0.5,0.9
	L384.2,508l-16.9,50.6c0,0.5-0.5,0.5-0.9,0.5h-40.7c-0.5,0-0.9-0.5-0.9-0.9v-68.8l-41.7-41.7l-85.2,113.8
	C197.4,561.4,197.4,561.4,196.9,561.4L196.9,561.4z M359.4,548.8l16.4-48.2c0-0.5,0.5-0.5,0.5-0.5l48.2-16.4v-24.3l-63.2-0.5
	c-0.5,0-0.5,0-0.5-0.5L308.3,406c0,0-0.5-0.5-0.5-0.9c0-0.5,0-0.5,0.5-0.9l113.8-85.2l-26.7-26.7l-142.3,57.1c0,0,0,0-0.5,0
	c-0.5,0-0.5,0-0.5-0.5L204.9,302c-6.6-6.6-15-10.8-22.5-10.8c-2.8,0-7,0.5-10.3,3.7c-7,7-3.7,22,7,32.8l46.8,46.8
	c0.5,0.5,0.5,0.5,0,0.9l-56.7,143.7L196,546l85.2-113.8c0,0,0.5-0.5,0.9-0.5l0,0c0.5,0,0.5,0,0.5,0.5l52.4,52.4l0.5,0.5v63.2h23.9
	V548.8z"/>
</svg>
