<?xml version="1.0" encoding="utf-8"?>
<!-- Generator: Adobe Illustrator 18.1.0, SVG Export Plug-In . SVG Version: 6.00 Build 0)  -->
<!DOCTYPE svg PUBLIC "-//W3C//DTD SVG 1.1//EN" "http://www.w3.org/Graphics/SVG/1.1/DTD/svg11.dtd">
<svg version="1.1" id="Ebene_1" xmlns="http://www.w3.org/2000/svg" xmlns:xlink="http://www.w3.org/1999/xlink" x="0px" y="0px"
	 viewBox="0 0 283.5 283.5" enable-background="new 0 0 283.5 283.5" xml:space="preserve">
<g>
	<path fill="#010202" d="M262.3,191.4l-21-83l-10.5,8.4l18.8,73h-62c-2.8,0-5.3,2.9-6,6.1c-2.4,20-19.4,35.5-39.6,35.5
		c-20.3,0-37.3-14.9-39.6-34.9c-0.6-3.1-3-5.2-5.8-5.2l-61.9,0.2L64.2,71.8c1.2-4.7,6.6-9,10.6-9h41.6c4-4,7.6-8,12.8-12H74.7
		C64.5,50.8,54.3,59,52,68.9l-30.4,122l-1.7,74.6c0,9.7,7.7,16.3,19.2,16.3h206.3c9.9,0,17.4-6.7,17.4-16.6L262.3,191.4z
		 M251.1,266.3c0,3.4-2.2,4.5-5.6,4.5H38.3c-3.4,0-6.2-1.8-6.2-5.2v-62.4l58.7-0.1c2.5,11.3,9.4,21.5,18.5,28.8
		c9.2,7.5,20.8,11.5,32.7,11.5c11.6,0,23.1-4.1,32.4-11.5c9.2-7.4,15.8-17.6,18.2-28.7l58.5-0.2V266.3z"/>
	<g>
		<path fill="#010202" d="M279.7,70l-39.8,33.6l-10.5,8.8l-25.3,21.3l1.5-35.3c-5-1.5-16.1-3.5-28.7-3.5c-26.1,0-60.4,8.5-75.5,50.8
			L93.4,169c0,0,0-24.7,0.1-24.8c0-0.4-0.7-47.4,30.9-79.6c4-4.2,8.6-8,13.8-11.5c8.6-5.8,18.8-10.6,30.9-13.8c0,0,25.4-5,39.5-4.5
			l1.5-33.6L279.7,70z"/>
	</g>
</g>
</svg>
