<?xml version="1.0" encoding="utf-8"?>
<!-- Generator: Adobe Illustrator 18.1.0, SVG Export Plug-In . SVG Version: 6.00 Build 0)  -->
<!DOCTYPE svg PUBLIC "-//W3C//DTD SVG 1.1//EN" "http://www.w3.org/Graphics/SVG/1.1/DTD/svg11.dtd">
<svg version="1.1" id="Ebene_1" xmlns="http://www.w3.org/2000/svg" xmlns:xlink="http://www.w3.org/1999/xlink" x="0px" y="0px"
	 viewBox="155.9 279.2 283.5 283.5" enable-background="new 155.9 279.2 283.5 283.5" xml:space="preserve">
<g>
	<path fill="#010202" d="M420.8,471.1l-21.2-83.7l-10.6,8.5l19,73.6h-62.6c-2.8,0-5.3,2.9-6.1,6.2c-2.4,20.2-19.6,35.8-40,35.8
		c-20.5,0-37.6-15-40-35.2c-0.6-3.1-3-5.2-5.9-5.2l-62.4,0.2L221,350.4c1.2-4.7,6.7-9.1,10.7-9.1h42c4-4,7.7-8.1,12.9-12.1h-55
		c-10.3,0-20.6,8.3-22.9,18.3L178,470.6l-1.7,75.3c0,9.8,7.8,16.4,19.4,16.4h208.1c10,0,17.6-6.8,17.6-16.7L420.8,471.1z
		 M409.5,546.7c0,3.4-2.2,4.5-5.6,4.5h-209c-3.4,0-6.3-1.8-6.3-5.2v-63l59.2-0.1c2.5,11.4,9.5,21.7,18.7,29.1
		c9.3,7.6,21,11.6,33,11.6c11.7,0,23.3-4.1,32.7-11.6c9.3-7.5,15.9-17.8,18.4-29l59-0.2V546.7L409.5,546.7z"/>
	<g>
		<path fill="#010202" d="M438.4,348.6l-40.2,33.9l-10.6,8.9l-25.5,21.5l1.5-35.6c-5-1.5-16.2-3.5-29-3.5
			c-26.3,0-60.9,8.6-76.2,51.3l-8.1,23.5c0,0,0-24.9,0.1-25c0-0.4-0.7-47.8,31.2-80.3c4-4.2,8.7-8.1,13.9-11.6
			c8.7-5.9,19-10.7,31.2-13.9c0,0,25.6-5,39.9-4.5l1.5-33.9L438.4,348.6z"/>
	</g>
</g>
</svg>
