<?xml version="1.0" encoding="utf-8"?>
<!-- Generated by IcoMoon.io -->
<!DOCTYPE svg PUBLIC "-//W3C//DTD SVG 1.1//EN" "http://www.w3.org/Graphics/SVG/1.1/DTD/svg11.dtd">
<svg version="1.1" xmlns="http://www.w3.org/2000/svg" xmlns:xlink="http://www.w3.org/1999/xlink" width="34" height="32" viewBox="0 0 34 32">
<g id="icomoon-ignore">
	<line stroke-width="1" x1="" y1="" x2="" y2="" stroke="#449FDB" opacity=""></line>
</g>
	<path d="M33.55 32l-1.276-4.194c-2.553-8.387-9.299-10.12-14.587-10.12-1.915 0-3.464 0.273-4.285 0.365v6.473l-13.402-12.49 13.402-12.034v6.199c6.655 0.182 11.761 2.188 15.316 6.017 5.835 6.291 5.197 15.043 5.197 15.407l-0.365 4.376zM17.778 15.954c3.92 0 10.484 1.003 14.222 7.020-0.456-2.917-1.641-6.655-4.467-9.755-3.373-3.647-8.387-5.47-14.86-5.47h-0.82v-4.103l-9.39 8.387 9.39 8.661v-4.011l0.638-0.182c0 0 2.188-0.547 5.288-0.547z" fill="#000000"></path>
</svg>
