<?xml version="1.0" encoding="utf-8"?>
<!-- Generator: Adobe Illustrator 18.1.0, SVG Export Plug-In . SVG Version: 6.00 Build 0)  -->
<!DOCTYPE svg PUBLIC "-//W3C//DTD SVG 1.1//EN" "http://www.w3.org/Graphics/SVG/1.1/DTD/svg11.dtd">
<svg version="1.1" id="Ebene_1" xmlns="http://www.w3.org/2000/svg" xmlns:xlink="http://www.w3.org/1999/xlink" x="0px" y="0px"
	 viewBox="155.9 279.2 283.5 283.5" enable-background="new 155.9 279.2 283.5 283.5" xml:space="preserve">
<g>
	<path d="M243.9,444.2l-10.6-8.4v17.6l-60.5-51l60.2-59.5v21.5l10.9-10.2v-38l-88,86.5l88,73.9L243.9,444.2L243.9,444.2z"/>
	<g>
		<path d="M439.1,495.2c0-0.7,1.8-106.2-95-131.6c0,0-32-6.3-49.6-5.6l-1.8-42.2l-87.2,86.2l94.6,80.2l-1.8-44.3
			c6.3-1.8,20.1-4.6,35.9-4.6c32.7,0,75.6,10.6,94.6,63.7l10.2,29.2C439.5,526.5,439.5,495.2,439.1,495.2z M334.6,422
			c-23.9,0-42.9,5.6-42.9,5.6l-4.6,1.4l1.4,26.4l-65.8-55.6l60.2-58l1.4,29.2h5.6c19,0,33.1,0.4,48.5,3.5l0,0
			c58,14.4,81.3,60.2,87.2,91.1C401.5,430.8,364.2,422,334.6,422z"/>
	</g>
</g>
</svg>
