<?xml version="1.0" encoding="utf-8"?>
<!-- Generator: Adobe Illustrator 18.1.0, SVG Export Plug-In . SVG Version: 6.00 Build 0)  -->
<!DOCTYPE svg PUBLIC "-//W3C//DTD SVG 1.1//EN" "http://www.w3.org/Graphics/SVG/1.1/DTD/svg11.dtd">
<svg version="1.1" id="Ebene_1" xmlns="http://www.w3.org/2000/svg" xmlns:xlink="http://www.w3.org/1999/xlink" x="0px" y="0px"
	 viewBox="-404.7 279.2 283.5 283.5" enable-background="new -404.7 279.2 283.5 283.5" xml:space="preserve">
<g id="icomoon-ignore">
	<line fill="none" stroke="#449FDB" x1="-263" y1="420.9" x2="-263" y2="420.9"/>
</g>
<path d="M-124.5,554.5l-10.7-35C-156.5,449.4-212.8,435-257,435c-16,0-28.9,2.3-35.8,3v54.1l-111.9-104.3l111.9-100.5V339
	c55.6,1.5,98.2,18.3,127.9,50.3c48.7,52.5,43.4,125.7,43.4,128.7L-124.5,554.5L-124.5,554.5z M-256.2,420.5
	c32.7,0,87.6,8.4,118.8,58.6c-3.8-24.4-13.7-55.6-37.3-81.5c-28.2-30.5-70.1-45.7-124.1-45.7h-6.8v-34.3l-78.4,70.1l78.4,72.3v-33.5
	l5.3-1.5C-300.4,425.1-282.1,420.5-256.2,420.5L-256.2,420.5z"/>
</svg>
