<?xml version="1.0" encoding="utf-8"?>
<!-- Generator: Adobe Illustrator 18.1.0, SVG Export Plug-In . SVG Version: 6.00 Build 0)  -->
<!DOCTYPE svg PUBLIC "-//W3C//DTD SVG 1.1//EN" "http://www.w3.org/Graphics/SVG/1.1/DTD/svg11.dtd">
<svg version="1.1" id="Ebene_1" xmlns="http://www.w3.org/2000/svg" xmlns:xlink="http://www.w3.org/1999/xlink" x="0px" y="0px"
	 viewBox="605.9 369.3 66.5 59.9" enable-background="new 605.9 369.3 66.5 59.9" xml:space="preserve">
<g>
	<path d="M672.3,420.3c0-0.2,0.5-30.2-27-37.4c0,0-9.1-1.8-14.1-1.6l-0.5-12l-24.8,24.5l26.9,22.8l-0.5-12.6
		c1.8-0.5,5.7-1.3,10.2-1.3c9.3,0,21.5,3,26.9,18.1l2.9,8.3C672.3,429.2,672.3,420.3,672.3,420.3z M642.5,399.5
		c-6.8,0-12.2,1.6-12.2,1.6l-1.3,0.4l0.4,7.5l-18.7-15.8l17.1-16.5l0.4,8.3h1.6c5.4,0,9.4,0.1,13.8,1l0,0
		c16.5,4.1,23.1,17.1,24.8,25.9C661.5,402,650.9,399.5,642.5,399.5z"/>
</g>
</svg>
