<?xml version="1.0" encoding="utf-8"?>
<!-- Generator: Adobe Illustrator 18.1.0, SVG Export Plug-In . SVG Version: 6.00 Build 0)  -->
<!DOCTYPE svg PUBLIC "-//W3C//DTD SVG 1.1//EN" "http://www.w3.org/Graphics/SVG/1.1/DTD/svg11.dtd">
<svg version="1.1" id="Ebene_1" xmlns="http://www.w3.org/2000/svg" xmlns:xlink="http://www.w3.org/1999/xlink" x="0px" y="0px"
	 viewBox="-396.7 279.2 283.5 283.5" enable-background="new -396.7 279.2 283.5 283.5" xml:space="preserve">
<g id="icomoon-ignore">
	<line fill="none" stroke="#449FDB" x1="-255" y1="420.9" x2="-255" y2="420.9"/>
</g>
<path d="M-113.3,528.2l-10.3-29.6c-19.3-54-63-64.9-96.4-64.9c-16.1,0-30.2,2.6-36.6,4.5l1.9,45l-96.4-81.6l88.7-88.1l1.9,42.4
	c18-0.6,34.1,1.3,48.8,5.1h1.3l0.6,0.6c98.3,25.7,96.4,134.3,96.4,135C-113.3,496.7-113.3,528.2-113.3,528.2z M-220,422.2
	c30.2,0,68.1,8.4,92.6,43.7c-6.4-31.5-26.4-78.4-85.5-93.2l-1.3-0.6c-14.8-3.9-32.1-5.1-51.4-4.5h-5.8l-1.3-28.3l-61.1,60.4
	l66.8,56.6l-1.3-27l4.5-1.3C-263.7,428-244.4,422.2-220,422.2L-220,422.2z M-299.7,482.6l-97.1-81.6l88.7-87.4l2.6,36l-11.6,1.3
	l-1.3-10.9l-61.1,60.4l66.2,55.9l-0.6-10.3l11.6-1.3L-299.7,482.6z"/>
</svg>
