<?xml version="1.0" encoding="utf-8"?>
<!-- Generated by IcoMoon.io -->
<!DOCTYPE svg PUBLIC "-//W3C//DTD SVG 1.1//EN" "http://www.w3.org/Graphics/SVG/1.1/DTD/svg11.dtd">
<svg version="1.1" xmlns="http://www.w3.org/2000/svg" xmlns:xlink="http://www.w3.org/1999/xlink" width="42" height="32" viewBox="0 0 42 32">
<g id="icomoon-ignore">
	<line stroke-width="1" x1="" y1="" x2="" y2="" stroke="#449FDB" opacity=""></line>
</g>
	<path d="M42.252 32l-1.533-4.407c-2.874-8.048-9.389-9.677-14.371-9.677-2.395 0-4.503 0.383-5.461 0.671l0.287 6.707-14.371-12.168 13.222-13.126 0.287 6.323c2.683-0.096 5.078 0.192 7.281 0.766h0.192l0.096 0.096c14.659 3.832 14.371 20.024 14.371 20.12v4.695zM26.347 16.192c4.503 0 10.156 1.245 13.796 6.515-0.958-4.695-3.928-11.689-12.742-13.892l-0.192-0.096c-2.204-0.575-4.79-0.766-7.665-0.671h-0.862l-0.192-4.216-9.102 9.006 9.964 8.431-0.192-4.024 0.671-0.192c0 0 2.874-0.862 6.515-0.862zM14.467 25.198l-14.467-12.168 13.222-13.030 0.383 5.365-1.725 0.192-0.192-1.629-9.102 9.006 9.868 8.335-0.096-1.533 1.725-0.192z" fill="#000000"></path>
</svg>
