<?xml version="1.0" encoding="utf-8"?>
<!-- Generator: Adobe Illustrator 18.1.0, SVG Export Plug-In . SVG Version: 6.00 Build 0)  -->
<!DOCTYPE svg PUBLIC "-//W3C//DTD SVG 1.1//EN" "http://www.w3.org/Graphics/SVG/1.1/DTD/svg11.dtd">
<svg version="1.1" id="Ebene_1" xmlns="http://www.w3.org/2000/svg" xmlns:xlink="http://www.w3.org/1999/xlink" x="0px" y="0px"
	 viewBox="155.9 279.2 283.5 283.5" enable-background="new 155.9 279.2 283.5 283.5" xml:space="preserve">
<g>
	<path d="M439.4,511c0-0.9,2.1-128.9-115.3-159.7c0,0-38.8-7.7-60.2-6.8l-2.1-51.2L155.9,397.9l114.8,97.3l-2.1-53.8
		c7.7-2.1,24.3-5.5,43.5-5.5c39.7,0,91.8,12.8,114.8,77.3l12.4,35.4C439.4,549,439.4,511,439.4,511z M312.2,422.2
		c-29,0-52.1,6.8-52.1,6.8l-5.5,1.7l1.7,32l-79.8-67.5l73-70.4l1.7,35.4h6.8c23.1,0,40.1,0.4,58.9,4.3l0,0
		c70.4,17.5,98.6,73,105.9,110.6C393.3,432.9,348,422.2,312.2,422.2z"/>
</g>
</svg>
