<?xml version="1.0" encoding="utf-8"?>
<!-- Generator: Adobe Illustrator 18.1.0, SVG Export Plug-In . SVG Version: 6.00 Build 0)  -->
<!DOCTYPE svg PUBLIC "-//W3C//DTD SVG 1.1//EN" "http://www.w3.org/Graphics/SVG/1.1/DTD/svg11.dtd">
<svg version="1.1" id="Ebene_1" xmlns="http://www.w3.org/2000/svg" xmlns:xlink="http://www.w3.org/1999/xlink" x="0px" y="0px"
	 viewBox="-406.7 279.2 283.5 283.5" enable-background="new -406.7 279.2 283.5 283.5" xml:space="preserve">
<g id="icomoon-ignore">
	<line fill="none" stroke="#449FDB" x1="-265" y1="420.9" x2="-265" y2="420.9"/>
</g>
<path d="M-125.5,517.3l-62.6-63.4c10.2-17.8,15.5-37.6,15.5-57.5c0-64.7-52.6-117.3-117.1-117.3s-117.1,52.6-117.1,117.3
	s52.6,117.3,117.1,117.3c20.6,0,41-5.7,59.1-16.5l62.3,63.2c1.4,1.4,3.4,2.3,5.4,2.3c2,0,4-0.8,5.4-2.3l32-32.3
	C-122.5,525-122.5,520.3-125.5,517.3L-125.5,517.3z M-289.7,324.8c39.4,0,71.5,32.1,71.5,71.6s-32,71.6-71.5,71.6
	s-71.5-32.1-71.5-71.6S-329.1,324.8-289.7,324.8L-289.7,324.8z"/>
</svg>
