<?xml version="1.0" encoding="utf-8"?>
<!-- Generator: Adobe Illustrator 18.1.0, SVG Export Plug-In . SVG Version: 6.00 Build 0)  -->
<!DOCTYPE svg PUBLIC "-//W3C//DTD SVG 1.1//EN" "http://www.w3.org/Graphics/SVG/1.1/DTD/svg11.dtd">
<svg version="1.1" id="Ebene_1" xmlns="http://www.w3.org/2000/svg" xmlns:xlink="http://www.w3.org/1999/xlink" x="0px" y="0px"
	 viewBox="609.9 369.1 59.3 60.6" enable-background="new 609.9 369.1 59.3 60.6" xml:space="preserve">
<g>
	<g>
		<path d="M632.6,414.5c-9.5,0-18-6-21.3-14.9c-3.3-8.8-0.5-19.2,6.8-25.3c4.1-3.4,9.2-5.3,14.5-5.3c9.5,0,18,6,21.3,14.9
			c3.3,8.8,0.5,19.2-6.8,25.3C643,412.7,637.8,414.5,632.6,414.5z M632.6,373.1c-7.8,0-15,5.1-17.6,12.4c-2.6,7.4-0.3,15.7,5.8,20.8
			c3.3,2.7,7.5,4.2,11.9,4.2c3.4,0,6.7-0.9,9.6-2.7c6.7-4.1,10.2-12,8.7-19.6C649.2,379.6,641.3,373.1,632.6,373.1z"/>
	</g>
	<g>
		<path d="M666.7,429.7c-0.2,0-0.5-0.1-0.6-0.3l-17.9-17.9c-0.3-0.4-0.3-0.9,0-1.2l1.6-1.6c0.2-0.2,0.4-0.3,0.6-0.3
			c0.2,0,0.4,0.1,0.6,0.2l17.9,17.9c0.2,0.2,0.3,0.4,0.3,0.6c0,0.2-0.1,0.5-0.3,0.6l-1.5,1.5C667.2,429.7,667,429.7,666.7,429.7z"/>
	</g>
</g>
</svg>
