<?xml version="1.0" encoding="utf-8"?>
<!-- Generated by IcoMoon.io -->
<!DOCTYPE svg PUBLIC "-//W3C//DTD SVG 1.1//EN" "http://www.w3.org/Graphics/SVG/1.1/DTD/svg11.dtd">
<svg version="1.1" xmlns="http://www.w3.org/2000/svg" xmlns:xlink="http://www.w3.org/1999/xlink" width="32" height="32" viewBox="0 0 32 32">
<g id="icomoon-ignore">
	<line stroke-width="1" x1="" y1="" x2="" y2="" stroke="#449FDB" opacity=""></line>
</g>
	<path d="M27.813 24.169l-5.3-5.369c0.863-1.506 1.313-3.181 1.313-4.869 0-5.475-4.45-9.931-9.912-9.931s-9.912 4.456-9.912 9.931c0 5.475 4.45 9.931 9.912 9.931 1.744 0 3.469-0.481 5.006-1.4l5.275 5.35c0.119 0.119 0.288 0.194 0.456 0.194s0.337-0.069 0.456-0.194l2.706-2.738c0.25-0.256 0.25-0.656 0-0.906zM13.912 7.869c3.338 0 6.050 2.719 6.050 6.063s-2.712 6.062-6.050 6.062c-3.338 0-6.050-2.719-6.050-6.063s2.712-6.063 6.050-6.063z" fill="#000000"></path>
</svg>
