<?xml version="1.0" encoding="utf-8"?>
<!-- Generator: Adobe Illustrator 18.1.0, SVG Export Plug-In . SVG Version: 6.00 Build 0)  -->
<!DOCTYPE svg PUBLIC "-//W3C//DTD SVG 1.1//EN" "http://www.w3.org/Graphics/SVG/1.1/DTD/svg11.dtd">
<svg version="1.1" id="Ebene_1" xmlns="http://www.w3.org/2000/svg" xmlns:xlink="http://www.w3.org/1999/xlink" x="0px" y="0px"
	 viewBox="155.9 279.2 283.5 283.5" enable-background="new 155.9 279.2 283.5 283.5" xml:space="preserve">
<g>
	<g>
		<path d="M264.3,493.4c-45.4,0-86.1-28.7-101.9-71.3c-15.8-42.1-2.4-91.8,32.5-121c19.6-16.3,44-25.3,69.3-25.3
			c45.4,0,86.1,28.7,101.9,71.3c15.8,42.1,2.4,91.8-32.5,121C314.1,484.8,289.2,493.4,264.3,493.4z M264.3,295.4
			c-37.3,0-71.7,24.4-84.2,59.3c-12.4,35.4-1.4,75.1,27.7,99.5c15.8,12.9,35.9,20.1,56.9,20.1c16.3,0,32-4.3,45.9-12.9
			c32-19.6,48.8-57.4,41.6-93.7C343.7,326.5,305.9,295.4,264.3,295.4z"/>
	</g>
	<g>
		<path d="M427.4,566.1c-1,0-2.4-0.5-2.9-1.4l-85.6-85.6c-1.4-1.9-1.4-4.3,0-5.7l7.7-7.7c1-1,1.9-1.4,2.9-1.4c1,0,1.9,0.5,2.9,1
			l85.6,85.6c1,1,1.4,1.9,1.4,2.9s-0.5,2.4-1.4,2.9l-7.2,7.2C429.8,566.1,428.9,566.1,427.4,566.1z"/>
	</g>
</g>
</svg>
