<?xml version="1.0" encoding="utf-8"?>
<!-- Generator: Adobe Illustrator 18.0.0, SVG Export Plug-In . SVG Version: 6.00 Build 0)  -->
<!DOCTYPE svg PUBLIC "-//W3C//DTD SVG 1.1//EN" "http://www.w3.org/Graphics/SVG/1.1/DTD/svg11.dtd">
<svg version="1.1" id="Layer_1" xmlns="http://www.w3.org/2000/svg" xmlns:xlink="http://www.w3.org/1999/xlink" x="0px" y="0px"
	 viewBox="3 47 589.3 746.5" enable-background="new 3 47 589.3 746.5" xml:space="preserve">
<g>
	<path fill="#0A0A0A" d="M562.2,150.5c19.1,0,30,14.7,30,33v24.2c0,15.4-8.7,30.1-22.7,33v494.7c0,32.3-27.2,58-60.2,58H86.6
		c-33,0-59.5-25.7-59.5-58v-494C12.5,238.5,3,223.9,3,207.7v-24.2c0-18.4,12.4-33,31.5-33h102v-44c0-32.3,25.7-59.5,59.5-59.5H400
		c33,0,59.5,27.2,59.5,59.5v44H562.2z M521.5,757.1c4.4,0,9.1-8.9,9.1-14V190.2H65.4v553.6c0,5.1,3.7,13,9.5,13L521.5,757.1z
		 M182.8,687c-11.7,0-21.3-15.4-21.3-34.5V313.4c0-17.6,9.5-32.3,21.3-32.3h3.7c11,0,20.6,14.7,20.6,32.3v339.1
		c0,18.4-9.5,34.5-20.6,34.5H182.8z M196,87.8c-5.1,0-8.1,2.9-8.1,7.3v56h220.9v-56c0-4.4-2.9-7.3-8.1-7.3
		C400.8,87.8,196,87.8,196,87.8z M296.5,688.5c-11.7,0-21.3-15.4-21.3-34.5V314.9c0-17.6,9.5-32.3,21.3-32.3h2.9
		c11.7,0,21.3,14.7,21.3,32.3V654c0,18.4-9.5,34.5-21.3,34.5H296.5z M414.7,688.5c-11.7,0-20.6-15.4-20.6-34.5V314.9
		c0-17.6,8.8-32.3,20.6-32.3h2.9c11.7,0,21.3,14.7,21.3,32.3V654c0,18.4-9.5,34.5-21.3,34.5H414.7z"/>
</g>
</svg>
