<?xml version="1.0" encoding="utf-8"?>
<!-- Generator: Adobe Illustrator 18.1.0, SVG Export Plug-In . SVG Version: 6.00 Build 0)  -->
<!DOCTYPE svg PUBLIC "-//W3C//DTD SVG 1.1//EN" "http://www.w3.org/Graphics/SVG/1.1/DTD/svg11.dtd">
<svg version="1.1" id="Ebene_1" xmlns="http://www.w3.org/2000/svg" xmlns:xlink="http://www.w3.org/1999/xlink" x="0px" y="0px"
	 viewBox="603.6 369 71.2 60" enable-background="new 603.6 369 71.2 60" xml:space="preserve">
<polygon points="640.1,411.4 632.3,403.6 629.4,414.3 "/>
<polygon points="642.7,408.8 668.2,383.3 660.4,375.5 634.9,400.6 "/>
<rect x="666.3" y="369.1" transform="matrix(0.7071 -0.7071 0.7071 0.7071 -69.1702 582.7595)" width="5.1" height="11.5"/>
<path d="M659.7,402.2l3.6-3.5v22.2c0,4.6-3.6,8.1-7.8,8.1h-44.1c-4.6,0-7.8-3.6-7.8-8.1v-43.7c0-4.6,3.6-8.1,7.8-8.1h44.7l-3.6,3.6
	H611c-1.6,0-3.8,2.2-3.8,3.8v44.8c0,1.6,2.2,3.8,3.8,3.8h44.8c1.6,0,3.8-2.2,3.8-3.8V402.2z"/>
</svg>
