<?xml version="1.0" encoding="utf-8"?>
<!-- Generator: Adobe Illustrator 18.1.0, SVG Export Plug-In . SVG Version: 6.00 Build 0)  -->
<!DOCTYPE svg PUBLIC "-//W3C//DTD SVG 1.1//EN" "http://www.w3.org/Graphics/SVG/1.1/DTD/svg11.dtd">
<svg version="1.1" id="Ebene_1" xmlns="http://www.w3.org/2000/svg" xmlns:xlink="http://www.w3.org/1999/xlink" x="0px" y="0px"
	 viewBox="155.9 279.2 283.5 283.5" enable-background="new 155.9 279.2 283.5 283.5" xml:space="preserve">
<g id="icomoon-ignore">
	<line fill="none" stroke="#449FDB" x1="316.7" y1="420.9" x2="316.7" y2="420.9"/>
</g>
<path d="M374.1,445.7l25.9-25.9v76.5c0,15.8-12.4,28.1-27,28.1H221c-15.8,0-27-12.4-27-28.1V345.6c0-15.7,12.4-28.1,27-28.1h154.1
	l-25.9,25.9H230c-5.6,0-10.1,4.5-10.1,10.1v133.9c0,5.6,4.5,10.1,10.1,10.1H364c5.6,0,10.1-4.5,10.1-10.1V445.7z M320,463.7l-27-27
	l-10.1,37.1L320,463.7L320,463.7z M329,454.7l87.8-87.8l-27-27l-87.7,86.6L329,454.7L329,454.7z M427,358l12.4-12.4l-28.1-28.1
	l-12.4,12.4L427,358z"/>
</svg>
