<?xml version="1.0" encoding="utf-8"?>
<!-- Generator: Adobe Illustrator 18.1.0, SVG Export Plug-In . SVG Version: 6.00 Build 0)  -->
<!DOCTYPE svg PUBLIC "-//W3C//DTD SVG 1.1//EN" "http://www.w3.org/Graphics/SVG/1.1/DTD/svg11.dtd">
<svg version="1.1" id="Ebene_1" xmlns="http://www.w3.org/2000/svg" xmlns:xlink="http://www.w3.org/1999/xlink" x="0px" y="0px"
	 viewBox="155.9 279.2 283.5 283.5" enable-background="new 155.9 279.2 283.5 283.5" xml:space="preserve">
<g>
	<polygon points="316.6,462.8 288.9,435.1 278.6,473.1 	"/>
	<polygon points="325.8,453.6 416.3,363.1 388.6,335.4 298.1,424.5 	"/>
	<rect x="409.5" y="312.8" transform="matrix(-0.7071 0.7071 -0.7071 -0.7071 950.0844 272.8144)" width="18.1" height="40.8"/>
	<path d="M386.1,430.2l12.8-12.4v78.8c0,16.3-12.8,28.8-27.7,28.8H214.7c-16.3,0-27.7-12.8-27.7-28.8V341.4
		c0-16.3,12.8-28.8,27.7-28.8h158.7l-12.8,12.8H213.3c-5.7,0-13.5,7.8-13.5,13.5v159c0,5.7,7.8,13.5,13.5,13.5h159
		c5.7,0,13.5-7.8,13.5-13.5v-67.8H386.1z"/>
</g>
</svg>
