<?xml version="1.0" encoding="utf-8"?>
<!-- Generated by IcoMoon.io -->
<!DOCTYPE svg PUBLIC "-//W3C//DTD SVG 1.1//EN" "http://www.w3.org/Graphics/SVG/1.1/DTD/svg11.dtd">
<svg version="1.1" xmlns="http://www.w3.org/2000/svg" xmlns:xlink="http://www.w3.org/1999/xlink" width="37" height="32" viewBox="0 0 37 32">
<g id="icomoon-ignore">
	<line stroke-width="1" x1="" y1="" x2="" y2="" stroke="#449FDB" opacity=""></line>
</g>
	<path d="M27.401 19.769l3.94-3.94v11.644c0 2.398-1.884 4.281-4.11 4.281l-23.12 0.002c-2.398 0-4.11-1.884-4.11-4.281v-22.949c0-2.397 1.884-4.281 4.11-4.281h23.461l-3.94 3.94h-18.151c-0.857 0-1.541 0.684-1.541 1.541v20.379c0 0.857 0.684 1.541 1.541 1.541h20.379c0.857 0 1.541-0.684 1.541-1.541v-6.336zM19.18 22.508l-4.11-4.11-1.541 5.652 5.652-1.541zM20.551 21.138l13.358-13.358-4.112-4.108-13.356 13.186 4.11 4.281zM35.449 6.411l1.884-1.884-4.281-4.281-1.884 1.884 4.281 4.281z" fill="#000000"></path>
</svg>
